<svg id="kity_svg_6" xmlns="http://www.w3.org/2000/svg" xmlns:xlink="http://www.w3.org/1999/xlink" version="1.1" width="1383" height="584" style="background: rgb(251, 251, 251); visibility: visible;" viewBox="0 0 1383 584"><defs id="kity_defs_7"><linearGradient id="kity_linearGradient_17" x1="0" y1="0" x2="0" y2="1"><stop id="kity_stop_18" offset="0" stop-color="rgb(255, 255, 255)"></stop><stop id="kity_stop_19" offset="1" stop-color="rgb(204, 204, 204)"></stop></linearGradient><marker id="kity_marker_2" orient="auto" refX="6" refY="0" viewBox="-7 -7 14 14" markerWidth="7" markerHeight="7" markerUnits="userSpaceOnUse"><path id="kity_path_3" fill="rgb(115, 161, 191)" stroke="none" d="M6,0A6,6,0,1,1,-6,0A6,6,0,1,1,6,0"></path></marker></defs><g id="kity_g_8"><g id="minder1" text-rendering="optimize-speed"><g id="minder_connect_group1"><path id="kity_path_31" fill="none" stroke="rgb(115, 161, 191)" stroke-width="1" d="M820.5,60.5v30h-764.5V113.5"></path><path id="kity_path_33" fill="none" stroke="rgb(115, 161, 191)" stroke-width="1" d="M40.5,139.5V203.5L120.5,203.5"></path><path id="kity_path_35" fill="none" stroke="rgb(115, 161, 191)" stroke-width="1" d="M140.5,214.5V267.5L181.5,267.5"></path><path id="kity_path_37" fill="none" stroke="rgb(115, 161, 191)" stroke-width="1" d="M40.5,139.5V325.5L60.5,325.5"></path><path id="kity_path_39" fill="none" stroke="rgb(115, 161, 191)" stroke-width="1" d="M80.5,336.5V377.5L100.5,377.5"></path><path id="kity_path_41" fill="none" stroke="rgb(115, 161, 191)" stroke-width="1" d="M40.5,139.5V429.5L60.5,429.5"></path><path id="kity_path_43" fill="none" stroke="rgb(115, 161, 191)" stroke-width="1" d="M80.5,440.5V517.5L100.5,517.5"></path><path id="kity_path_45" fill="none" stroke="rgb(115, 161, 191)" stroke-width="1" d="M820.5,60.5v30h401V168.5"></path><path id="kity_path_47" fill="none" stroke="rgb(115, 161, 191)" stroke-width="1" d="M1191.5,194.5V240.5L1211.5,240.5"></path><path id="kity_path_49" fill="none" stroke="rgb(115, 161, 191)" stroke-width="1" d="M1231.5,251.5V292.5L1251.5,292.5"></path><path id="kity_path_51" fill="none" stroke="rgb(115, 161, 191)" stroke-width="1" d="M1191.5,194.5V344.5L1211.5,344.5"></path><path id="kity_path_53" fill="none" stroke="rgb(115, 161, 191)" stroke-width="1" d="M1231.5,355.5V396.5L1251.5,396.5"></path><path id="kity_path_55" fill="none" stroke="rgb(115, 161, 191)" stroke-width="1" d="M1191.5,194.5V448.5L1211.5,448.5"></path><path id="kity_path_57" fill="none" stroke="rgb(115, 161, 191)" stroke-width="1" d="M1231.5,459.5V500.5L1251.5,500.5"></path><path id="kity_path_59" fill="none" stroke="rgb(115, 161, 191)" stroke-width="1" d="M820.5,60.5v30h2V180.5"></path><path id="kity_path_61" fill="none" stroke="rgb(115, 161, 191)" stroke-width="1" d="M786.5,206.5V252.5L806.5,252.5"></path></g><g id="minder_node1"><path id="node_outline1" fill="rgb(115, 161, 191)" stroke="rgb(57, 80, 96)" d="M749.5,20.5h141a5,5,0,0,1,5,5v30a5,5,0,0,1,-5,5h-141a5,5,0,0,1,-5,-5v-30a5,5,0,0,1,5,-5z" stroke-width="3"></path><g id="node_text1" fill="white"><text id="kity_text_22" text-rendering="inherit" font-size="16" dy=".8em" y="30.09999990463257" x="768.5">func 函数方法</text></g></g><g id="kity_g_12"><path id="kity_path_13" fill="none" stroke="none" d="M768.5,40.5h0v0h0z"></path></g><g id="kity_g_14"><path id="kity_path_15" fill="none" stroke="none" d="M768.5,40.5h0v0h0z"></path><path id="kity_path_16" fill="none" stroke="none"></path></g><g id="minder_node2"><g id="node_expander7" style="cursor: pointer;"><path id="kity_path_135" fill="white" stroke="gray" d="M61.5,106.5A6,6,0,1,1,49.5,106.5A6,6,0,1,1,61.5,106.5"></path><path id="kity_path_136" fill="none" stroke="gray" d="M51,106.5L60,106.5"></path></g><path id="node_outline8" fill="rgb(238, 243, 246)" stroke="rgb(115, 161, 191)" d="M23.5,113.5h64a3,3,0,0,1,3,3v20a3,3,0,0,1,-3,3h-64a3,3,0,0,1,-3,-3v-20a3,3,0,0,1,3,-3z" stroke-width="1"></path><g id="node_text8" fill="black"><text id="kity_text_81" text-rendering="inherit" font-size="14" dy=".8em" y="117.40000009536743" x="40.5">声明</text></g></g><g id="minder_node3"><g id="node_expander2" style="cursor: pointer;"><path id="kity_path_120" fill="white" stroke="gray" d="M120.5,203.5A6,6,0,1,1,108.5,203.5A6,6,0,1,1,120.5,203.5"></path><path id="kity_path_121" fill="none" stroke="gray" d="M110,203.5L119,203.5"></path></g><path id="node_outline3" fill="none" stroke="none" d="M125.5,192.5h59a5,5,0,0,1,5,5v12a5,5,0,0,1,-5,5h-59a5,5,0,0,1,-5,-5v-12a5,5,0,0,1,5,-5z"></path><g id="node_text3" fill="black"><text id="kity_text_67" text-rendering="inherit" font-size="12" dy=".8em" y="195.70000004768372" x="130.5">基本结构</text></g></g><g id="minder_node4"><g id="node_expander1" display="none" style="cursor: pointer;"><path id="kity_path_117" fill="white" stroke="gray" d="M181.5,267.5A6,6,0,1,1,169.5,267.5A6,6,0,1,1,181.5,267.5"></path><path id="kity_path_118" fill="none" stroke="gray"></path></g><path id="node_outline2" fill="none" stroke="none" d="M186.5,238.5h453a5,5,0,0,1,5,5v48a5,5,0,0,1,-5,5h-453a5,5,0,0,1,-5,-5v-48a5,5,0,0,1,5,-5z"></path><g id="node_text2" fill="black"><text id="kity_text_63" text-rendering="inherit" font-size="12" dy=".8em" y="241.70000004768372" x="191.5">func 函数名 (入参1 入参类型，入参2 入参类型...)(出参1 出参类型,出参2 出参类型){</text><text id="kity_text_64" text-rendering="inherit" font-size="12" dy=".8em" y="259.7000000476837" x="191.5">函数体 // 写一些逻辑代码&#xa0; 一定要return你的出参 符合出参类型 且入参一定要使用</text><text id="kity_text_65" text-rendering="inherit" font-size="12" dy=".8em" y="277.7000000476837" x="191.5">}</text></g></g><g id="minder_node5"><g id="node_expander4" style="cursor: pointer;"><path id="kity_path_126" fill="white" stroke="gray" d="M60.5,325.5A6,6,0,1,1,48.5,325.5A6,6,0,1,1,60.5,325.5"></path><path id="kity_path_127" fill="none" stroke="gray" d="M50,325.5L59,325.5"></path></g><path id="node_outline5" fill="none" stroke="none" d="M65.5,314.5h59a5,5,0,0,1,5,5v12a5,5,0,0,1,-5,5h-59a5,5,0,0,1,-5,-5v-12a5,5,0,0,1,5,-5z"></path><g id="node_text5" fill="black"><text id="kity_text_71" text-rendering="inherit" font-size="12" dy=".8em" y="317.7000000476837" x="70.5">匿名函数</text></g></g><g id="minder_node6"><g id="node_expander3" display="none" style="cursor: pointer;"><path id="kity_path_123" fill="white" stroke="gray" d="M100.5,377.5A6,6,0,1,1,88.5,377.5A6,6,0,1,1,100.5,377.5"></path><path id="kity_path_124" fill="none" stroke="gray"></path></g><path id="node_outline4" fill="none" stroke="none" d="M105.5,366.5h76a5,5,0,0,1,5,5v12a5,5,0,0,1,-5,5h-76a5,5,0,0,1,-5,-5v-12a5,5,0,0,1,5,-5z"></path><g id="node_text4" fill="black"><text id="kity_text_69" text-rendering="inherit" font-size="12" dy=".8em" y="369.7000000476837" x="110.5">A:= func(){}</text></g></g><g id="minder_node7"><g id="node_expander6" style="cursor: pointer;"><path id="kity_path_132" fill="white" stroke="gray" d="M60.5,429.5A6,6,0,1,1,48.5,429.5A6,6,0,1,1,60.5,429.5"></path><path id="kity_path_133" fill="none" stroke="gray" d="M50,429.5L59,429.5"></path></g><path id="node_outline7" fill="none" stroke="none" d="M65.5,418.5h73a5,5,0,0,1,5,5v12a5,5,0,0,1,-5,5h-73a5,5,0,0,1,-5,-5v-12a5,5,0,0,1,5,-5z"></path><g id="node_text7" fill="black"><text id="kity_text_79" text-rendering="inherit" font-size="12" dy=".8em" y="421.7000000476837" x="70.5">不行参函数</text></g></g><g id="minder_node8"><g id="node_expander5" display="none" style="cursor: pointer;"><path id="kity_path_129" fill="white" stroke="gray" d="M100.5,517.5A6,6,0,1,1,88.5,517.5A6,6,0,1,1,100.5,517.5"></path><path id="kity_path_130" fill="none" stroke="gray"></path></g><path id="node_outline6" fill="none" stroke="none" d="M105.5,470.5h288a5,5,0,0,1,5,5v84a5,5,0,0,1,-5,5h-288a5,5,0,0,1,-5,-5v-84a5,5,0,0,1,5,-5z"></path><g id="node_text6" fill="black"><text id="kity_text_73" text-rendering="inherit" font-size="12" dy=".8em" y="473.7000000476837" x="110.5">func UN (入参1 参数类型，入参2 ...参数类型 )（）{</text><text id="kity_text_74" text-rendering="inherit" font-size="12" dy=".8em" y="491.7000000476837" x="110.5">&#xa0; &#xa0;fmt.Pringln(入参1，入参2)</text><text id="kity_text_75" text-rendering="inherit" font-size="12" dy=".8em" y="509.7000000476837" x="110.5">我们可以对入参2进行 for range</text><text id="kity_text_76" text-rendering="inherit" font-size="12" dy=".8em" y="527.7000000476837" x="110.5">不定参必须作为最后一项</text><text id="kity_text_77" text-rendering="inherit" font-size="12" dy=".8em" y="545.7000000476837" x="110.5">}</text></g></g><g id="minder_node9"><g id="node_expander14" style="cursor: pointer;"><path id="kity_path_156" fill="white" stroke="gray" d="M1227,161.5A6,6,0,1,1,1215,161.5A6,6,0,1,1,1227,161.5"></path><path id="kity_path_157" fill="none" stroke="gray" d="M1216.5,161.5L1225.5,161.5"></path></g><path id="node_outline15" fill="rgb(238, 243, 246)" stroke="rgb(115, 161, 191)" d="M1174.5,168.5h93a3,3,0,0,1,3,3v20a3,3,0,0,1,-3,3h-93a3,3,0,0,1,-3,-3v-20a3,3,0,0,1,3,-3z" stroke-width="1"></path><g id="node_text15" fill="black"><text id="kity_text_95" text-rendering="inherit" font-size="14" dy=".8em" y="172.40000009536743" x="1191.5">特殊函数</text></g></g><g id="minder_node10"><g id="node_expander9" style="cursor: pointer;"><path id="kity_path_141" fill="white" stroke="gray" d="M1211.5,240.5A6,6,0,1,1,1199.5,240.5A6,6,0,1,1,1211.5,240.5"></path><path id="kity_path_142" fill="none" stroke="gray" d="M1201,240.5L1210,240.5"></path></g><path id="node_outline10" fill="none" stroke="none" d="M1216.5,229.5h71a5,5,0,0,1,5,5v12a5,5,0,0,1,-5,5h-71a5,5,0,0,1,-5,-5v-12a5,5,0,0,1,5,-5z"></path><g id="node_text10" fill="black"><text id="kity_text_85" text-rendering="inherit" font-size="12" dy=".8em" y="232.70000004768372" x="1221.5">自执行函数</text></g></g><g id="minder_node11"><g id="node_expander8" display="none" style="cursor: pointer;"><path id="kity_path_138" fill="white" stroke="gray" d="M1251.5,292.5A6,6,0,1,1,1239.5,292.5A6,6,0,1,1,1251.5,292.5"></path><path id="kity_path_139" fill="none" stroke="gray"></path></g><path id="node_outline9" fill="none" stroke="none" d="M1256.5,281.5h67a5,5,0,0,1,5,5v12a5,5,0,0,1,-5,5h-67a5,5,0,0,1,-5,-5v-12a5,5,0,0,1,5,-5z"></path><g id="node_text9" fill="black"><text id="kity_text_83" text-rendering="inherit" font-size="12" dy=".8em" y="284.7000000476837" x="1261.5">(func(){})()</text></g></g><g id="minder_node12"><g id="node_expander11" style="cursor: pointer;"><path id="kity_path_147" fill="white" stroke="gray" d="M1211.5,344.5A6,6,0,1,1,1199.5,344.5A6,6,0,1,1,1211.5,344.5"></path><path id="kity_path_148" fill="none" stroke="gray" d="M1201,344.5L1210,344.5"></path></g><path id="node_outline12" fill="none" stroke="none" d="M1216.5,333.5h59a5,5,0,0,1,5,5v12a5,5,0,0,1,-5,5h-59a5,5,0,0,1,-5,-5v-12a5,5,0,0,1,5,-5z"></path><g id="node_text12" fill="black"><text id="kity_text_89" text-rendering="inherit" font-size="12" dy=".8em" y="336.7000000476837" x="1221.5">闭包函数</text></g></g><g id="minder_node13"><g id="node_expander10" display="none" style="cursor: pointer;"><path id="kity_path_144" fill="white" stroke="gray" d="M1251.5,396.5A6,6,0,1,1,1239.5,396.5A6,6,0,1,1,1251.5,396.5"></path><path id="kity_path_145" fill="none" stroke="gray"></path></g><path id="node_outline11" fill="none" stroke="none" d="M1256.5,385.5h102a5,5,0,0,1,5,5v12a5,5,0,0,1,-5,5h-102a5,5,0,0,1,-5,-5v-12a5,5,0,0,1,5,-5z"></path><g id="node_text11" fill="black"><text id="kity_text_87" text-rendering="inherit" font-size="12" dy=".8em" y="388.7000000476837" x="1261.5">func()(func(A)){}</text></g></g><g id="minder_node14"><g id="node_expander13" style="cursor: pointer;"><path id="kity_path_153" fill="white" stroke="gray" d="M1211.5,448.5A6,6,0,1,1,1199.5,448.5A6,6,0,1,1,1211.5,448.5"></path><path id="kity_path_154" fill="none" stroke="gray" d="M1201,448.5L1210,448.5"></path></g><path id="node_outline14" fill="none" stroke="none" d="M1216.5,437.5h85a5,5,0,0,1,5,5v12a5,5,0,0,1,-5,5h-85a5,5,0,0,1,-5,-5v-12a5,5,0,0,1,5,-5z"></path><g id="node_text14" fill="black"><text id="kity_text_93" text-rendering="inherit" font-size="12" dy=".8em" y="440.7000000476837" x="1221.5">延迟调用函数</text></g></g><g id="minder_node15"><g id="node_expander12" display="none" style="cursor: pointer;"><path id="kity_path_150" fill="white" stroke="gray" d="M1251.5,500.5A6,6,0,1,1,1239.5,500.5A6,6,0,1,1,1251.5,500.5"></path><path id="kity_path_151" fill="none" stroke="gray"></path></g><path id="node_outline13" fill="none" stroke="none" d="M1256.5,489.5h41a5,5,0,0,1,5,5v12a5,5,0,0,1,-5,5h-41a5,5,0,0,1,-5,-5v-12a5,5,0,0,1,5,-5z"></path><g id="node_text13" fill="black"><text id="kity_text_91" text-rendering="inherit" font-size="12" dy=".8em" y="492.7000000476837" x="1261.5">defer</text></g></g><g id="minder_node16"><g id="node_expander16" style="cursor: pointer;"><path id="kity_path_162" fill="white" stroke="gray" d="M828,173.5A6,6,0,1,1,816,173.5A6,6,0,1,1,828,173.5"></path><path id="kity_path_163" fill="none" stroke="gray" d="M817.5,173.5L826.5,173.5"></path></g><path id="node_outline17" fill="rgb(238, 243, 246)" stroke="rgb(115, 161, 191)" d="M769.5,180.5h105a3,3,0,0,1,3,3v20a3,3,0,0,1,-3,3h-105a3,3,0,0,1,-3,-3v-20a3,3,0,0,1,3,-3z" stroke-width="1"></path><g id="node_text17" fill="black"><text id="kity_text_99" text-rendering="inherit" font-size="14" dy=".8em" y="184.40000009536743" x="786.5">函数的调用</text></g></g><g id="minder_node17"><g id="node_expander15" display="none" style="cursor: pointer;"><path id="kity_path_159" fill="white" stroke="gray" d="M806.5,252.5A6,6,0,1,1,794.5,252.5A6,6,0,1,1,806.5,252.5"></path><path id="kity_path_160" fill="none" stroke="gray"></path></g><path id="node_outline16" fill="none" stroke="none" d="M811.5,241.5h79a5,5,0,0,1,5,5v12a5,5,0,0,1,-5,5h-79a5,5,0,0,1,-5,-5v-12a5,5,0,0,1,5,-5z"></path><g id="node_text16" fill="black"><text id="kity_text_97" text-rendering="inherit" font-size="12" dy=".8em" y="244.70000004768372" x="816.5">方法名(实参)</text></g></g></g></g></svg>