<svg id="kity_svg_6" xmlns="http://www.w3.org/2000/svg" xmlns:xlink="http://www.w3.org/1999/xlink" version="1.1" width="1872" height="473" style="background: rgb(251, 251, 251); visibility: visible;" viewBox="0 0 1872 473"><defs id="kity_defs_7"><linearGradient id="kity_linearGradient_17" x1="0" y1="0" x2="0" y2="1"><stop id="kity_stop_18" offset="0" stop-color="rgb(255, 255, 255)"></stop><stop id="kity_stop_19" offset="1" stop-color="rgb(204, 204, 204)"></stop></linearGradient><marker id="kity_marker_2" orient="auto" refX="6" refY="0" viewBox="-7 -7 14 14" markerWidth="7" markerHeight="7" markerUnits="userSpaceOnUse"><path id="kity_path_3" fill="rgb(115, 161, 191)" stroke="none" d="M6,0A6,6,0,1,1,-6,0A6,6,0,1,1,6,0"></path></marker></defs><g id="kity_g_8"><g id="minder1" text-rendering="optimize-speed"><g id="minder_connect_group1"><path id="kity_path_31" fill="none" stroke="rgb(115, 161, 191)" stroke-width="1" d="M853.5,60.5v30h-771.5V110.5"></path><path id="kity_path_33" fill="none" stroke="rgb(115, 161, 191)" stroke-width="1" d="M853.5,60.5v30h-620.5V110.5"></path><path id="kity_path_35" fill="none" stroke="rgb(115, 161, 191)" stroke-width="1" d="M203.5,136.5V272.5L223.5,272.5"></path><path id="kity_path_37" fill="none" stroke="rgb(115, 161, 191)" stroke-width="1" d="M853.5,60.5v30h-76.5V110.5"></path><path id="kity_path_39" fill="none" stroke="rgb(115, 161, 191)" stroke-width="1" d="M698.5,136.5V182.5L718.5,182.5"></path><path id="kity_path_41" fill="none" stroke="rgb(115, 161, 191)" stroke-width="1" d="M698.5,136.5V234.5L718.5,234.5"></path><path id="kity_path_43" fill="none" stroke="rgb(115, 161, 191)" stroke-width="1" d="M698.5,136.5V286.5L718.5,286.5"></path><path id="kity_path_45" fill="none" stroke="rgb(115, 161, 191)" stroke-width="1" d="M698.5,136.5V338.5L718.5,338.5"></path><path id="kity_path_47" fill="none" stroke="rgb(115, 161, 191)" stroke-width="1" d="M698.5,136.5V390.5L718.5,390.5"></path><path id="kity_path_49" fill="none" stroke="rgb(115, 161, 191)" stroke-width="1" d="M853.5,60.5v30h483.5V110.5"></path><path id="kity_path_51" fill="none" stroke="rgb(115, 161, 191)" stroke-width="1" d="M1265.5,136.5V182.5L1285.5,182.5"></path><path id="kity_path_53" fill="none" stroke="rgb(115, 161, 191)" stroke-width="1" d="M1265.5,136.5V234.5L1285.5,234.5"></path><path id="kity_path_55" fill="none" stroke="rgb(115, 161, 191)" stroke-width="1" d="M1265.5,136.5V286.5L1285.5,286.5"></path><path id="kity_path_57" fill="none" stroke="rgb(115, 161, 191)" stroke-width="1" d="M1265.5,136.5V338.5L1285.5,338.5"></path><path id="kity_path_59" fill="none" stroke="rgb(115, 161, 191)" stroke-width="1" d="M1305.5,349.5V390.5L1325.5,390.5"></path><path id="kity_path_61" fill="none" stroke="rgb(115, 161, 191)" stroke-width="1" d="M1305.5,349.5V442.5L1325.5,442.5"></path><path id="kity_path_63" fill="none" stroke="rgb(115, 161, 191)" stroke-width="1" d="M853.5,60.5v30h784.5V110.5"></path><path id="kity_path_65" fill="none" stroke="rgb(115, 161, 191)" stroke-width="1" d="M1608.5,136.5V182.5L1628.5,182.5"></path></g><g id="minder_node1"><path id="node_outline1" fill="rgb(115, 161, 191)" stroke="rgb(57, 80, 96)" d="M746.5,20.5h214a5,5,0,0,1,5,5v30a5,5,0,0,1,-5,5h-214a5,5,0,0,1,-5,-5v-30a5,5,0,0,1,5,-5z" stroke-width="3"></path><g id="node_text1" fill="white"><text id="kity_text_22" text-rendering="inherit" font-size="16" dy=".8em" y="30.09999990463257" x="765.5">golang 基础之 文件操作</text></g></g><g id="kity_g_12"><path id="kity_path_13" fill="none" stroke="none" d="M765.5,40.5h0v0h0z"></path></g><g id="kity_g_14"><path id="kity_path_15" fill="none" stroke="none" d="M765.5,40.5h0v0h0z"></path><path id="kity_path_16" fill="none" stroke="none"></path></g><g id="minder_node2"><g id="node_expander1" display="none" style="cursor: pointer;"><path id="kity_path_131" fill="white" stroke="gray" d="M88,103.5A6,6,0,1,1,76,103.5A6,6,0,1,1,88,103.5"></path><path id="kity_path_132" fill="none" stroke="gray"></path></g><path id="node_outline2" fill="rgb(238, 243, 246)" stroke="rgb(115, 161, 191)" d="M23.5,110.5h117a3,3,0,0,1,3,3v20a3,3,0,0,1,-3,3h-117a3,3,0,0,1,-3,-3v-20a3,3,0,0,1,3,-3z" stroke-width="1"></path><g id="node_text2" fill="black"><text id="kity_text_67" text-rendering="inherit" font-size="14" dy=".8em" y="114.40000009536743" x="40.5">io包基础接口</text></g></g><g id="minder_node3"><g id="node_expander3" style="cursor: pointer;"><path id="kity_path_137" fill="white" stroke="gray" d="M239,103.5A6,6,0,1,1,227,103.5A6,6,0,1,1,239,103.5"></path><path id="kity_path_138" fill="none" stroke="gray" d="M228.5,103.5L237.5,103.5"></path></g><path id="node_outline4" fill="rgb(238, 243, 246)" stroke="rgb(115, 161, 191)" d="M186.5,110.5h93a3,3,0,0,1,3,3v20a3,3,0,0,1,-3,3h-93a3,3,0,0,1,-3,-3v-20a3,3,0,0,1,3,-3z" stroke-width="1"></path><g id="node_text4" fill="black"><text id="kity_text_81" text-rendering="inherit" font-size="14" dy=".8em" y="114.40000009536743" x="203.5">一些常量</text></g></g><g id="minder_node4"><g id="node_expander2" display="none" style="cursor: pointer;"><path id="kity_path_134" fill="white" stroke="gray" d="M223.5,272.5A6,6,0,1,1,211.5,272.5A6,6,0,1,1,223.5,272.5"></path><path id="kity_path_135" fill="none" stroke="gray"></path></g><path id="node_outline3" fill="none" stroke="none" d="M228.5,171.5h405a5,5,0,0,1,5,5v192a5,5,0,0,1,-5,5h-405a5,5,0,0,1,-5,-5v-192a5,5,0,0,1,5,-5z"></path><g id="node_text3" fill="black"><text id="kity_text_69" text-rendering="inherit" font-size="12" dy=".8em" y="174.70000004768372" x="233.5">const (</text><text id="kity_text_70" text-rendering="inherit" font-size="12" dy=".8em" y="192.70000004768372" x="233.5">	O_RDONLY int = syscall.O_RDONLY // 只读模式打开文件</text><text id="kity_text_71" text-rendering="inherit" font-size="12" dy=".8em" y="210.70000004768372" x="233.5">	O_WRONLY int = syscall.O_WRONLY // 只写模式打开文件</text><text id="kity_text_72" text-rendering="inherit" font-size="12" dy=".8em" y="228.70000004768372" x="233.5">	O_RDWR   int = syscall.O_RDWR   // 读写模式打开文件</text><text id="kity_text_73" text-rendering="inherit" font-size="12" dy=".8em" y="246.70000004768372" x="233.5">	O_APPEND int = syscall.O_APPEND // 写操作时将数据附加到文件尾部</text><text id="kity_text_74" text-rendering="inherit" font-size="12" dy=".8em" y="264.7000000476837" x="233.5">	O_CREATE int = syscall.O_CREAT  // 如果不存在将创建一个新文件</text><text id="kity_text_75" text-rendering="inherit" font-size="12" dy=".8em" y="282.7000000476837" x="233.5">	O_EXCL   int = syscall.O_EXCL   // 和O_CREATE配合使用，文件必须不存在</text><text id="kity_text_76" text-rendering="inherit" font-size="12" dy=".8em" y="300.7000000476837" x="233.5">	O_SYNC   int = syscall.O_SYNC   // 打开文件用于同步I/O</text><text id="kity_text_77" text-rendering="inherit" font-size="12" dy=".8em" y="318.7000000476837" x="233.5">	O_TRUNC  int = syscall.O_TRUNC  // 如果可能，打开时清空文件</text><text id="kity_text_78" text-rendering="inherit" font-size="12" dy=".8em" y="336.7000000476837" x="233.5">)</text><text id="kity_text_79" text-rendering="inherit" font-size="12" dy=".8em" y="354.7000000476837" x="233.5"> </text></g></g><g id="minder_node5"><g id="node_expander9" style="cursor: pointer;"><path id="kity_path_155" fill="white" stroke="gray" d="M783,103.5A6,6,0,1,1,771,103.5A6,6,0,1,1,783,103.5"></path><path id="kity_path_156" fill="none" stroke="gray" d="M772.5,103.5L781.5,103.5"></path></g><path id="node_outline10" fill="rgb(238, 243, 246)" stroke="rgb(115, 161, 191)" d="M681.5,110.5h191a3,3,0,0,1,3,3v20a3,3,0,0,1,-3,3h-191a3,3,0,0,1,-3,-3v-20a3,3,0,0,1,3,-3z" stroke-width="1"></path><g id="node_text10" fill="black"><text id="kity_text_93" text-rendering="inherit" font-size="14" dy=".8em" y="114.40000009536743" x="698.5">读取文件的几个关键方法</text></g></g><g id="minder_node6"><g id="node_expander4" display="none" style="cursor: pointer;"><path id="kity_path_140" fill="white" stroke="gray" d="M718.5,182.5A6,6,0,1,1,706.5,182.5A6,6,0,1,1,718.5,182.5"></path><path id="kity_path_141" fill="none" stroke="gray"></path></g><path id="node_outline5" fill="none" stroke="none" d="M723.5,171.5h227a5,5,0,0,1,5,5v12a5,5,0,0,1,-5,5h-227a5,5,0,0,1,-5,-5v-12a5,5,0,0,1,5,-5z"></path><g id="node_text5" fill="black"><text id="kity_text_83" text-rendering="inherit" font-size="12" dy=".8em" y="174.70000004768372" x="728.5">os.openFile() 用于打开文件 获取到 *fire</text></g></g><g id="minder_node7"><g id="node_expander5" display="none" style="cursor: pointer;"><path id="kity_path_143" fill="white" stroke="gray" d="M718.5,234.5A6,6,0,1,1,706.5,234.5A6,6,0,1,1,718.5,234.5"></path><path id="kity_path_144" fill="none" stroke="gray"></path></g><path id="node_outline6" fill="none" stroke="none" d="M723.5,223.5h236a5,5,0,0,1,5,5v12a5,5,0,0,1,-5,5h-236a5,5,0,0,1,-5,-5v-12a5,5,0,0,1,5,-5z"></path><g id="node_text6" fill="black"><text id="kity_text_85" text-rendering="inherit" font-size="12" dy=".8em" y="226.70000004768372" x="728.5">bufio.newReader(f) 将文件变化为 reader</text></g></g><g id="minder_node8"><g id="node_expander6" display="none" style="cursor: pointer;"><path id="kity_path_146" fill="white" stroke="gray" d="M718.5,286.5A6,6,0,1,1,706.5,286.5A6,6,0,1,1,718.5,286.5"></path><path id="kity_path_147" fill="none" stroke="gray"></path></g><path id="node_outline7" fill="none" stroke="none" d="M723.5,275.5h477a5,5,0,0,1,5,5v12a5,5,0,0,1,-5,5h-477a5,5,0,0,1,-5,-5v-12a5,5,0,0,1,5,-5z"></path><g id="node_text7" fill="black"><text id="kity_text_87" text-rendering="inherit" font-size="12" dy=".8em" y="278.7000000476837" x="728.5">reader.ReadString('字符') 调用reader上的方法 还有 ReadLine ReadByte ReadSlice 等</text></g></g><g id="minder_node9"><g id="node_expander7" display="none" style="cursor: pointer;"><path id="kity_path_149" fill="white" stroke="gray" d="M718.5,338.5A6,6,0,1,1,706.5,338.5A6,6,0,1,1,718.5,338.5"></path><path id="kity_path_150" fill="none" stroke="gray"></path></g><path id="node_outline8" fill="none" stroke="none" d="M723.5,327.5h426a5,5,0,0,1,5,5v12a5,5,0,0,1,-5,5h-426a5,5,0,0,1,-5,-5v-12a5,5,0,0,1,5,-5z"></path><g id="node_text8" fill="black"><text id="kity_text_89" text-rendering="inherit" font-size="12" dy=".8em" y="330.7000000476837" x="728.5">ioutil.ReadAll(f) 直接读取整个文件&#xa0;&#xa0;os.ReadFile(文件路径) 也能达到同样效果</text></g></g><g id="minder_node10"><g id="node_expander8" display="none" style="cursor: pointer;"><path id="kity_path_152" fill="white" stroke="gray" d="M718.5,390.5A6,6,0,1,1,706.5,390.5A6,6,0,1,1,718.5,390.5"></path><path id="kity_path_153" fill="none" stroke="gray"></path></g><path id="node_outline9" fill="none" stroke="none" d="M723.5,379.5h322a5,5,0,0,1,5,5v12a5,5,0,0,1,-5,5h-322a5,5,0,0,1,-5,-5v-12a5,5,0,0,1,5,-5z"></path><g id="node_text9" fill="black"><text id="kity_text_91" text-rendering="inherit" font-size="12" dy=".8em" y="382.7000000476837" x="728.5">os.ReadDir("./") 读取文件夹 获取目标文件夹下的文件信息</text></g></g><g id="minder_node11"><g id="node_expander16" style="cursor: pointer;"><path id="kity_path_176" fill="white" stroke="gray" d="M1343,103.5A6,6,0,1,1,1331,103.5A6,6,0,1,1,1343,103.5"></path><path id="kity_path_177" fill="none" stroke="gray" d="M1332.5,103.5L1341.5,103.5"></path></g><path id="node_outline17" fill="rgb(238, 243, 246)" stroke="rgb(115, 161, 191)" d="M1248.5,110.5h177a3,3,0,0,1,3,3v20a3,3,0,0,1,-3,3h-177a3,3,0,0,1,-3,-3v-20a3,3,0,0,1,3,-3z" stroke-width="1"></path><g id="node_text17" fill="black"><text id="kity_text_107" text-rendering="inherit" font-size="14" dy=".8em" y="114.40000009536743" x="1265.5">写文件的几个关键方法</text></g></g><g id="minder_node12"><g id="node_expander10" display="none" style="cursor: pointer;"><path id="kity_path_158" fill="white" stroke="gray" d="M1285.5,182.5A6,6,0,1,1,1273.5,182.5A6,6,0,1,1,1285.5,182.5"></path><path id="kity_path_159" fill="none" stroke="gray"></path></g><path id="node_outline11" fill="none" stroke="none" d="M1290.5,171.5h227a5,5,0,0,1,5,5v12a5,5,0,0,1,-5,5h-227a5,5,0,0,1,-5,-5v-12a5,5,0,0,1,5,-5z"></path><g id="node_text11" fill="black"><text id="kity_text_95" text-rendering="inherit" font-size="12" dy=".8em" y="174.70000004768372" x="1295.5">os.openFile() 用于打开文件 获取到 *fire</text></g></g><g id="minder_node13"><g id="node_expander11" display="none" style="cursor: pointer;"><path id="kity_path_161" fill="white" stroke="gray" d="M1285.5,234.5A6,6,0,1,1,1273.5,234.5A6,6,0,1,1,1285.5,234.5"></path><path id="kity_path_162" fill="none" stroke="gray"></path></g><path id="node_outline12" fill="none" stroke="none" d="M1290.5,223.5h118a5,5,0,0,1,5,5v12a5,5,0,0,1,-5,5h-118a5,5,0,0,1,-5,-5v-12a5,5,0,0,1,5,-5z"></path><g id="node_text12" fill="black"><text id="kity_text_97" text-rendering="inherit" font-size="12" dy=".8em" y="226.70000004768372" x="1295.5">f.Seek() 挪光标位置</text></g></g><g id="minder_node14"><g id="node_expander12" display="none" style="cursor: pointer;"><path id="kity_path_164" fill="white" stroke="gray" d="M1285.5,286.5A6,6,0,1,1,1273.5,286.5A6,6,0,1,1,1285.5,286.5"></path><path id="kity_path_165" fill="none" stroke="gray"></path></g><path id="node_outline13" fill="none" stroke="none" d="M1290.5,275.5h143a5,5,0,0,1,5,5v12a5,5,0,0,1,-5,5h-143a5,5,0,0,1,-5,-5v-12a5,5,0,0,1,5,-5z"></path><g id="node_text13" fill="black"><text id="kity_text_99" text-rendering="inherit" font-size="12" dy=".8em" y="278.7000000476837" x="1295.5">f.WriteString() 直接写入</text></g></g><g id="minder_node15"><g id="node_expander15" style="cursor: pointer;"><path id="kity_path_173" fill="white" stroke="gray" d="M1285.5,338.5A6,6,0,1,1,1273.5,338.5A6,6,0,1,1,1285.5,338.5"></path><path id="kity_path_174" fill="none" stroke="gray" d="M1275,338.5L1284,338.5"></path></g><path id="node_outline16" fill="none" stroke="none" d="M1290.5,327.5h217a5,5,0,0,1,5,5v12a5,5,0,0,1,-5,5h-217a5,5,0,0,1,-5,-5v-12a5,5,0,0,1,5,-5z"></path><g id="node_text16" fill="black"><text id="kity_text_105" text-rendering="inherit" font-size="12" dy=".8em" y="330.7000000476837" x="1295.5">bufio.NewWriter(f) 创建一个缓存的写</text></g></g><g id="minder_node16"><g id="node_expander13" display="none" style="cursor: pointer;"><path id="kity_path_167" fill="white" stroke="gray" d="M1325.5,390.5A6,6,0,1,1,1313.5,390.5A6,6,0,1,1,1325.5,390.5"></path><path id="kity_path_168" fill="none" stroke="gray"></path></g><path id="node_outline14" fill="none" stroke="none" d="M1330.5,379.5h184a5,5,0,0,1,5,5v12a5,5,0,0,1,-5,5h-184a5,5,0,0,1,-5,-5v-12a5,5,0,0,1,5,-5z"></path><g id="node_text14" fill="black"><text id="kity_text_101" text-rendering="inherit" font-size="12" dy=".8em" y="382.7000000476837" x="1335.5">writer.WriteString() 先写入内存</text></g></g><g id="minder_node17"><g id="node_expander14" display="none" style="cursor: pointer;"><path id="kity_path_170" fill="white" stroke="gray" d="M1325.5,442.5A6,6,0,1,1,1313.5,442.5A6,6,0,1,1,1325.5,442.5"></path><path id="kity_path_171" fill="none" stroke="gray"></path></g><path id="node_outline15" fill="none" stroke="none" d="M1330.5,431.5h213a5,5,0,0,1,5,5v12a5,5,0,0,1,-5,5h-213a5,5,0,0,1,-5,-5v-12a5,5,0,0,1,5,-5z"></path><g id="node_text15" fill="black"><text id="kity_text_103" text-rendering="inherit" font-size="12" dy=".8em" y="434.7000000476837" x="1335.5">writer.Flush() 缓存内容生效 写入文件</text></g></g><g id="minder_node18"><g id="node_expander18" style="cursor: pointer;"><path id="kity_path_182" fill="white" stroke="gray" d="M1644,103.5A6,6,0,1,1,1632,103.5A6,6,0,1,1,1644,103.5"></path><path id="kity_path_183" fill="none" stroke="gray" d="M1633.5,103.5L1642.5,103.5"></path></g><path id="node_outline19" fill="rgb(238, 243, 246)" stroke="rgb(115, 161, 191)" d="M1591.5,110.5h93a3,3,0,0,1,3,3v20a3,3,0,0,1,-3,3h-93a3,3,0,0,1,-3,-3v-20a3,3,0,0,1,3,-3z" stroke-width="1"></path><g id="node_text19" fill="black"><text id="kity_text_111" text-rendering="inherit" font-size="14" dy=".8em" y="114.40000009536743" x="1608.5">复制文件</text></g></g><g id="minder_node19"><g id="node_expander17" display="none" style="cursor: pointer;"><path id="kity_path_179" fill="white" stroke="gray" d="M1628.5,182.5A6,6,0,1,1,1616.5,182.5A6,6,0,1,1,1628.5,182.5"></path><path id="kity_path_180" fill="none" stroke="gray"></path></g><path id="node_outline18" fill="none" stroke="none" d="M1633.5,171.5h214a5,5,0,0,1,5,5v12a5,5,0,0,1,-5,5h-214a5,5,0,0,1,-5,-5v-12a5,5,0,0,1,5,-5z"></path><g id="node_text18" fill="black"><text id="kity_text_109" text-rendering="inherit" font-size="12" dy=".8em" y="174.70000004768372" x="1638.5">open 两个文件 然后&#xa0;io.Copy(dst, src)</text></g></g></g></g></svg>