<svg id="kity_svg_6" xmlns="http://www.w3.org/2000/svg" xmlns:xlink="http://www.w3.org/1999/xlink" version="1.1" width="2254" height="421" style="background: rgb(251, 251, 251); visibility: visible;" viewBox="0 0 2254 421"><defs id="kity_defs_7"><linearGradient id="kity_linearGradient_17" x1="0" y1="0" x2="0" y2="1"><stop id="kity_stop_18" offset="0" stop-color="rgb(255, 255, 255)"></stop><stop id="kity_stop_19" offset="1" stop-color="rgb(204, 204, 204)"></stop></linearGradient><marker id="kity_marker_2" orient="auto" refX="6" refY="0" viewBox="-7 -7 14 14" markerWidth="7" markerHeight="7" markerUnits="userSpaceOnUse"><path id="kity_path_3" fill="rgb(115, 161, 191)" stroke="none" d="M6,0A6,6,0,1,1,-6,0A6,6,0,1,1,6,0"></path></marker></defs><g id="kity_g_8"><g id="minder1" text-rendering="optimize-speed"><g id="minder_connect_group1"><path id="kity_path_31" fill="none" stroke="rgb(115, 161, 191)" stroke-width="1" d="M1071.5,60.5v30h-985V110.5"></path><path id="kity_path_33" fill="none" stroke="rgb(115, 161, 191)" stroke-width="1" d="M40.5,136.5V182.5L60.5,182.5"></path><path id="kity_path_35" fill="none" stroke="rgb(115, 161, 191)" stroke-width="1" d="M40.5,136.5V234.5L60.5,234.5"></path><path id="kity_path_37" fill="none" stroke="rgb(115, 161, 191)" stroke-width="1" d="M1071.5,60.5v30h-631.5V110.5"></path><path id="kity_path_39" fill="none" stroke="rgb(115, 161, 191)" stroke-width="1" d="M368.5,136.5V182.5L388.5,182.5"></path><path id="kity_path_41" fill="none" stroke="rgb(115, 161, 191)" stroke-width="1" d="M368.5,136.5V234.5L388.5,234.5"></path><path id="kity_path_43" fill="none" stroke="rgb(115, 161, 191)" stroke-width="1" d="M368.5,136.5V286.5L388.5,286.5"></path><path id="kity_path_45" fill="none" stroke="rgb(115, 161, 191)" stroke-width="1" d="M368.5,136.5V338.5L388.5,338.5"></path><path id="kity_path_47" fill="none" stroke="rgb(115, 161, 191)" stroke-width="1" d="M1071.5,60.5v30h-239.5V110.5"></path><path id="kity_path_49" fill="none" stroke="rgb(115, 161, 191)" stroke-width="1" d="M813.5,136.5V182.5L833.5,182.5"></path><path id="kity_path_51" fill="none" stroke="rgb(115, 161, 191)" stroke-width="1" d="M1071.5,60.5v30h233.5V110.5"></path><path id="kity_path_53" fill="none" stroke="rgb(115, 161, 191)" stroke-width="1" d="M1267.5,136.5V200.5L1287.5,200.5"></path><path id="kity_path_55" fill="none" stroke="rgb(115, 161, 191)" stroke-width="1" d="M1071.5,60.5v30h564V110.5"></path><path id="kity_path_57" fill="none" stroke="rgb(115, 161, 191)" stroke-width="1" d="M1574.5,136.5V182.5L1594.5,182.5"></path><path id="kity_path_59" fill="none" stroke="rgb(115, 161, 191)" stroke-width="1" d="M1574.5,136.5V234.5L1594.5,234.5"></path><path id="kity_path_61" fill="none" stroke="rgb(115, 161, 191)" stroke-width="1" d="M1574.5,136.5V286.5L1594.5,286.5"></path><path id="kity_path_63" fill="none" stroke="rgb(115, 161, 191)" stroke-width="1" d="M1574.5,136.5V338.5L1594.5,338.5"></path><path id="kity_path_65" fill="none" stroke="rgb(115, 161, 191)" stroke-width="1" d="M1574.5,136.5V390.5L1594.5,390.5"></path><path id="kity_path_67" fill="none" stroke="rgb(115, 161, 191)" stroke-width="1" d="M1071.5,60.5v30h743.5V110.5"></path><path id="kity_path_69" fill="none" stroke="rgb(115, 161, 191)" stroke-width="1" d="M1775.5,136.5V182.5L1795.5,182.5"></path><path id="kity_path_71" fill="none" stroke="rgb(115, 161, 191)" stroke-width="1" d="M1775.5,136.5V234.5L1795.5,234.5"></path><path id="kity_path_73" fill="none" stroke="rgb(115, 161, 191)" stroke-width="1" d="M1071.5,60.5v30h946.5V110.5"></path><path id="kity_path_75" fill="none" stroke="rgb(115, 161, 191)" stroke-width="1" d="M1933.5,136.5V182.5L1953.5,182.5"></path><path id="kity_path_77" fill="none" stroke="rgb(115, 161, 191)" stroke-width="1" d="M1933.5,136.5V234.5L1953.5,234.5"></path><path id="kity_path_79" fill="none" stroke="rgb(115, 161, 191)" stroke-width="1" d="M1973.5,245.5V286.5L1993.5,286.5"></path><path id="kity_path_81" fill="none" stroke="rgb(115, 161, 191)" stroke-width="1" d="M1933.5,136.5V338.5L1953.5,338.5"></path><path id="kity_path_83" fill="none" stroke="rgb(115, 161, 191)" stroke-width="1" d="M1933.5,136.5V390.5L1953.5,390.5"></path></g><g id="minder_node1"><path id="node_outline1" fill="rgb(115, 161, 191)" stroke="rgb(57, 80, 96)" d="M947.5,20.5h247a5,5,0,0,1,5,5v30a5,5,0,0,1,-5,5h-247a5,5,0,0,1,-5,-5v-30a5,5,0,0,1,5,-5z" stroke-width="3"></path><g id="node_text1" fill="white"><text id="kity_text_22" text-rendering="inherit" font-size="16" dy=".8em" y="30.09999990463257" x="966.5">golang 基础之 sync包的使用</text></g></g><g id="kity_g_12"><path id="kity_path_13" fill="none" stroke="none" d="M966.5,40.5h0v0h0z"></path></g><g id="kity_g_14"><path id="kity_path_15" fill="none" stroke="none" d="M966.5,40.5h0v0h0z"></path><path id="kity_path_16" fill="none" stroke="none"></path></g><g id="minder_node2"><g id="node_expander3" style="cursor: pointer;"><path id="kity_path_174" fill="white" stroke="gray" d="M92,103.5A6,6,0,1,1,80,103.5A6,6,0,1,1,92,103.5"></path><path id="kity_path_175" fill="none" stroke="gray" d="M81.5,103.5L90.5,103.5"></path></g><path id="node_outline4" fill="rgb(238, 243, 246)" stroke="rgb(115, 161, 191)" d="M23.5,110.5h125a3,3,0,0,1,3,3v20a3,3,0,0,1,-3,3h-125a3,3,0,0,1,-3,-3v-20a3,3,0,0,1,3,-3z" stroke-width="1"></path><g id="node_text4" fill="black"><text id="kity_text_89" text-rendering="inherit" font-size="14" dy=".8em" y="114.40000009536743" x="40.5">Mutex 互斥锁</text></g></g><g id="minder_node3"><g id="node_expander1" display="none" style="cursor: pointer;"><path id="kity_path_168" fill="white" stroke="gray" d="M60.5,182.5A6,6,0,1,1,48.5,182.5A6,6,0,1,1,60.5,182.5"></path><path id="kity_path_169" fill="none" stroke="gray"></path></g><path id="node_outline2" fill="none" stroke="none" d="M65.5,171.5h238a5,5,0,0,1,5,5v12a5,5,0,0,1,-5,5h-238a5,5,0,0,1,-5,-5v-12a5,5,0,0,1,5,-5z"></path><g id="node_text2" fill="black"><text id="kity_text_85" text-rendering="inherit" font-size="12" dy=".8em" y="174.70000004768372" x="70.5">Lock()&#xa0;&#xa0;// 写的时候 排斥其他的写锁和读锁</text></g></g><g id="minder_node4"><g id="node_expander2" display="none" style="cursor: pointer;"><path id="kity_path_171" fill="white" stroke="gray" d="M60.5,234.5A6,6,0,1,1,48.5,234.5A6,6,0,1,1,60.5,234.5"></path><path id="kity_path_172" fill="none" stroke="gray"></path></g><path id="node_outline3" fill="none" stroke="none" d="M65.5,223.5h58a5,5,0,0,1,5,5v12a5,5,0,0,1,-5,5h-58a5,5,0,0,1,-5,-5v-12a5,5,0,0,1,5,-5z"></path><g id="node_text3" fill="black"><text id="kity_text_87" text-rendering="inherit" font-size="12" dy=".8em" y="226.70000004768372" x="70.5">Unlock()</text></g></g><g id="minder_node5"><g id="node_expander8" style="cursor: pointer;"><path id="kity_path_189" fill="white" stroke="gray" d="M445.5,103.5A6,6,0,1,1,433.5,103.5A6,6,0,1,1,445.5,103.5"></path><path id="kity_path_190" fill="none" stroke="gray" d="M435,103.5L444,103.5"></path></g><path id="node_outline9" fill="rgb(238, 243, 246)" stroke="rgb(115, 161, 191)" d="M351.5,110.5h176a3,3,0,0,1,3,3v20a3,3,0,0,1,-3,3h-176a3,3,0,0,1,-3,-3v-20a3,3,0,0,1,3,-3z" stroke-width="1"></path><g id="node_text9" fill="black"><text id="kity_text_99" text-rendering="inherit" font-size="14" dy=".8em" y="114.40000009536743" x="368.5">RWMutex 读写互斥锁</text></g></g><g id="minder_node6"><g id="node_expander4" display="none" style="cursor: pointer;"><path id="kity_path_177" fill="white" stroke="gray" d="M388.5,182.5A6,6,0,1,1,376.5,182.5A6,6,0,1,1,388.5,182.5"></path><path id="kity_path_178" fill="none" stroke="gray"></path></g><path id="node_outline5" fill="none" stroke="none" d="M393.5,171.5h235a5,5,0,0,1,5,5v12a5,5,0,0,1,-5,5h-235a5,5,0,0,1,-5,-5v-12a5,5,0,0,1,5,-5z"></path><g id="node_text5" fill="black"><text id="kity_text_91" text-rendering="inherit" font-size="12" dy=".8em" y="174.70000004768372" x="398.5">Lock()&#xa0;// 写的时候 排斥其他的写锁和读锁</text></g></g><g id="minder_node7"><g id="node_expander5" display="none" style="cursor: pointer;"><path id="kity_path_180" fill="white" stroke="gray" d="M388.5,234.5A6,6,0,1,1,376.5,234.5A6,6,0,1,1,388.5,234.5"></path><path id="kity_path_181" fill="none" stroke="gray"></path></g><path id="node_outline6" fill="none" stroke="none" d="M393.5,223.5h58a5,5,0,0,1,5,5v12a5,5,0,0,1,-5,5h-58a5,5,0,0,1,-5,-5v-12a5,5,0,0,1,5,-5z"></path><g id="node_text6" fill="black"><text id="kity_text_93" text-rendering="inherit" font-size="12" dy=".8em" y="226.70000004768372" x="398.5">Unlock()</text></g></g><g id="minder_node8"><g id="node_expander6" display="none" style="cursor: pointer;"><path id="kity_path_183" fill="white" stroke="gray" d="M388.5,286.5A6,6,0,1,1,376.5,286.5A6,6,0,1,1,388.5,286.5"></path><path id="kity_path_184" fill="none" stroke="gray"></path></g><path id="node_outline7" fill="none" stroke="none" d="M393.5,275.5h355a5,5,0,0,1,5,5v12a5,5,0,0,1,-5,5h-355a5,5,0,0,1,-5,-5v-12a5,5,0,0,1,5,-5z"></path><g id="node_text7" fill="black"><text id="kity_text_95" text-rendering="inherit" font-size="12" dy=".8em" y="278.7000000476837" x="398.5">Rlock()&#xa0; // 在读取的时候 不会阻塞其他的读锁 但是会排斥掉写锁</text></g></g><g id="minder_node9"><g id="node_expander7" display="none" style="cursor: pointer;"><path id="kity_path_186" fill="white" stroke="gray" d="M388.5,338.5A6,6,0,1,1,376.5,338.5A6,6,0,1,1,388.5,338.5"></path><path id="kity_path_187" fill="none" stroke="gray"></path></g><path id="node_outline8" fill="none" stroke="none" d="M393.5,327.5h64a5,5,0,0,1,5,5v12a5,5,0,0,1,-5,5h-64a5,5,0,0,1,-5,-5v-12a5,5,0,0,1,5,-5z"></path><g id="node_text8" fill="black"><text id="kity_text_97" text-rendering="inherit" font-size="12" dy=".8em" y="330.7000000476837" x="398.5">Runlock()</text></g></g><g id="minder_node10"><g id="node_expander10" style="cursor: pointer;"><path id="kity_path_195" fill="white" stroke="gray" d="M837.5,103.5A6,6,0,1,1,825.5,103.5A6,6,0,1,1,837.5,103.5"></path><path id="kity_path_196" fill="none" stroke="gray" d="M827,103.5L836,103.5"></path></g><path id="node_outline11" fill="rgb(238, 243, 246)" stroke="rgb(115, 161, 191)" d="M796.5,110.5h70a3,3,0,0,1,3,3v20a3,3,0,0,1,-3,3h-70a3,3,0,0,1,-3,-3v-20a3,3,0,0,1,3,-3z" stroke-width="1"></path><g id="node_text11" fill="black"><text id="kity_text_103" text-rendering="inherit" font-size="14" dy=".8em" y="114.40000009536743" x="813.5">Once</text></g></g><g id="minder_node11"><g id="node_expander9" display="none" style="cursor: pointer;"><path id="kity_path_192" fill="white" stroke="gray" d="M833.5,182.5A6,6,0,1,1,821.5,182.5A6,6,0,1,1,833.5,182.5"></path><path id="kity_path_193" fill="none" stroke="gray"></path></g><path id="node_outline10" fill="none" stroke="none" d="M838.5,171.5h364a5,5,0,0,1,5,5v12a5,5,0,0,1,-5,5h-364a5,5,0,0,1,-5,-5v-12a5,5,0,0,1,5,-5z"></path><g id="node_text10" fill="black"><text id="kity_text_101" text-rendering="inherit" font-size="12" dy=".8em" y="174.70000004768372" x="843.5">Once.Do(一个函数) 这个方法无论被调用多少次 这里只会执行一次</text></g></g><g id="minder_node12"><g id="node_expander12" style="cursor: pointer;"><path id="kity_path_201" fill="white" stroke="gray" d="M1310.5,103.5A6,6,0,1,1,1298.5,103.5A6,6,0,1,1,1310.5,103.5"></path><path id="kity_path_202" fill="none" stroke="gray" d="M1300,103.5L1309,103.5"></path></g><path id="node_outline13" fill="rgb(238, 243, 246)" stroke="rgb(115, 161, 191)" d="M1250.5,110.5h108a3,3,0,0,1,3,3v20a3,3,0,0,1,-3,3h-108a3,3,0,0,1,-3,-3v-20a3,3,0,0,1,3,-3z" stroke-width="1"></path><g id="node_text13" fill="black"><text id="kity_text_109" text-rendering="inherit" font-size="14" dy=".8em" y="114.40000009536743" x="1267.5">WaitGroup</text></g></g><g id="minder_node13"><g id="node_expander11" display="none" style="cursor: pointer;"><path id="kity_path_198" fill="white" stroke="gray" d="M1287.5,200.5A6,6,0,1,1,1275.5,200.5A6,6,0,1,1,1287.5,200.5"></path><path id="kity_path_199" fill="none" stroke="gray"></path></g><path id="node_outline12" fill="none" stroke="none" d="M1292.5,171.5h217a5,5,0,0,1,5,5v48a5,5,0,0,1,-5,5h-217a5,5,0,0,1,-5,-5v-48a5,5,0,0,1,5,-5z"></path><g id="node_text12" fill="black"><text id="kity_text_105" text-rendering="inherit" font-size="12" dy=".8em" y="174.70000004768372" x="1297.5">Add(delta int)&#xa0; 设定需要Done多少次</text><text id="kity_text_106" text-rendering="inherit" font-size="12" dy=".8em" y="192.70000004768372" x="1297.5">Done()&#xa0; Done一次+1</text><text id="kity_text_107" text-rendering="inherit" font-size="12" dy=".8em" y="210.70000004768372" x="1297.5">Wait()&#xa0; 再到达Done的次数前一直阻塞</text></g></g><g id="minder_node14"><g id="node_expander18" style="cursor: pointer;"><path id="kity_path_219" fill="white" stroke="gray" d="M1641,103.5A6,6,0,1,1,1629,103.5A6,6,0,1,1,1641,103.5"></path><path id="kity_path_220" fill="none" stroke="gray" d="M1630.5,103.5L1639.5,103.5"></path></g><path id="node_outline19" fill="rgb(238, 243, 246)" stroke="rgb(115, 161, 191)" d="M1557.5,110.5h155a3,3,0,0,1,3,3v20a3,3,0,0,1,-3,3h-155a3,3,0,0,1,-3,-3v-20a3,3,0,0,1,3,-3z" stroke-width="1"></path><g id="node_text19" fill="black"><text id="kity_text_121" text-rendering="inherit" font-size="14" dy=".8em" y="114.40000009536743" x="1574.5">Map 一个并发字典</text></g></g><g id="minder_node15"><g id="node_expander13" display="none" style="cursor: pointer;"><path id="kity_path_204" fill="white" stroke="gray" d="M1594.5,182.5A6,6,0,1,1,1582.5,182.5A6,6,0,1,1,1594.5,182.5"></path><path id="kity_path_205" fill="none" stroke="gray"></path></g><path id="node_outline14" fill="none" stroke="none" d="M1599.5,171.5h41a5,5,0,0,1,5,5v12a5,5,0,0,1,-5,5h-41a5,5,0,0,1,-5,-5v-12a5,5,0,0,1,5,-5z"></path><g id="node_text14" fill="black"><text id="kity_text_111" text-rendering="inherit" font-size="12" dy=".8em" y="174.70000004768372" x="1604.5">Store</text></g></g><g id="minder_node16"><g id="node_expander14" display="none" style="cursor: pointer;"><path id="kity_path_207" fill="white" stroke="gray" d="M1594.5,234.5A6,6,0,1,1,1582.5,234.5A6,6,0,1,1,1594.5,234.5"></path><path id="kity_path_208" fill="none" stroke="gray"></path></g><path id="node_outline15" fill="none" stroke="none" d="M1599.5,223.5h38a5,5,0,0,1,5,5v12a5,5,0,0,1,-5,5h-38a5,5,0,0,1,-5,-5v-12a5,5,0,0,1,5,-5z"></path><g id="node_text15" fill="black"><text id="kity_text_113" text-rendering="inherit" font-size="12" dy=".8em" y="226.70000004768372" x="1604.5">Load</text></g></g><g id="minder_node17"><g id="node_expander15" display="none" style="cursor: pointer;"><path id="kity_path_210" fill="white" stroke="gray" d="M1594.5,286.5A6,6,0,1,1,1582.5,286.5A6,6,0,1,1,1594.5,286.5"></path><path id="kity_path_211" fill="none" stroke="gray"></path></g><path id="node_outline16" fill="none" stroke="none" d="M1599.5,275.5h83a5,5,0,0,1,5,5v12a5,5,0,0,1,-5,5h-83a5,5,0,0,1,-5,-5v-12a5,5,0,0,1,5,-5z"></path><g id="node_text16" fill="black"><text id="kity_text_115" text-rendering="inherit" font-size="12" dy=".8em" y="278.7000000476837" x="1604.5">LoadOrStore</text></g></g><g id="minder_node18"><g id="node_expander16" display="none" style="cursor: pointer;"><path id="kity_path_213" fill="white" stroke="gray" d="M1594.5,338.5A6,6,0,1,1,1582.5,338.5A6,6,0,1,1,1594.5,338.5"></path><path id="kity_path_214" fill="none" stroke="gray"></path></g><path id="node_outline17" fill="none" stroke="none" d="M1599.5,327.5h48a5,5,0,0,1,5,5v12a5,5,0,0,1,-5,5h-48a5,5,0,0,1,-5,-5v-12a5,5,0,0,1,5,-5z"></path><g id="node_text17" fill="black"><text id="kity_text_117" text-rendering="inherit" font-size="12" dy=".8em" y="330.7000000476837" x="1604.5">Range</text></g></g><g id="minder_node19"><g id="node_expander17" display="none" style="cursor: pointer;"><path id="kity_path_216" fill="white" stroke="gray" d="M1594.5,390.5A6,6,0,1,1,1582.5,390.5A6,6,0,1,1,1594.5,390.5"></path><path id="kity_path_217" fill="none" stroke="gray"></path></g><path id="node_outline18" fill="none" stroke="none" d="M1599.5,379.5h48a5,5,0,0,1,5,5v12a5,5,0,0,1,-5,5h-48a5,5,0,0,1,-5,-5v-12a5,5,0,0,1,5,-5z"></path><g id="node_text18" fill="black"><text id="kity_text_119" text-rendering="inherit" font-size="12" dy=".8em" y="382.7000000476837" x="1604.5">Delete</text></g></g><g id="minder_node20"><g id="node_expander21" style="cursor: pointer;"><path id="kity_path_228" fill="white" stroke="gray" d="M1820.5,103.5A6,6,0,1,1,1808.5,103.5A6,6,0,1,1,1820.5,103.5"></path><path id="kity_path_229" fill="none" stroke="gray" d="M1810,103.5L1819,103.5"></path></g><path id="node_outline22" fill="rgb(238, 243, 246)" stroke="rgb(115, 161, 191)" d="M1758.5,110.5h112a3,3,0,0,1,3,3v20a3,3,0,0,1,-3,3h-112a3,3,0,0,1,-3,-3v-20a3,3,0,0,1,3,-3z" stroke-width="1"></path><g id="node_text22" fill="black"><text id="kity_text_127" text-rendering="inherit" font-size="14" dy=".8em" y="114.40000009536743" x="1775.5">Pool 并发池</text></g></g><g id="minder_node21"><g id="node_expander19" display="none" style="cursor: pointer;"><path id="kity_path_222" fill="white" stroke="gray" d="M1795.5,182.5A6,6,0,1,1,1783.5,182.5A6,6,0,1,1,1795.5,182.5"></path><path id="kity_path_223" fill="none" stroke="gray"></path></g><path id="node_outline20" fill="none" stroke="none" d="M1800.5,171.5h30a5,5,0,0,1,5,5v12a5,5,0,0,1,-5,5h-30a5,5,0,0,1,-5,-5v-12a5,5,0,0,1,5,-5z"></path><g id="node_text20" fill="black"><text id="kity_text_123" text-rendering="inherit" font-size="12" dy=".8em" y="174.70000004768372" x="1805.5">Put</text></g></g><g id="minder_node22"><g id="node_expander20" display="none" style="cursor: pointer;"><path id="kity_path_225" fill="white" stroke="gray" d="M1795.5,234.5A6,6,0,1,1,1783.5,234.5A6,6,0,1,1,1795.5,234.5"></path><path id="kity_path_226" fill="none" stroke="gray"></path></g><path id="node_outline21" fill="none" stroke="none" d="M1800.5,223.5h31a5,5,0,0,1,5,5v12a5,5,0,0,1,-5,5h-31a5,5,0,0,1,-5,-5v-12a5,5,0,0,1,5,-5z"></path><g id="node_text21" fill="black"><text id="kity_text_125" text-rendering="inherit" font-size="12" dy=".8em" y="226.70000004768372" x="1805.5">Get</text></g></g><g id="minder_node23"><g id="node_expander27" style="cursor: pointer;"><path id="kity_path_246" fill="white" stroke="gray" d="M2023.5,103.5A6,6,0,1,1,2011.5,103.5A6,6,0,1,1,2023.5,103.5"></path><path id="kity_path_247" fill="none" stroke="gray" d="M2013,103.5L2022,103.5"></path></g><path id="node_outline28" fill="rgb(238, 243, 246)" stroke="rgb(115, 161, 191)" d="M1916.5,110.5h202a3,3,0,0,1,3,3v20a3,3,0,0,1,-3,3h-202a3,3,0,0,1,-3,-3v-20a3,3,0,0,1,3,-3z" stroke-width="1"></path><g id="node_text28" fill="black"><text id="kity_text_139" text-rendering="inherit" font-size="14" dy=".8em" y="114.40000009536743" x="1933.5">Cond 没多大用的通知解锁</text></g></g><g id="minder_node24"><g id="node_expander22" display="none" style="cursor: pointer;"><path id="kity_path_231" fill="white" stroke="gray" d="M1953.5,182.5A6,6,0,1,1,1941.5,182.5A6,6,0,1,1,1953.5,182.5"></path><path id="kity_path_232" fill="none" stroke="gray"></path></g><path id="node_outline23" fill="none" stroke="none" d="M1958.5,171.5h195a5,5,0,0,1,5,5v12a5,5,0,0,1,-5,5h-195a5,5,0,0,1,-5,-5v-12a5,5,0,0,1,5,-5z"></path><g id="node_text23" fill="black"><text id="kity_text_129" text-rendering="inherit" font-size="12" dy=".8em" y="174.70000004768372" x="1963.5">NewCond（lock） 创建一个cond</text></g></g><g id="minder_node25"><g id="node_expander24" style="cursor: pointer;"><path id="kity_path_237" fill="white" stroke="gray" d="M1953.5,234.5A6,6,0,1,1,1941.5,234.5A6,6,0,1,1,1953.5,234.5"></path><path id="kity_path_238" fill="none" stroke="gray" d="M1943,234.5L1952,234.5"></path></g><path id="node_outline25" fill="none" stroke="none" d="M1958.5,223.5h205a5,5,0,0,1,5,5v12a5,5,0,0,1,-5,5h-205a5,5,0,0,1,-5,-5v-12a5,5,0,0,1,5,-5z"></path><g id="node_text25" fill="black"><text id="kity_text_133" text-rendering="inherit" font-size="12" dy=".8em" y="226.70000004768372" x="1963.5">co.L.Lock()&#xa0; &#xa0;。。。。&#xa0;co.L.Unlock() </text></g></g><g id="minder_node26"><g id="node_expander23" display="none" style="cursor: pointer;"><path id="kity_path_234" fill="white" stroke="gray" d="M1993.5,286.5A6,6,0,1,1,1981.5,286.5A6,6,0,1,1,1993.5,286.5"></path><path id="kity_path_235" fill="none" stroke="gray"></path></g><path id="node_outline24" fill="none" stroke="none" d="M1998.5,275.5h231a5,5,0,0,1,5,5v12a5,5,0,0,1,-5,5h-231a5,5,0,0,1,-5,-5v-12a5,5,0,0,1,5,-5z"></path><g id="node_text24" fill="black"><text id="kity_text_131" text-rendering="inherit" font-size="12" dy=".8em" y="278.7000000476837" x="2003.5">创建一个锁区间 在区域内部可以co.wait()</text></g></g><g id="minder_node27"><g id="node_expander25" display="none" style="cursor: pointer;"><path id="kity_path_240" fill="white" stroke="gray" d="M1953.5,338.5A6,6,0,1,1,1941.5,338.5A6,6,0,1,1,1953.5,338.5"></path><path id="kity_path_241" fill="none" stroke="gray"></path></g><path id="node_outline26" fill="none" stroke="none" d="M1958.5,327.5h133a5,5,0,0,1,5,5v12a5,5,0,0,1,-5,5h-133a5,5,0,0,1,-5,-5v-12a5,5,0,0,1,5,-5z"></path><g id="node_text26" fill="black"><text id="kity_text_135" text-rendering="inherit" font-size="12" dy=".8em" y="330.7000000476837" x="1963.5"> co.roadcast()解锁全部</text></g></g><g id="minder_node28"><g id="node_expander26" display="none" style="cursor: pointer;"><path id="kity_path_243" fill="white" stroke="gray" d="M1953.5,390.5A6,6,0,1,1,1941.5,390.5A6,6,0,1,1,1953.5,390.5"></path><path id="kity_path_244" fill="none" stroke="gray"></path></g><path id="node_outline27" fill="none" stroke="none" d="M1958.5,379.5h119a5,5,0,0,1,5,5v12a5,5,0,0,1,-5,5h-119a5,5,0,0,1,-5,-5v-12a5,5,0,0,1,5,-5z"></path><g id="node_text27" fill="black"><text id="kity_text_137" text-rendering="inherit" font-size="12" dy=".8em" y="382.7000000476837" x="1963.5">co.Signal()解锁一个</text></g></g></g></g></svg>