<svg id="kity_svg_6" xmlns="http://www.w3.org/2000/svg" xmlns:xlink="http://www.w3.org/1999/xlink" version="1.1" width="1710" height="369" style="background: rgb(251, 251, 251); visibility: visible;" viewBox="0 0 1710 369"><defs id="kity_defs_7"><linearGradient id="kity_linearGradient_17" x1="0" y1="0" x2="0" y2="1"><stop id="kity_stop_18" offset="0" stop-color="rgb(255, 255, 255)"></stop><stop id="kity_stop_19" offset="1" stop-color="rgb(204, 204, 204)"></stop></linearGradient><marker id="kity_marker_2" orient="auto" refX="6" refY="0" viewBox="-7 -7 14 14" markerWidth="7" markerHeight="7" markerUnits="userSpaceOnUse"><path id="kity_path_3" fill="rgb(115, 161, 191)" stroke="none" d="M6,0A6,6,0,1,1,-6,0A6,6,0,1,1,6,0"></path></marker></defs><g id="kity_g_8"><g id="minder1" text-rendering="optimize-speed"><g id="minder_connect_group1"><path id="kity_path_31" fill="none" stroke="rgb(115, 161, 191)" stroke-width="1" d="M830.5,60.5v30h-751V110.5"></path><path id="kity_path_33" fill="none" stroke="rgb(115, 161, 191)" stroke-width="1" d="M40.5,136.5V182.5L60.5,182.5"></path><path id="kity_path_35" fill="none" stroke="rgb(115, 161, 191)" stroke-width="1" d="M830.5,60.5v30h-444V110.5"></path><path id="kity_path_37" fill="none" stroke="rgb(115, 161, 191)" stroke-width="1" d="M339.5,136.5V182.5L359.5,182.5"></path><path id="kity_path_39" fill="none" stroke="rgb(115, 161, 191)" stroke-width="1" d="M830.5,60.5v30h-183V110.5"></path><path id="kity_path_41" fill="none" stroke="rgb(115, 161, 191)" stroke-width="1" d="M602.5,136.5V182.5L622.5,182.5"></path><path id="kity_path_43" fill="none" stroke="rgb(115, 161, 191)" stroke-width="1" d="M830.5,60.5v30h46.5V110.5"></path><path id="kity_path_45" fill="none" stroke="rgb(115, 161, 191)" stroke-width="1" d="M841.5,136.5V182.5L861.5,182.5"></path><path id="kity_path_47" fill="none" stroke="rgb(115, 161, 191)" stroke-width="1" d="M830.5,60.5v30h306V110.5"></path><path id="kity_path_49" fill="none" stroke="rgb(115, 161, 191)" stroke-width="1" d="M1080.5,136.5V182.5L1100.5,182.5"></path><path id="kity_path_51" fill="none" stroke="rgb(115, 161, 191)" stroke-width="1" d="M1080.5,136.5V234.5L1100.5,234.5"></path><path id="kity_path_53" fill="none" stroke="rgb(115, 161, 191)" stroke-width="1" d="M1080.5,136.5V286.5L1100.5,286.5"></path><path id="kity_path_55" fill="none" stroke="rgb(115, 161, 191)" stroke-width="1" d="M1080.5,136.5V338.5L1100.5,338.5"></path><path id="kity_path_57" fill="none" stroke="rgb(115, 161, 191)" stroke-width="1" d="M830.5,60.5v30h463.5V110.5"></path><path id="kity_path_59" fill="none" stroke="rgb(115, 161, 191)" stroke-width="1" d="M1272.5,136.5V182.5L1292.5,182.5"></path><path id="kity_path_61" fill="none" stroke="rgb(115, 161, 191)" stroke-width="1" d="M830.5,60.5v30h751V110.5"></path><path id="kity_path_63" fill="none" stroke="rgb(115, 161, 191)" stroke-width="1" d="M1541.5,136.5V182.5L1561.5,182.5"></path></g><g id="minder_node1"><path id="node_outline1" fill="rgb(115, 161, 191)" stroke="rgb(57, 80, 96)" d="M695.5,20.5h270a5,5,0,0,1,5,5v30a5,5,0,0,1,-5,5h-270a5,5,0,0,1,-5,-5v-30a5,5,0,0,1,5,-5z" stroke-width="3"></path><g id="node_text1" fill="white"><text id="kity_text_22" text-rendering="inherit" font-size="16" dy=".8em" y="30.09999990463257" x="714.5">golang 基础之 context包的使用</text></g></g><g id="kity_g_12"><path id="kity_path_13" fill="none" stroke="none" d="M714.5,40.5h0v0h0z"></path></g><g id="kity_g_14"><path id="kity_path_15" fill="none" stroke="none" d="M714.5,40.5h0v0h0z"></path><path id="kity_path_16" fill="none" stroke="none"></path></g><g id="minder_node2"><g id="node_expander2" style="cursor: pointer;"><path id="kity_path_119" fill="white" stroke="gray" d="M85.5,103.5A6,6,0,1,1,73.5,103.5A6,6,0,1,1,85.5,103.5"></path><path id="kity_path_120" fill="none" stroke="gray" d="M75,103.5L84,103.5"></path></g><path id="node_outline3" fill="rgb(238, 243, 246)" stroke="rgb(115, 161, 191)" d="M23.5,110.5h112a3,3,0,0,1,3,3v20a3,3,0,0,1,-3,3h-112a3,3,0,0,1,-3,-3v-20a3,3,0,0,1,3,-3z" stroke-width="1"></path><g id="node_text3" fill="black"><text id="kity_text_67" text-rendering="inherit" font-size="14" dy=".8em" y="114.40000009536743" x="40.5">WithCancel</text></g></g><g id="minder_node3"><g id="node_expander1" display="none" style="cursor: pointer;"><path id="kity_path_116" fill="white" stroke="gray" d="M60.5,182.5A6,6,0,1,1,48.5,182.5A6,6,0,1,1,60.5,182.5"></path><path id="kity_path_117" fill="none" stroke="gray"></path></g><path id="node_outline2" fill="none" stroke="none" d="M65.5,171.5h209a5,5,0,0,1,5,5v12a5,5,0,0,1,-5,5h-209a5,5,0,0,1,-5,-5v-12a5,5,0,0,1,5,-5z"></path><g id="node_text2" fill="black"><text id="kity_text_65" text-rendering="inherit" font-size="12" dy=".8em" y="174.70000004768372" x="70.5">创建一个带有 Clear() 关闭函数的 ctx</text></g></g><g id="minder_node4"><g id="node_expander4" style="cursor: pointer;"><path id="kity_path_125" fill="white" stroke="gray" d="M392.5,103.5A6,6,0,1,1,380.5,103.5A6,6,0,1,1,392.5,103.5"></path><path id="kity_path_126" fill="none" stroke="gray" d="M382,103.5L391,103.5"></path></g><path id="node_outline5" fill="rgb(238, 243, 246)" stroke="rgb(115, 161, 191)" d="M322.5,110.5h128a3,3,0,0,1,3,3v20a3,3,0,0,1,-3,3h-128a3,3,0,0,1,-3,-3v-20a3,3,0,0,1,3,-3z" stroke-width="1"></path><g id="node_text5" fill="black"><text id="kity_text_71" text-rendering="inherit" font-size="14" dy=".8em" y="114.40000009536743" x="339.5">WithDeadline</text></g></g><g id="minder_node5"><g id="node_expander3" display="none" style="cursor: pointer;"><path id="kity_path_122" fill="white" stroke="gray" d="M359.5,182.5A6,6,0,1,1,347.5,182.5A6,6,0,1,1,359.5,182.5"></path><path id="kity_path_123" fill="none" stroke="gray"></path></g><path id="node_outline4" fill="none" stroke="none" d="M364.5,171.5h173a5,5,0,0,1,5,5v12a5,5,0,0,1,-5,5h-173a5,5,0,0,1,-5,-5v-12a5,5,0,0,1,5,-5z"></path><g id="node_text4" fill="black"><text id="kity_text_69" text-rendering="inherit" font-size="12" dy=".8em" y="174.70000004768372" x="369.5">创建一个带有超时时间点的ctx</text></g></g><g id="minder_node6"><g id="node_expander6" style="cursor: pointer;"><path id="kity_path_131" fill="white" stroke="gray" d="M653.5,103.5A6,6,0,1,1,641.5,103.5A6,6,0,1,1,653.5,103.5"></path><path id="kity_path_132" fill="none" stroke="gray" d="M643,103.5L652,103.5"></path></g><path id="node_outline7" fill="rgb(238, 243, 246)" stroke="rgb(115, 161, 191)" d="M585.5,110.5h124a3,3,0,0,1,3,3v20a3,3,0,0,1,-3,3h-124a3,3,0,0,1,-3,-3v-20a3,3,0,0,1,3,-3z" stroke-width="1"></path><g id="node_text7" fill="black"><text id="kity_text_75" text-rendering="inherit" font-size="14" dy=".8em" y="114.40000009536743" x="602.5">WithTimeout</text></g></g><g id="minder_node7"><g id="node_expander5" display="none" style="cursor: pointer;"><path id="kity_path_128" fill="white" stroke="gray" d="M622.5,182.5A6,6,0,1,1,610.5,182.5A6,6,0,1,1,622.5,182.5"></path><path id="kity_path_129" fill="none" stroke="gray"></path></g><path id="node_outline6" fill="none" stroke="none" d="M627.5,171.5h149a5,5,0,0,1,5,5v12a5,5,0,0,1,-5,5h-149a5,5,0,0,1,-5,-5v-12a5,5,0,0,1,5,-5z"></path><g id="node_text6" fill="black"><text id="kity_text_73" text-rendering="inherit" font-size="12" dy=".8em" y="174.70000004768372" x="632.5">创建一个有超时时间的ctx</text></g></g><g id="minder_node8"><g id="node_expander8" style="cursor: pointer;"><path id="kity_path_137" fill="white" stroke="gray" d="M883,103.5A6,6,0,1,1,871,103.5A6,6,0,1,1,883,103.5"></path><path id="kity_path_138" fill="none" stroke="gray" d="M872.5,103.5L881.5,103.5"></path></g><path id="node_outline9" fill="rgb(238, 243, 246)" stroke="rgb(115, 161, 191)" d="M824.5,110.5h105a3,3,0,0,1,3,3v20a3,3,0,0,1,-3,3h-105a3,3,0,0,1,-3,-3v-20a3,3,0,0,1,3,-3z" stroke-width="1"></path><g id="node_text9" fill="black"><text id="kity_text_79" text-rendering="inherit" font-size="14" dy=".8em" y="114.40000009536743" x="841.5">WithValue</text></g></g><g id="minder_node9"><g id="node_expander7" display="none" style="cursor: pointer;"><path id="kity_path_134" fill="white" stroke="gray" d="M861.5,182.5A6,6,0,1,1,849.5,182.5A6,6,0,1,1,861.5,182.5"></path><path id="kity_path_135" fill="none" stroke="gray"></path></g><path id="node_outline8" fill="none" stroke="none" d="M866.5,171.5h149a5,5,0,0,1,5,5v12a5,5,0,0,1,-5,5h-149a5,5,0,0,1,-5,-5v-12a5,5,0,0,1,5,-5z"></path><g id="node_text8" fill="black"><text id="kity_text_77" text-rendering="inherit" font-size="12" dy=".8em" y="174.70000004768372" x="871.5">创建一个携带了参数的ctx</text></g></g><g id="minder_node10"><g id="node_expander13" style="cursor: pointer;"><path id="kity_path_152" fill="white" stroke="gray" d="M1142.5,103.5A6,6,0,1,1,1130.5,103.5A6,6,0,1,1,1142.5,103.5"></path><path id="kity_path_153" fill="none" stroke="gray" d="M1132,103.5L1141,103.5"></path></g><path id="node_outline14" fill="rgb(238, 243, 246)" stroke="rgb(115, 161, 191)" d="M1063.5,110.5h146a3,3,0,0,1,3,3v20a3,3,0,0,1,-3,3h-146a3,3,0,0,1,-3,-3v-20a3,3,0,0,1,3,-3z" stroke-width="1"></path><g id="node_text14" fill="black"><text id="kity_text_89" text-rendering="inherit" font-size="14" dy=".8em" y="114.40000009536743" x="1080.5">Context 基础接口</text></g></g><g id="minder_node11"><g id="node_expander9" display="none" style="cursor: pointer;"><path id="kity_path_140" fill="white" stroke="gray" d="M1100.5,182.5A6,6,0,1,1,1088.5,182.5A6,6,0,1,1,1100.5,182.5"></path><path id="kity_path_141" fill="none" stroke="gray"></path></g><path id="node_outline10" fill="none" stroke="none" d="M1105.5,171.5h69a5,5,0,0,1,5,5v12a5,5,0,0,1,-5,5h-69a5,5,0,0,1,-5,-5v-12a5,5,0,0,1,5,-5z"></path><g id="node_text10" fill="black"><text id="kity_text_81" text-rendering="inherit" font-size="12" dy=".8em" y="174.70000004768372" x="1110.5">Deadline()</text></g></g><g id="minder_node12"><g id="node_expander10" display="none" style="cursor: pointer;"><path id="kity_path_143" fill="white" stroke="gray" d="M1100.5,234.5A6,6,0,1,1,1088.5,234.5A6,6,0,1,1,1100.5,234.5"></path><path id="kity_path_144" fill="none" stroke="gray"></path></g><path id="node_outline11" fill="none" stroke="none" d="M1105.5,223.5h49a5,5,0,0,1,5,5v12a5,5,0,0,1,-5,5h-49a5,5,0,0,1,-5,-5v-12a5,5,0,0,1,5,-5z"></path><g id="node_text11" fill="black"><text id="kity_text_83" text-rendering="inherit" font-size="12" dy=".8em" y="226.70000004768372" x="1110.5">Done()</text></g></g><g id="minder_node13"><g id="node_expander11" display="none" style="cursor: pointer;"><path id="kity_path_146" fill="white" stroke="gray" d="M1100.5,286.5A6,6,0,1,1,1088.5,286.5A6,6,0,1,1,1100.5,286.5"></path><path id="kity_path_147" fill="none" stroke="gray"></path></g><path id="node_outline12" fill="none" stroke="none" d="M1105.5,275.5h34a5,5,0,0,1,5,5v12a5,5,0,0,1,-5,5h-34a5,5,0,0,1,-5,-5v-12a5,5,0,0,1,5,-5z"></path><g id="node_text12" fill="black"><text id="kity_text_85" text-rendering="inherit" font-size="12" dy=".8em" y="278.7000000476837" x="1110.5">Err()</text></g></g><g id="minder_node14"><g id="node_expander12" display="none" style="cursor: pointer;"><path id="kity_path_149" fill="white" stroke="gray" d="M1100.5,338.5A6,6,0,1,1,1088.5,338.5A6,6,0,1,1,1100.5,338.5"></path><path id="kity_path_150" fill="none" stroke="gray"></path></g><path id="node_outline13" fill="none" stroke="none" d="M1105.5,327.5h51a5,5,0,0,1,5,5v12a5,5,0,0,1,-5,5h-51a5,5,0,0,1,-5,-5v-12a5,5,0,0,1,5,-5z"></path><g id="node_text13" fill="black"><text id="kity_text_87" text-rendering="inherit" font-size="12" dy=".8em" y="330.7000000476837" x="1110.5">Value()</text></g></g><g id="minder_node15"><g id="node_expander15" style="cursor: pointer;"><path id="kity_path_158" fill="white" stroke="gray" d="M1300,103.5A6,6,0,1,1,1288,103.5A6,6,0,1,1,1300,103.5"></path><path id="kity_path_159" fill="none" stroke="gray" d="M1289.5,103.5L1298.5,103.5"></path></g><path id="node_outline16" fill="rgb(238, 243, 246)" stroke="rgb(115, 161, 191)" d="M1255.5,110.5h77a3,3,0,0,1,3,3v20a3,3,0,0,1,-3,3h-77a3,3,0,0,1,-3,-3v-20a3,3,0,0,1,3,-3z" stroke-width="1"></path><g id="node_text16" fill="black"><text id="kity_text_93" text-rendering="inherit" font-size="14" dy=".8em" y="114.40000009536743" x="1272.5">TODO</text></g></g><g id="minder_node16"><g id="node_expander14" display="none" style="cursor: pointer;"><path id="kity_path_155" fill="white" stroke="gray" d="M1292.5,182.5A6,6,0,1,1,1280.5,182.5A6,6,0,1,1,1292.5,182.5"></path><path id="kity_path_156" fill="none" stroke="gray"></path></g><path id="node_outline15" fill="none" stroke="none" d="M1297.5,171.5h179a5,5,0,0,1,5,5v12a5,5,0,0,1,-5,5h-179a5,5,0,0,1,-5,-5v-12a5,5,0,0,1,5,-5z"></path><g id="node_text15" fill="black"><text id="kity_text_91" text-rendering="inherit" font-size="12" dy=".8em" y="174.70000004768372" x="1302.5">不确定是否需要使用的时候使用</text></g></g><g id="minder_node17"><g id="node_expander17" style="cursor: pointer;"><path id="kity_path_164" fill="white" stroke="gray" d="M1587.5,103.5A6,6,0,1,1,1575.5,103.5A6,6,0,1,1,1587.5,103.5"></path><path id="kity_path_165" fill="none" stroke="gray" d="M1577,103.5L1586,103.5"></path></g><path id="node_outline18" fill="rgb(238, 243, 246)" stroke="rgb(115, 161, 191)" d="M1524.5,110.5h114a3,3,0,0,1,3,3v20a3,3,0,0,1,-3,3h-114a3,3,0,0,1,-3,-3v-20a3,3,0,0,1,3,-3z" stroke-width="1"></path><g id="node_text18" fill="black"><text id="kity_text_97" text-rendering="inherit" font-size="14" dy=".8em" y="114.40000009536743" x="1541.5">Background</text></g></g><g id="minder_node18"><g id="node_expander16" display="none" style="cursor: pointer;"><path id="kity_path_161" fill="white" stroke="gray" d="M1561.5,182.5A6,6,0,1,1,1549.5,182.5A6,6,0,1,1,1561.5,182.5"></path><path id="kity_path_162" fill="none" stroke="gray"></path></g><path id="node_outline17" fill="none" stroke="none" d="M1566.5,171.5h119a5,5,0,0,1,5,5v12a5,5,0,0,1,-5,5h-119a5,5,0,0,1,-5,-5v-12a5,5,0,0,1,5,-5z"></path><g id="node_text17" fill="black"><text id="kity_text_95" text-rendering="inherit" font-size="12" dy=".8em" y="174.70000004768372" x="1571.5">确定使用的时候使用</text></g></g></g></g></svg>