<svg id="kity_svg_6" xmlns="http://www.w3.org/2000/svg" xmlns:xlink="http://www.w3.org/1999/xlink" version="1.1" width="1713" height="659" style="background: rgb(251, 251, 251); visibility: visible;" viewBox="0 0 1713 659"><defs id="kity_defs_7"><linearGradient id="kity_linearGradient_17" x1="0" y1="0" x2="0" y2="1"><stop id="kity_stop_18" offset="0" stop-color="rgb(255, 255, 255)"></stop><stop id="kity_stop_19" offset="1" stop-color="rgb(204, 204, 204)"></stop></linearGradient><marker id="kity_marker_2" orient="auto" refX="6" refY="0" viewBox="-7 -7 14 14" markerWidth="7" markerHeight="7" markerUnits="userSpaceOnUse"><path id="kity_path_3" fill="rgb(115, 161, 191)" stroke="none" d="M6,0A6,6,0,1,1,-6,0A6,6,0,1,1,6,0"></path></marker></defs><g id="kity_g_8"><g id="minder1" text-rendering="optimize-speed"><g id="minder_connect_group1"><path id="kity_path_31" fill="none" stroke="rgb(115, 161, 191)" stroke-width="1" d="M857.5,60.5v30h-554V142.5"></path><path id="kity_path_33" fill="none" stroke="rgb(115, 161, 191)" stroke-width="1" d="M274.5,168.5V214.5L294.5,214.5"></path><path id="kity_path_35" fill="none" stroke="rgb(115, 161, 191)" stroke-width="1" d="M314.5,225.5V260.5L352.5,260.5"></path><path id="kity_path_37" fill="none" stroke="rgb(115, 161, 191)" stroke-width="1" d="M274.5,168.5V318.5L294.5,318.5"></path><path id="kity_path_39" fill="none" stroke="rgb(115, 161, 191)" stroke-width="1" d="M274.5,168.5V370.5L294.5,370.5"></path><path id="kity_path_41" fill="none" stroke="rgb(115, 161, 191)" stroke-width="1" d="M314.5,381.5V449.5L334.5,449.5"></path><path id="kity_path_43" fill="none" stroke="rgb(115, 161, 191)" stroke-width="1" d="M857.5,60.5v30h35V141.5"></path><path id="kity_path_45" fill="none" stroke="rgb(115, 161, 191)" stroke-width="1" d="M863.5,167.5V298.5L1024.5,298.5"></path><path id="kity_path_47" fill="none" stroke="rgb(115, 161, 191)" stroke-width="1" d="M863.5,167.5V441.5L1024.5,441.5"></path><path id="kity_path_49" fill="none" stroke="rgb(115, 161, 191)" stroke-width="1" d="M863.5,167.5V573.5L1037.5,573.5"></path><path id="kity_path_51" fill="none" stroke="rgb(115, 161, 191)" stroke-width="1" d="M857.5,60.5v30h-774V143.5"></path><path id="kity_path_53" fill="none" stroke="rgb(115, 161, 191)" stroke-width="1" d="M40.5,169.5V215.5L60.5,215.5"></path><path id="kity_path_55" fill="none" stroke="rgb(115, 161, 191)" stroke-width="1" d="M80.5,226.5V267.5L100.5,267.5"></path><path id="kity_path_57" fill="none" stroke="rgb(115, 161, 191)" stroke-width="1" d="M80.5,226.5V319.5L100.5,319.5"></path><path id="kity_path_59" fill="none" stroke="rgb(115, 161, 191)" stroke-width="1" d="M857.5,60.5v30h-266V133.5"></path><path id="kity_path_61" fill="none" stroke="rgb(115, 161, 191)" stroke-width="1" d="M562.5,159.5V205.5L582.5,205.5"></path><path id="kity_path_63" fill="none" stroke="rgb(115, 161, 191)" stroke-width="1" d="M602.5,216.5V396.5L641.5,396.5"></path><path id="kity_path_65" fill="none" stroke="rgb(115, 161, 191)" stroke-width="1" d="M661.5,488.5V569.5L694.5,569.5"></path><path id="kity_path_67" fill="none" stroke="rgb(115, 161, 191)" stroke-width="1" d="M857.5,60.5v30h487V155.5"></path><path id="kity_path_69" fill="none" stroke="rgb(115, 161, 191)" stroke-width="1" d="M1315.5,181.5V227.5L1335.5,227.5"></path><path id="kity_path_71" fill="none" stroke="rgb(115, 161, 191)" stroke-width="1" d="M1315.5,181.5V279.5L1335.5,279.5"></path><path id="kity_path_73" fill="none" stroke="rgb(115, 161, 191)" stroke-width="1" d="M1315.5,181.5V484.5L1514.5,484.5"></path></g><g id="minder_node1"><path id="node_outline1" fill="rgb(115, 161, 191)" stroke="rgb(57, 80, 96)" d="M755.5,20.5h204a5,5,0,0,1,5,5v30a5,5,0,0,1,-5,5h-204a5,5,0,0,1,-5,-5v-30a5,5,0,0,1,5,-5z" stroke-width="3"></path><g id="node_text1" fill="white"><text id="kity_text_22" text-rendering="inherit" font-size="16" dy=".8em" y="30.09999990463257" x="774.5">golang的流程控制语句</text></g></g><g id="kity_g_12"><path id="kity_path_13" fill="none" stroke="none" d="M774.5,40.5h0v0h0z"></path></g><g id="kity_g_14"><path id="kity_path_15" fill="none" stroke="none" d="M774.5,40.5h0v0h0z"></path><path id="kity_path_16" fill="none" stroke="none"></path></g><g id="minder_node2"><g id="node_expander6" style="cursor: pointer;"><path id="kity_path_194" fill="white" stroke="gray" d="M309.5,135.5A6,6,0,1,1,297.5,135.5A6,6,0,1,1,309.5,135.5"></path><path id="kity_path_195" fill="none" stroke="gray" d="M299,135.5L308,135.5"></path></g><path id="node_outline7" fill="rgb(238, 243, 246)" stroke="rgb(115, 161, 191)" d="M257.5,142.5h92a3,3,0,0,1,3,3v20a3,3,0,0,1,-3,3h-92a3,3,0,0,1,-3,-3v-20a3,3,0,0,1,3,-3z" stroke-width="1"></path><g id="node_text7" fill="black"><text id="kity_text_88" text-rendering="inherit" font-size="14" dy=".8em" y="146.40000009536743" x="274.5">条件语句</text></g></g><g id="minder_node3"><g id="node_expander2" style="cursor: pointer;"><path id="kity_path_182" fill="white" stroke="gray" d="M294.5,214.5A6,6,0,1,1,282.5,214.5A6,6,0,1,1,294.5,214.5"></path><path id="kity_path_183" fill="none" stroke="gray" d="M284,214.5L293,214.5"></path></g><path id="node_outline3" fill="none" stroke="none" d="M299.5,203.5h19a5,5,0,0,1,5,5v12a5,5,0,0,1,-5,5h-19a5,5,0,0,1,-5,-5v-12a5,5,0,0,1,5,-5z"></path><g id="node_text3" fill="black"><text id="kity_text_77" text-rendering="inherit" font-size="12" dy=".8em" y="206.70000004768372" x="304.5">if</text></g></g><g id="minder_node4"><g id="node_expander1" display="none" style="cursor: pointer;"><path id="kity_path_179" fill="white" stroke="gray" d="M352.5,260.5A6,6,0,1,1,340.5,260.5A6,6,0,1,1,352.5,260.5"></path><path id="kity_path_180" fill="none" stroke="gray"></path></g><path id="node_outline2" fill="none" stroke="none" d="M357.5,249.5h65a5,5,0,0,1,5,5v12a5,5,0,0,1,-5,5h-65a5,5,0,0,1,-5,-5v-12a5,5,0,0,1,5,-5z"></path><g id="node_text2" fill="black"><text id="kity_text_75" text-rendering="inherit" font-size="12" dy=".8em" y="252.70000004768372" x="362.5">if(a==1){}</text></g></g><g id="minder_node5"><g id="node_expander3" display="none" style="cursor: pointer;"><path id="kity_path_185" fill="white" stroke="gray" d="M294.5,318.5A6,6,0,1,1,282.5,318.5A6,6,0,1,1,294.5,318.5"></path><path id="kity_path_186" fill="none" stroke="gray"></path></g><path id="node_outline4" fill="none" stroke="none" d="M299.5,307.5h44a5,5,0,0,1,5,5v12a5,5,0,0,1,-5,5h-44a5,5,0,0,1,-5,-5v-12a5,5,0,0,1,5,-5z"></path><g id="node_text4" fill="black"><text id="kity_text_79" text-rendering="inherit" font-size="12" dy=".8em" y="310.7000000476837" x="304.5">if else</text></g></g><g id="minder_node6"><g id="node_expander5" style="cursor: pointer;"><path id="kity_path_191" fill="white" stroke="gray" d="M294.5,370.5A6,6,0,1,1,282.5,370.5A6,6,0,1,1,294.5,370.5"></path><path id="kity_path_192" fill="none" stroke="gray" d="M284,370.5L293,370.5"></path></g><path id="node_outline6" fill="none" stroke="none" d="M299.5,359.5h52a5,5,0,0,1,5,5v12a5,5,0,0,1,-5,5h-52a5,5,0,0,1,-5,-5v-12a5,5,0,0,1,5,-5z"></path><g id="node_text6" fill="black"><text id="kity_text_86" text-rendering="inherit" font-size="12" dy=".8em" y="362.7000000476837" x="304.5">if elseif</text></g></g><g id="minder_node7"><g id="node_expander4" display="none" style="cursor: pointer;"><path id="kity_path_188" fill="white" stroke="gray" d="M334.5,449.5A6,6,0,1,1,322.5,449.5A6,6,0,1,1,334.5,449.5"></path><path id="kity_path_189" fill="none" stroke="gray"></path></g><path id="node_outline5" fill="none" stroke="none" d="M339.5,411.5h87a5,5,0,0,1,5,5v66a5,5,0,0,1,-5,5h-87a5,5,0,0,1,-5,-5v-66a5,5,0,0,1,5,-5z"></path><g id="node_text5" fill="black"><text id="kity_text_81" text-rendering="inherit" font-size="12" dy=".8em" y="414.7000000476837" x="344.5">if(a==1){</text><text id="kity_text_82" text-rendering="inherit" font-size="12" dy=".8em" y="432.7000000476837" x="344.5">}elseif(a==2){</text><text id="kity_text_83" text-rendering="inherit" font-size="12" dy=".8em" y="450.7000000476837" x="344.5">}else{</text><text id="kity_text_84" text-rendering="inherit" font-size="12" dy=".8em" y="468.7000000476837" x="344.5">}</text></g></g><g id="minder_node8"><g id="node_expander10" style="cursor: pointer;"><path id="kity_path_206" fill="white" stroke="gray" d="M898.5,134.5A6,6,0,1,1,886.5,134.5A6,6,0,1,1,898.5,134.5"></path><path id="kity_path_207" fill="none" stroke="gray" d="M888,134.5L897,134.5"></path></g><path id="node_outline11" fill="rgb(238, 243, 246)" stroke="rgb(115, 161, 191)" d="M846.5,141.5h92a3,3,0,0,1,3,3v20a3,3,0,0,1,-3,3h-92a3,3,0,0,1,-3,-3v-20a3,3,0,0,1,3,-3z" stroke-width="1"></path><g id="node_text11" fill="black"><text id="kity_text_106" text-rendering="inherit" font-size="14" dy=".8em" y="145.40000009536743" x="863.5">循环语句</text></g></g><g id="minder_node9"><g id="node_expander7" display="none" style="cursor: pointer;"><path id="kity_path_197" fill="white" stroke="gray" d="M1024.5,298.5A6,6,0,1,1,1012.5,298.5A6,6,0,1,1,1024.5,298.5"></path><path id="kity_path_198" fill="none" stroke="gray"></path></g><path id="node_outline8" fill="none" stroke="none" d="M1029.5,242.5h48a5,5,0,0,1,5,5v102a5,5,0,0,1,-5,5h-48a5,5,0,0,1,-5,-5v-102a5,5,0,0,1,5,-5z"></path><g id="node_text8" fill="black"><text id="kity_text_90" text-rendering="inherit" font-size="12" dy=".8em" y="245.70000004768372" x="1034.5">for{</text><text id="kity_text_91" text-rendering="inherit" font-size="12" dy=".8em" y="263.7000000476837" x="1034.5">a++</text><text id="kity_text_92" text-rendering="inherit" font-size="12" dy=".8em" y="281.7000000476837" x="1034.5">if a&gt;3{</text><text id="kity_text_93" text-rendering="inherit" font-size="12" dy=".8em" y="299.7000000476837" x="1034.5">break</text><text id="kity_text_94" text-rendering="inherit" font-size="12" dy=".8em" y="317.7000000476837" x="1034.5">}</text><text id="kity_text_95" text-rendering="inherit" font-size="12" dy=".8em" y="335.7000000476837" x="1034.5">}</text></g></g><g id="minder_node10"><g id="node_expander8" display="none" style="cursor: pointer;"><path id="kity_path_200" fill="white" stroke="gray" d="M1024.5,441.5A6,6,0,1,1,1012.5,441.5A6,6,0,1,1,1024.5,441.5"></path><path id="kity_path_201" fill="none" stroke="gray"></path></g><path id="node_outline9" fill="none" stroke="none" d="M1029.5,412.5h114a5,5,0,0,1,5,5v48a5,5,0,0,1,-5,5h-114a5,5,0,0,1,-5,-5v-48a5,5,0,0,1,5,-5z"></path><g id="node_text9" fill="black"><text id="kity_text_97" text-rendering="inherit" font-size="12" dy=".8em" y="415.7000000476837" x="1034.5">for a:=0;a++;a&lt;3{</text><text id="kity_text_98" text-rendering="inherit" font-size="12" dy=".8em" y="433.7000000476837" x="1034.5">fmt.Println(a)</text><text id="kity_text_99" text-rendering="inherit" font-size="12" dy=".8em" y="451.7000000476837" x="1034.5">}</text></g></g><g id="minder_node11"><g id="node_expander9" display="none" style="cursor: pointer;"><path id="kity_path_203" fill="white" stroke="gray" d="M1037.5,573.5A6,6,0,1,1,1025.5,573.5A6,6,0,1,1,1037.5,573.5"></path><path id="kity_path_204" fill="none" stroke="gray"></path></g><path id="node_outline10" fill="none" stroke="none" d="M1042.5,535.5h89a5,5,0,0,1,5,5v66a5,5,0,0,1,-5,5h-89a5,5,0,0,1,-5,-5v-66a5,5,0,0,1,5,-5z"></path><g id="node_text10" fill="black"><text id="kity_text_101" text-rendering="inherit" font-size="12" dy=".8em" y="538.7000000476837" x="1047.5">for a&lt;3{</text><text id="kity_text_102" text-rendering="inherit" font-size="12" dy=".8em" y="556.7000000476837" x="1047.5">a++</text><text id="kity_text_103" text-rendering="inherit" font-size="12" dy=".8em" y="574.7000000476837" x="1047.5">fmt.PrintLn(a)</text><text id="kity_text_104" text-rendering="inherit" font-size="12" dy=".8em" y="592.7000000476837" x="1047.5">}</text></g></g><g id="minder_node12"><g id="node_expander14" style="cursor: pointer;"><path id="kity_path_218" fill="white" stroke="gray" d="M89.5,136.5A6,6,0,1,1,77.5,136.5A6,6,0,1,1,89.5,136.5"></path><path id="kity_path_219" fill="none" stroke="gray" d="M79,136.5L88,136.5"></path></g><path id="node_outline15" fill="rgb(238, 243, 246)" stroke="rgb(115, 161, 191)" d="M23.5,143.5h120a3,3,0,0,1,3,3v20a3,3,0,0,1,-3,3h-120a3,3,0,0,1,-3,-3v-20a3,3,0,0,1,3,-3z" stroke-width="1"></path><g id="node_text15" fill="black"><text id="kity_text_114" text-rendering="inherit" font-size="14" dy=".8em" y="147.40000009536743" x="40.5">递增递减语句</text></g></g><g id="minder_node13"><g id="node_expander13" style="cursor: pointer;"><path id="kity_path_215" fill="white" stroke="gray" d="M60.5,215.5A6,6,0,1,1,48.5,215.5A6,6,0,1,1,60.5,215.5"></path><path id="kity_path_216" fill="none" stroke="gray" d="M50,215.5L59,215.5"></path></g><path id="node_outline14" fill="none" stroke="none" d="M65.5,204.5h157a5,5,0,0,1,5,5v12a5,5,0,0,1,-5,5h-157a5,5,0,0,1,-5,-5v-12a5,5,0,0,1,5,-5z"></path><g id="node_text14" fill="black"><text id="kity_text_112" text-rendering="inherit" font-size="12" dy=".8em" y="207.70000004768372" x="70.5">控制整数自身的增加和减少</text></g></g><g id="minder_node14"><g id="node_expander11" display="none" style="cursor: pointer;"><path id="kity_path_209" fill="white" stroke="gray" d="M100.5,267.5A6,6,0,1,1,88.5,267.5A6,6,0,1,1,100.5,267.5"></path><path id="kity_path_210" fill="none" stroke="gray"></path></g><path id="node_outline12" fill="none" stroke="none" d="M105.5,256.5h55a5,5,0,0,1,5,5v12a5,5,0,0,1,-5,5h-55a5,5,0,0,1,-5,-5v-12a5,5,0,0,1,5,-5z"></path><g id="node_text12" fill="black"><text id="kity_text_108" text-rendering="inherit" font-size="12" dy=".8em" y="259.7000000476837" x="110.5">++ 自增</text></g></g><g id="minder_node15"><g id="node_expander12" display="none" style="cursor: pointer;"><path id="kity_path_212" fill="white" stroke="gray" d="M100.5,319.5A6,6,0,1,1,88.5,319.5A6,6,0,1,1,100.5,319.5"></path><path id="kity_path_213" fill="none" stroke="gray"></path></g><path id="node_outline13" fill="none" stroke="none" d="M105.5,308.5h53a5,5,0,0,1,5,5v12a5,5,0,0,1,-5,5h-53a5,5,0,0,1,-5,-5v-12a5,5,0,0,1,5,-5z"></path><g id="node_text13" fill="black"><text id="kity_text_110" text-rendering="inherit" font-size="12" dy=".8em" y="311.7000000476837" x="110.5">--&#xa0; 自减</text></g></g><g id="minder_node16"><g id="node_expander18" style="cursor: pointer;"><path id="kity_path_230" fill="white" stroke="gray" d="M597.5,126.5A6,6,0,1,1,585.5,126.5A6,6,0,1,1,597.5,126.5"></path><path id="kity_path_231" fill="none" stroke="gray" d="M587,126.5L596,126.5"></path></g><path id="node_outline19" fill="rgb(238, 243, 246)" stroke="rgb(115, 161, 191)" d="M545.5,133.5h92a3,3,0,0,1,3,3v20a3,3,0,0,1,-3,3h-92a3,3,0,0,1,-3,-3v-20a3,3,0,0,1,3,-3z" stroke-width="1"></path><g id="node_text19" fill="black"><text id="kity_text_131" text-rendering="inherit" font-size="14" dy=".8em" y="137.40000009536743" x="562.5">选择语句</text></g></g><g id="minder_node17"><g id="node_expander17" style="cursor: pointer;"><path id="kity_path_227" fill="white" stroke="gray" d="M582.5,205.5A6,6,0,1,1,570.5,205.5A6,6,0,1,1,582.5,205.5"></path><path id="kity_path_228" fill="none" stroke="gray" d="M572,205.5L581,205.5"></path></g><path id="node_outline18" fill="none" stroke="none" d="M587.5,194.5h47a5,5,0,0,1,5,5v12a5,5,0,0,1,-5,5h-47a5,5,0,0,1,-5,-5v-12a5,5,0,0,1,5,-5z"></path><g id="node_text18" fill="black"><text id="kity_text_129" text-rendering="inherit" font-size="12" dy=".8em" y="197.70000004768372" x="592.5">switch</text></g></g><g id="minder_node18"><g id="node_expander16" style="cursor: pointer;"><path id="kity_path_224" fill="white" stroke="gray" d="M641.5,396.5A6,6,0,1,1,629.5,396.5A6,6,0,1,1,641.5,396.5"></path><path id="kity_path_225" fill="none" stroke="gray" d="M631,396.5L640,396.5"></path></g><path id="node_outline17" fill="none" stroke="none" d="M646.5,304.5h126a5,5,0,0,1,5,5v174a5,5,0,0,1,-5,5h-126a5,5,0,0,1,-5,-5v-174a5,5,0,0,1,5,-5z"></path><g id="node_text17" fill="black"><text id="kity_text_118" text-rendering="inherit" font-size="12" dy=".8em" y="307.7000000476837" x="651.5">a := 1</text><text id="kity_text_119" text-rendering="inherit" font-size="12" dy=".8em" y="325.7000000476837" x="651.5">switch a {</text><text id="kity_text_120" text-rendering="inherit" font-size="12" dy=".8em" y="343.7000000476837" x="651.5">	case 0:</text><text id="kity_text_121" text-rendering="inherit" font-size="12" dy=".8em" y="361.7000000476837" x="651.5">	    fmt.Println("a=0")</text><text id="kity_text_122" text-rendering="inherit" font-size="12" dy=".8em" y="379.7000000476837" x="651.5">fallthrough</text><text id="kity_text_123" text-rendering="inherit" font-size="12" dy=".8em" y="397.7000000476837" x="651.5">	case 1:</text><text id="kity_text_124" text-rendering="inherit" font-size="12" dy=".8em" y="415.7000000476837" x="651.5">	    fmt.Println("a=1")</text><text id="kity_text_125" text-rendering="inherit" font-size="12" dy=".8em" y="433.7000000476837" x="651.5">	default:</text><text id="kity_text_126" text-rendering="inherit" font-size="12" dy=".8em" y="451.7000000476837" x="651.5">	    fmt.Println("都不是")</text><text id="kity_text_127" text-rendering="inherit" font-size="12" dy=".8em" y="469.7000000476837" x="651.5">}</text></g></g><g id="minder_node19"><g id="node_expander15" display="none" style="cursor: pointer;"><path id="kity_path_221" fill="white" stroke="gray" d="M694.5,569.5A6,6,0,1,1,682.5,569.5A6,6,0,1,1,694.5,569.5"></path><path id="kity_path_222" fill="none" stroke="gray"></path></g><path id="node_outline16" fill="none" stroke="none" d="M699.5,558.5h75a5,5,0,0,1,5,5v12a5,5,0,0,1,-5,5h-75a5,5,0,0,1,-5,-5v-12a5,5,0,0,1,5,-5z"></path><g id="node_text16" fill="black"><text id="kity_text_116" text-rendering="inherit" font-size="12" dy=".8em" y="561.7000000476837" x="704.5">fallthrough</text></g></g><g id="minder_node20"><g id="node_expander22" style="cursor: pointer;"><path id="kity_path_242" fill="white" stroke="gray" d="M1350.5,148.5A6,6,0,1,1,1338.5,148.5A6,6,0,1,1,1350.5,148.5"></path><path id="kity_path_243" fill="none" stroke="gray" d="M1340,148.5L1349,148.5"></path></g><path id="node_outline23" fill="rgb(238, 243, 246)" stroke="rgb(115, 161, 191)" d="M1298.5,155.5h92a3,3,0,0,1,3,3v20a3,3,0,0,1,-3,3h-92a3,3,0,0,1,-3,-3v-20a3,3,0,0,1,3,-3z" stroke-width="1"></path><g id="node_text23" fill="black"><text id="kity_text_155" text-rendering="inherit" font-size="14" dy=".8em" y="159.40000009536743" x="1315.5">跳转语句</text></g></g><g id="minder_node21"><g id="node_expander19" display="none" style="cursor: pointer;"><path id="kity_path_233" fill="white" stroke="gray" d="M1335.5,227.5A6,6,0,1,1,1323.5,227.5A6,6,0,1,1,1335.5,227.5"></path><path id="kity_path_234" fill="none" stroke="gray"></path></g><path id="node_outline20" fill="none" stroke="none" d="M1340.5,216.5h307a5,5,0,0,1,5,5v12a5,5,0,0,1,-5,5h-307a5,5,0,0,1,-5,-5v-12a5,5,0,0,1,5,-5z"></path><g id="node_text20" fill="black"><text id="kity_text_133" text-rendering="inherit" font-size="12" dy=".8em" y="219.70000004768372" x="1345.5">break 与 continue 配合标签可用于多层循环嵌套的跳出</text></g></g><g id="minder_node22"><g id="node_expander20" display="none" style="cursor: pointer;"><path id="kity_path_236" fill="white" stroke="gray" d="M1335.5,279.5A6,6,0,1,1,1323.5,279.5A6,6,0,1,1,1335.5,279.5"></path><path id="kity_path_237" fill="none" stroke="gray"></path></g><path id="node_outline21" fill="none" stroke="none" d="M1340.5,268.5h348a5,5,0,0,1,5,5v12a5,5,0,0,1,-5,5h-348a5,5,0,0,1,-5,-5v-12a5,5,0,0,1,5,-5z"></path><g id="node_text21" fill="black"><text id="kity_text_135" text-rendering="inherit" font-size="12" dy=".8em" y="271.7000000476837" x="1345.5">goto 是调整执行位置，与其他2个语句配合标签的结果并不相同</text></g></g><g id="minder_node23"><g id="node_expander21" display="none" style="cursor: pointer;"><path id="kity_path_239" fill="white" stroke="gray" d="M1514.5,484.5A6,6,0,1,1,1502.5,484.5A6,6,0,1,1,1514.5,484.5"></path><path id="kity_path_240" fill="none" stroke="gray"></path></g><path id="node_outline22" fill="none" stroke="none" d="M1519.5,329.5h135a5,5,0,0,1,5,5v300a5,5,0,0,1,-5,5h-135a5,5,0,0,1,-5,-5v-300a5,5,0,0,1,5,-5z"></path><g id="node_text22" fill="black"><text id="kity_text_137" text-rendering="inherit" font-size="12" dy=".8em" y="332.7000000476837" x="1524.5">//定义循环体A</text><text id="kity_text_138" text-rendering="inherit" font-size="12" dy=".8em" y="350.7000000476837" x="1524.5">A:</text><text id="kity_text_139" text-rendering="inherit" font-size="12" dy=".8em" y="368.7000000476837" x="1524.5">	for {</text><text id="kity_text_140" text-rendering="inherit" font-size="12" dy=".8em" y="386.7000000476837" x="1524.5">	    for i := 0; i &lt; 10; i++ {</text><text id="kity_text_141" text-rendering="inherit" font-size="12" dy=".8em" y="404.7000000476837" x="1524.5">	        if i &gt; 3 {</text><text id="kity_text_142" text-rendering="inherit" font-size="12" dy=".8em" y="422.7000000476837" x="1524.5">	            //跳出A</text><text id="kity_text_143" text-rendering="inherit" font-size="12" dy=".8em" y="440.7000000476837" x="1524.5">	            break A</text><text id="kity_text_144" text-rendering="inherit" font-size="12" dy=".8em" y="458.7000000476837" x="1524.5">	            //跳到B</text><text id="kity_text_145" text-rendering="inherit" font-size="12" dy=".8em" y="476.7000000476837" x="1524.5">	            goto B</text><text id="kity_text_146" text-rendering="inherit" font-size="12" dy=".8em" y="494.7000000476837" x="1524.5">	        }</text><text id="kity_text_147" text-rendering="inherit" font-size="12" dy=".8em" y="512.7000000476837" x="1524.5">	    }</text><text id="kity_text_148" text-rendering="inherit" font-size="12" dy=".8em" y="530.7000000476837" x="1524.5">	}</text><text id="kity_text_149" text-rendering="inherit" font-size="12" dy=".8em" y="548.7000000476837" x="1524.5">	fmt.Println("结束")</text><text id="kity_text_150" text-rendering="inherit" font-size="12" dy=".8em" y="566.7000000476837" x="1524.5"></text><text id="kity_text_151" text-rendering="inherit" font-size="12" dy=".8em" y="584.7000000476837" x="1524.5">//定义循环体B</text><text id="kity_text_152" text-rendering="inherit" font-size="12" dy=".8em" y="602.7000000476837" x="1524.5">LABEL2:</text><text id="kity_text_153" text-rendering="inherit" font-size="12" dy=".8em" y="620.7000000476837" x="1524.5">	fmt.Println("我在B")</text></g></g></g></g></svg>