<svg id="kity_svg_6" xmlns="http://www.w3.org/2000/svg" xmlns:xlink="http://www.w3.org/1999/xlink" version="1.1" width="2230" height="1181" style="background: rgb(251, 251, 251); visibility: visible;" viewBox="0 0 2230 1181"><defs id="kity_defs_7"><linearGradient id="kity_linearGradient_17" x1="0" y1="0" x2="0" y2="1"><stop id="kity_stop_18" offset="0" stop-color="rgb(255, 255, 255)"></stop><stop id="kity_stop_19" offset="1" stop-color="rgb(204, 204, 204)"></stop></linearGradient><marker id="kity_marker_2" orient="auto" refX="6" refY="0" viewBox="-7 -7 14 14" markerWidth="7" markerHeight="7" markerUnits="userSpaceOnUse"><path id="kity_path_3" fill="rgb(115, 161, 191)" stroke="none" d="M6,0A6,6,0,1,1,-6,0A6,6,0,1,1,6,0"></path></marker></defs><g id="kity_g_8"><g id="minder1" text-rendering="optimize-speed"><g id="minder_connect_group1"><path id="kity_path_31" fill="none" stroke="rgb(115, 161, 191)" stroke-width="1" d="M1621.5,60.5v30h-1326V154.5"></path><path id="kity_path_33" fill="none" stroke="rgb(115, 161, 191)" stroke-width="1" d="M251.5,180.5V226.5L271.5,226.5"></path><path id="kity_path_35" fill="none" stroke="rgb(115, 161, 191)" stroke-width="1" d="M291.5,237.5V278.5L311.5,278.5"></path><path id="kity_path_37" fill="none" stroke="rgb(115, 161, 191)" stroke-width="1" d="M291.5,237.5V338.5L311.5,338.5"></path><path id="kity_path_39" fill="none" stroke="rgb(115, 161, 191)" stroke-width="1" d="M291.5,237.5V390.5L311.5,390.5"></path><path id="kity_path_41" fill="none" stroke="rgb(115, 161, 191)" stroke-width="1" d="M291.5,237.5V442.5L311.5,442.5"></path><path id="kity_path_43" fill="none" stroke="rgb(115, 161, 191)" stroke-width="1" d="M291.5,237.5V494.5L311.5,494.5"></path><path id="kity_path_45" fill="none" stroke="rgb(115, 161, 191)" stroke-width="1" d="M291.5,237.5V550.5L311.5,550.5"></path><path id="kity_path_47" fill="none" stroke="rgb(115, 161, 191)" stroke-width="1" d="M291.5,237.5V606.5L311.5,606.5"></path><path id="kity_path_49" fill="none" stroke="rgb(115, 161, 191)" stroke-width="1" d="M291.5,237.5V658.5L311.5,658.5"></path><path id="kity_path_51" fill="none" stroke="rgb(115, 161, 191)" stroke-width="1" d="M291.5,237.5V710.5L311.5,710.5"></path><path id="kity_path_53" fill="none" stroke="rgb(115, 161, 191)" stroke-width="1" d="M291.5,237.5V762.5L311.5,762.5"></path><path id="kity_path_55" fill="none" stroke="rgb(115, 161, 191)" stroke-width="1" d="M291.5,237.5V818.5L311.5,818.5"></path><path id="kity_path_57" fill="none" stroke="rgb(115, 161, 191)" stroke-width="1" d="M291.5,237.5V878.5L311.5,878.5"></path><path id="kity_path_59" fill="none" stroke="rgb(115, 161, 191)" stroke-width="1" d="M251.5,180.5V934.5L271.5,934.5"></path><path id="kity_path_61" fill="none" stroke="rgb(115, 161, 191)" stroke-width="1" d="M291.5,945.5V986.5L311.5,986.5"></path><path id="kity_path_63" fill="none" stroke="rgb(115, 161, 191)" stroke-width="1" d="M291.5,945.5V1042.5L311.5,1042.5"></path><path id="kity_path_65" fill="none" stroke="rgb(115, 161, 191)" stroke-width="1" d="M251.5,180.5V1098.5L271.5,1098.5"></path><path id="kity_path_67" fill="none" stroke="none" display="none"></path><path id="kity_path_69" fill="none" stroke="rgb(115, 161, 191)" stroke-width="1" d="M251.5,180.5V1150.5L271.5,1150.5"></path><path id="kity_path_71" fill="none" stroke="none" display="none"></path><path id="kity_path_73" fill="none" stroke="none" display="none"></path><path id="kity_path_75" fill="none" stroke="rgb(115, 161, 191)" stroke-width="1" d="M1621.5,60.5v30h516V151.5"></path><path id="kity_path_77" fill="none" stroke="rgb(115, 161, 191)" stroke-width="1" d="M2121.5,177.5V223.5L2141.5,223.5"></path><path id="kity_path_79" fill="none" stroke="rgb(115, 161, 191)" stroke-width="1" d="M2121.5,177.5V275.5L2141.5,275.5"></path><path id="kity_path_81" fill="none" stroke="rgb(115, 161, 191)" stroke-width="1" d="M1621.5,60.5v30h150V153.5"></path><path id="kity_path_83" fill="none" stroke="rgb(115, 161, 191)" stroke-width="1" d="M1586.5,179.5V225.5L1606.5,225.5"></path><path id="kity_path_85" fill="none" stroke="rgb(115, 161, 191)" stroke-width="1" d="M1586.5,179.5V277.5L1606.5,277.5"></path><path id="kity_path_87" fill="none" stroke="rgb(115, 161, 191)" stroke-width="1" d="M1586.5,179.5V329.5L1606.5,329.5"></path><path id="kity_path_89" fill="none" stroke="rgb(115, 161, 191)" stroke-width="1" d="M1586.5,179.5V381.5L1606.5,381.5"></path><path id="kity_path_91" fill="none" stroke="rgb(115, 161, 191)" stroke-width="1" d="M1586.5,179.5V433.5L1606.5,433.5"></path><path id="kity_path_93" fill="none" stroke="rgb(115, 161, 191)" stroke-width="1" d="M1586.5,179.5V485.5L1606.5,485.5"></path><path id="kity_path_95" fill="none" stroke="rgb(115, 161, 191)" stroke-width="1" d="M1586.5,179.5V537.5L1606.5,537.5"></path><path id="kity_path_97" fill="none" stroke="rgb(115, 161, 191)" stroke-width="1" d="M1586.5,179.5V589.5L1606.5,589.5"></path><path id="kity_path_99" fill="none" stroke="rgb(115, 161, 191)" stroke-width="1" d="M1621.5,60.5v30h-379V128.5"></path><path id="kity_path_101" fill="none" stroke="rgb(115, 161, 191)" stroke-width="1" d="M1191.5,154.5V200.5L1211.5,200.5"></path><path id="kity_path_103" fill="none" stroke="rgb(115, 161, 191)" stroke-width="1" d="M1231.5,211.5V252.5L1251.5,252.5"></path><path id="kity_path_105" fill="none" stroke="rgb(115, 161, 191)" stroke-width="1" d="M1191.5,154.5V304.5L1211.5,304.5"></path><path id="kity_path_107" fill="none" stroke="rgb(115, 161, 191)" stroke-width="1" d="M1231.5,315.5V356.5L1251.5,356.5"></path><path id="kity_path_109" fill="none" stroke="rgb(115, 161, 191)" stroke-width="1" d="M1191.5,154.5V411.5L1218.5,411.5"></path><path id="kity_path_111" fill="none" stroke="rgb(115, 161, 191)" stroke-width="1" d="M1238.5,422.5V463.5L1258.5,463.5"></path><path id="kity_path_113" fill="none" stroke="rgb(115, 161, 191)" stroke-width="1" d="M1191.5,154.5V523.5L1213.5,523.5"></path><path id="kity_path_115" fill="none" stroke="rgb(115, 161, 191)" stroke-width="1" d="M1233.5,534.5V575.5L1253.5,575.5"></path><path id="kity_path_117" fill="none" stroke="rgb(115, 161, 191)" stroke-width="1" d="M1191.5,154.5V637.5L1210.5,637.5"></path><path id="kity_path_119" fill="none" stroke="rgb(115, 161, 191)" stroke-width="1" d="M1230.5,648.5V689.5L1250.5,689.5"></path><path id="kity_path_121" fill="none" stroke="rgb(115, 161, 191)" stroke-width="1" d="M1230.5,648.5V741.5L1250.5,741.5"></path><path id="kity_path_123" fill="none" stroke="rgb(115, 161, 191)" stroke-width="1" d="M1191.5,154.5V825.5L1228.5,825.5"></path><path id="kity_path_125" fill="none" stroke="rgb(115, 161, 191)" stroke-width="1" d="M1248.5,836.5V877.5L1268.5,877.5"></path><path id="kity_path_127" fill="none" stroke="rgb(115, 161, 191)" stroke-width="1" d="M1191.5,154.5V941.5L1234.5,941.5"></path><path id="kity_path_129" fill="none" stroke="rgb(115, 161, 191)" stroke-width="1" d="M1254.5,952.5V993.5L1274.5,993.5"></path><path id="kity_path_131" fill="none" stroke="rgb(115, 161, 191)" stroke-width="1" d="M1621.5,60.5v30h-698V133.5"></path><path id="kity_path_133" fill="none" stroke="rgb(115, 161, 191)" stroke-width="1" d="M879.5,159.5V205.5L899.5,205.5"></path><path id="kity_path_135" fill="none" stroke="rgb(115, 161, 191)" stroke-width="1" d="M1621.5,60.5v30h-1551.5V124.5"></path><path id="kity_path_137" fill="none" stroke="rgb(115, 161, 191)" stroke-width="1" d="M40.5,150.5V421.5L60.5,421.5"></path></g><g id="minder_node1"><path id="node_outline1" fill="rgb(115, 161, 191)" stroke="rgb(57, 80, 96)" d="M1495.5,20.5h251a5,5,0,0,1,5,5v30a5,5,0,0,1,-5,5h-251a5,5,0,0,1,-5,-5v-30a5,5,0,0,1,5,-5z" stroke-width="3"></path><g id="node_text1" fill="white"><text id="kity_text_22" text-rendering="inherit" font-size="16" dy=".8em" y="30.09999990463257" x="1514.5">golang 变量 与 基本数据类型</text></g></g><g id="kity_g_12"><path id="kity_path_13" fill="none" stroke="none" d="M1514.5,40.5h0v0h0z"></path></g><g id="kity_g_14"><path id="kity_path_15" fill="none" stroke="none" d="M1514.5,40.5h0v0h0z"></path><path id="kity_path_16" fill="none" stroke="none"></path></g><g id="minder_node2"><g id="node_expander22" style="cursor: pointer;"><path id="kity_path_414" fill="white" stroke="gray" d="M301,147.5A6,6,0,1,1,289,147.5A6,6,0,1,1,301,147.5"></path><path id="kity_path_415" fill="none" stroke="gray" d="M290.5,147.5L299.5,147.5"></path></g><path id="node_outline23" fill="rgb(238, 243, 246)" stroke="rgb(115, 161, 191)" d="M234.5,154.5h121a3,3,0,0,1,3,3v20a3,3,0,0,1,-3,3h-121a3,3,0,0,1,-3,-3v-20a3,3,0,0,1,3,-3z" stroke-width="1"></path><g id="node_text23" fill="black"><text id="kity_text_181" text-rendering="inherit" font-size="14" dy=".8em" y="158.40000009536743" x="251.5">基本数据类型</text></g></g><g id="minder_node3"><g id="node_expander13" style="cursor: pointer;"><path id="kity_path_387" fill="white" stroke="gray" d="M271.5,226.5A6,6,0,1,1,259.5,226.5A6,6,0,1,1,271.5,226.5"></path><path id="kity_path_388" fill="none" stroke="gray" d="M261,226.5L270,226.5"></path></g><path id="node_outline14" fill="none" stroke="none" d="M276.5,215.5h61a5,5,0,0,1,5,5v12a5,5,0,0,1,-5,5h-61a5,5,0,0,1,-5,-5v-12a5,5,0,0,1,5,-5z"></path><g id="node_text14" fill="black"><text id="kity_text_163" text-rendering="inherit" font-size="12" dy=".8em" y="218.70000004768372" x="281.5">整数类型</text></g></g><g id="minder_node4"><g id="node_expander1" display="none" style="cursor: pointer;"><path id="kity_path_351" fill="white" stroke="gray" d="M311.5,278.5A6,6,0,1,1,299.5,278.5A6,6,0,1,1,311.5,278.5"></path><path id="kity_path_352" fill="none" stroke="gray"></path></g><path id="node_outline2" fill="none" stroke="none" d="M316.5,263.5h173a5,5,0,0,1,5,5v20a5,5,0,0,1,-5,5h-173a5,5,0,0,1,-5,-5v-20a5,5,0,0,1,5,-5z"></path><g id="node_text2" fill="black"><text id="kity_text_139" text-rendering="inherit" font-size="12" dy=".8em" y="270.7000000476837" x="346.5">uint(一般情况下使用这个)</text></g><g id="node_priority1"><path id="kity_path_273" fill="#840023" stroke="none" d="M322,282c0,3.866,3.134,7,7,7h6c3.866,0,7,-3.134,7,-7V276H322V282z"></path><path id="kity_path_274" fill="#FF1200" stroke="none" d="M342,279c0,3.866,-3.134,7,-7,7H329c-3.866,0,-7,-3.134,-7,-7V276c0,-3.866,3.134,-7,7,-7h6c3.866,0,7,3.134,7,7V279z" opacity="0.8"></path><text id="kity_text_275" text-rendering="geometricPrecision" x="331" y="278.5" text-anchor="middle" font-style="italic" font-size="12" fill="white" dy="5">1</text></g></g><g id="minder_node5"><g id="node_expander2" display="none" style="cursor: pointer;"><path id="kity_path_354" fill="white" stroke="gray" d="M311.5,338.5A6,6,0,1,1,299.5,338.5A6,6,0,1,1,311.5,338.5"></path><path id="kity_path_355" fill="none" stroke="gray"></path></g><path id="node_outline3" fill="none" stroke="none" d="M316.5,327.5h40a5,5,0,0,1,5,5v12a5,5,0,0,1,-5,5h-40a5,5,0,0,1,-5,-5v-12a5,5,0,0,1,5,-5z"></path><g id="node_text3" fill="black"><text id="kity_text_141" text-rendering="inherit" font-size="12" dy=".8em" y="330.7000000476837" x="321.5">uint8</text></g></g><g id="minder_node6"><g id="node_expander3" display="none" style="cursor: pointer;"><path id="kity_path_357" fill="white" stroke="gray" d="M311.5,390.5A6,6,0,1,1,299.5,390.5A6,6,0,1,1,311.5,390.5"></path><path id="kity_path_358" fill="none" stroke="gray"></path></g><path id="node_outline4" fill="none" stroke="none" d="M316.5,379.5h47a5,5,0,0,1,5,5v12a5,5,0,0,1,-5,5h-47a5,5,0,0,1,-5,-5v-12a5,5,0,0,1,5,-5z"></path><g id="node_text4" fill="black"><text id="kity_text_143" text-rendering="inherit" font-size="12" dy=".8em" y="382.7000000476837" x="321.5">uint16</text></g></g><g id="minder_node7"><g id="node_expander4" display="none" style="cursor: pointer;"><path id="kity_path_360" fill="white" stroke="gray" d="M311.5,442.5A6,6,0,1,1,299.5,442.5A6,6,0,1,1,311.5,442.5"></path><path id="kity_path_361" fill="none" stroke="gray"></path></g><path id="node_outline5" fill="none" stroke="none" d="M316.5,431.5h47a5,5,0,0,1,5,5v12a5,5,0,0,1,-5,5h-47a5,5,0,0,1,-5,-5v-12a5,5,0,0,1,5,-5z"></path><g id="node_text5" fill="black"><text id="kity_text_145" text-rendering="inherit" font-size="12" dy=".8em" y="434.7000000476837" x="321.5">uint32</text></g></g><g id="minder_node8"><g id="node_expander5" display="none" style="cursor: pointer;"><path id="kity_path_363" fill="white" stroke="gray" d="M311.5,494.5A6,6,0,1,1,299.5,494.5A6,6,0,1,1,311.5,494.5"></path><path id="kity_path_364" fill="none" stroke="gray"></path></g><path id="node_outline6" fill="none" stroke="none" d="M316.5,483.5h47a5,5,0,0,1,5,5v12a5,5,0,0,1,-5,5h-47a5,5,0,0,1,-5,-5v-12a5,5,0,0,1,5,-5z"></path><g id="node_text6" fill="black"><text id="kity_text_147" text-rendering="inherit" font-size="12" dy=".8em" y="486.7000000476837" x="321.5">uint64</text></g></g><g id="minder_node9"><g id="node_expander6" display="none" style="cursor: pointer;"><path id="kity_path_366" fill="white" stroke="gray" d="M311.5,550.5A6,6,0,1,1,299.5,550.5A6,6,0,1,1,311.5,550.5"></path><path id="kity_path_367" fill="none" stroke="gray"></path></g><path id="node_outline7" fill="none" stroke="none" d="M316.5,535.5h166a5,5,0,0,1,5,5v20a5,5,0,0,1,-5,5h-166a5,5,0,0,1,-5,-5v-20a5,5,0,0,1,5,-5z"></path><g id="node_text7" fill="black"><text id="kity_text_149" text-rendering="inherit" font-size="12" dy=".8em" y="542.7000000476837" x="346.5">int(一般情况下使用这个)</text></g><g id="node_priority2"><path id="kity_path_278" fill="#840023" stroke="none" d="M322,554c0,3.866,3.134,7,7,7h6c3.866,0,7,-3.134,7,-7V548H322V554z"></path><path id="kity_path_279" fill="#FF1200" stroke="none" d="M342,551c0,3.866,-3.134,7,-7,7H329c-3.866,0,-7,-3.134,-7,-7V548c0,-3.866,3.134,-7,7,-7h6c3.866,0,7,3.134,7,7V551z" opacity="0.8"></path><text id="kity_text_280" text-rendering="geometricPrecision" x="331" y="550.5" text-anchor="middle" font-style="italic" font-size="12" fill="white" dy="5">1</text></g></g><g id="minder_node10"><g id="node_expander7" display="none" style="cursor: pointer;"><path id="kity_path_369" fill="white" stroke="gray" d="M311.5,606.5A6,6,0,1,1,299.5,606.5A6,6,0,1,1,311.5,606.5"></path><path id="kity_path_370" fill="none" stroke="gray"></path></g><path id="node_outline8" fill="none" stroke="none" d="M316.5,595.5h33a5,5,0,0,1,5,5v12a5,5,0,0,1,-5,5h-33a5,5,0,0,1,-5,-5v-12a5,5,0,0,1,5,-5z"></path><g id="node_text8" fill="black"><text id="kity_text_151" text-rendering="inherit" font-size="12" dy=".8em" y="598.7000000476837" x="321.5">int8</text></g></g><g id="minder_node11"><g id="node_expander8" display="none" style="cursor: pointer;"><path id="kity_path_372" fill="white" stroke="gray" d="M311.5,658.5A6,6,0,1,1,299.5,658.5A6,6,0,1,1,311.5,658.5"></path><path id="kity_path_373" fill="none" stroke="gray"></path></g><path id="node_outline9" fill="none" stroke="none" d="M316.5,647.5h40a5,5,0,0,1,5,5v12a5,5,0,0,1,-5,5h-40a5,5,0,0,1,-5,-5v-12a5,5,0,0,1,5,-5z"></path><g id="node_text9" fill="black"><text id="kity_text_153" text-rendering="inherit" font-size="12" dy=".8em" y="650.7000000476837" x="321.5">int16</text></g></g><g id="minder_node12"><g id="node_expander9" display="none" style="cursor: pointer;"><path id="kity_path_375" fill="white" stroke="gray" d="M311.5,710.5A6,6,0,1,1,299.5,710.5A6,6,0,1,1,311.5,710.5"></path><path id="kity_path_376" fill="none" stroke="gray"></path></g><path id="node_outline10" fill="none" stroke="none" d="M316.5,699.5h40a5,5,0,0,1,5,5v12a5,5,0,0,1,-5,5h-40a5,5,0,0,1,-5,-5v-12a5,5,0,0,1,5,-5z"></path><g id="node_text10" fill="black"><text id="kity_text_155" text-rendering="inherit" font-size="12" dy=".8em" y="702.7000000476837" x="321.5">int32</text></g></g><g id="minder_node13"><g id="node_expander10" display="none" style="cursor: pointer;"><path id="kity_path_378" fill="white" stroke="gray" d="M311.5,762.5A6,6,0,1,1,299.5,762.5A6,6,0,1,1,311.5,762.5"></path><path id="kity_path_379" fill="none" stroke="gray"></path></g><path id="node_outline11" fill="none" stroke="none" d="M316.5,751.5h40a5,5,0,0,1,5,5v12a5,5,0,0,1,-5,5h-40a5,5,0,0,1,-5,-5v-12a5,5,0,0,1,5,-5z"></path><g id="node_text11" fill="black"><text id="kity_text_157" text-rendering="inherit" font-size="12" dy=".8em" y="754.7000000476837" x="321.5">int64</text></g></g><g id="minder_node14"><g id="node_expander11" display="none" style="cursor: pointer;"><path id="kity_path_381" fill="white" stroke="gray" d="M311.5,818.5A6,6,0,1,1,299.5,818.5A6,6,0,1,1,311.5,818.5"></path><path id="kity_path_382" fill="none" stroke="gray"></path></g><path id="node_outline12" fill="none" stroke="none" d="M316.5,803.5h359a5,5,0,0,1,5,5v20a5,5,0,0,1,-5,5h-359a5,5,0,0,1,-5,-5v-20a5,5,0,0,1,5,-5z"></path><g id="node_text12" fill="black"><text id="kity_text_159" text-rendering="inherit" font-size="12" dy=".8em" y="810.7000000476837" x="346.5">byte（需要字节存储时候才会用到 一般是&#xa0; 字节组成的数组）</text></g><g id="node_priority3"><path id="kity_path_283" fill="#840023" stroke="none" d="M322,822c0,3.866,3.134,7,7,7h6c3.866,0,7,-3.134,7,-7V816H322V822z"></path><path id="kity_path_284" fill="#FF1200" stroke="none" d="M342,819c0,3.866,-3.134,7,-7,7H329c-3.866,0,-7,-3.134,-7,-7V816c0,-3.866,3.134,-7,7,-7h6c3.866,0,7,3.134,7,7V819z" opacity="0.8"></path><text id="kity_text_285" text-rendering="geometricPrecision" x="331" y="818.5" text-anchor="middle" font-style="italic" font-size="12" fill="white" dy="5">1</text></g></g><g id="minder_node15"><g id="node_expander12" display="none" style="cursor: pointer;"><path id="kity_path_384" fill="white" stroke="gray" d="M311.5,878.5A6,6,0,1,1,299.5,878.5A6,6,0,1,1,311.5,878.5"></path><path id="kity_path_385" fill="none" stroke="gray"></path></g><path id="node_outline13" fill="none" stroke="none" d="M316.5,863.5h252a5,5,0,0,1,5,5v20a5,5,0,0,1,-5,5h-252a5,5,0,0,1,-5,-5v-20a5,5,0,0,1,5,-5z"></path><g id="node_text13" fill="black"><text id="kity_text_161" text-rendering="inherit" font-size="12" dy=".8em" y="870.7000000476837" x="346.5">rune等价于int32 存储一个 unicoed编码</text></g><g id="node_priority4"><path id="kity_path_288" fill="#840023" stroke="none" d="M322,882c0,3.866,3.134,7,7,7h6c3.866,0,7,-3.134,7,-7V876H322V882z"></path><path id="kity_path_289" fill="#FF1200" stroke="none" d="M342,879c0,3.866,-3.134,7,-7,7H329c-3.866,0,-7,-3.134,-7,-7V876c0,-3.866,3.134,-7,7,-7h6c3.866,0,7,3.134,7,7V879z" opacity="0.8"></path><text id="kity_text_290" text-rendering="geometricPrecision" x="331" y="878.5" text-anchor="middle" font-style="italic" font-size="12" fill="white" dy="5">1</text></g></g><g id="minder_node16"><g id="node_expander16" style="cursor: pointer;"><path id="kity_path_396" fill="white" stroke="gray" d="M271.5,934.5A6,6,0,1,1,259.5,934.5A6,6,0,1,1,271.5,934.5"></path><path id="kity_path_397" fill="none" stroke="gray" d="M261,934.5L270,934.5"></path></g><path id="node_outline17" fill="none" stroke="none" d="M276.5,923.5h61a5,5,0,0,1,5,5v12a5,5,0,0,1,-5,5h-61a5,5,0,0,1,-5,-5v-12a5,5,0,0,1,5,-5z"></path><g id="node_text17" fill="black"><text id="kity_text_169" text-rendering="inherit" font-size="12" dy=".8em" y="926.7000000476837" x="281.5">浮点类型</text></g></g><g id="minder_node17"><g id="node_expander14" display="none" style="cursor: pointer;"><path id="kity_path_390" fill="white" stroke="gray" d="M311.5,986.5A6,6,0,1,1,299.5,986.5A6,6,0,1,1,311.5,986.5"></path><path id="kity_path_391" fill="none" stroke="gray"></path></g><path id="node_outline15" fill="none" stroke="none" d="M316.5,975.5h52a5,5,0,0,1,5,5v12a5,5,0,0,1,-5,5h-52a5,5,0,0,1,-5,-5v-12a5,5,0,0,1,5,-5z"></path><g id="node_text15" fill="black"><text id="kity_text_165" text-rendering="inherit" font-size="12" dy=".8em" y="978.7000000476837" x="321.5">float32</text></g></g><g id="minder_node18"><g id="node_expander15" display="none" style="cursor: pointer;"><path id="kity_path_393" fill="white" stroke="gray" d="M311.5,1042.5A6,6,0,1,1,299.5,1042.5A6,6,0,1,1,311.5,1042.5"></path><path id="kity_path_394" fill="none" stroke="gray"></path></g><path id="node_outline16" fill="none" stroke="none" d="M316.5,1027.5h192a5,5,0,0,1,5,5v20a5,5,0,0,1,-5,5h-192a5,5,0,0,1,-5,-5v-20a5,5,0,0,1,5,-5z"></path><g id="node_text16" fill="black"><text id="kity_text_167" text-rendering="inherit" font-size="12" dy=".8em" y="1034.7000000476837" x="346.5">float64(一般情况下使用这个)</text></g><g id="node_priority5"><path id="kity_path_293" fill="#840023" stroke="none" d="M322,1046c0,3.866,3.134,7,7,7h6c3.866,0,7,-3.134,7,-7V1040H322V1046z"></path><path id="kity_path_294" fill="#FF1200" stroke="none" d="M342,1043c0,3.866,-3.134,7,-7,7H329c-3.866,0,-7,-3.134,-7,-7V1040c0,-3.866,3.134,-7,7,-7h6c3.866,0,7,3.134,7,7V1043z" opacity="0.8"></path><text id="kity_text_295" text-rendering="geometricPrecision" x="331" y="1042.5" text-anchor="middle" font-style="italic" font-size="12" fill="white" dy="5">1</text></g></g><g id="minder_node19"><g id="node_expander18" style="cursor: pointer;"><path id="kity_path_402" fill="white" stroke="gray" d="M271.5,1098.5A6,6,0,1,1,259.5,1098.5A6,6,0,1,1,271.5,1098.5"></path><path id="kity_path_403" fill="none" stroke="gray" d="M261,1098.5L270,1098.5M265.5,1094L265.5,1103"></path></g><path id="node_outline19" fill="none" stroke="none" d="M276.5,1087.5h128a5,5,0,0,1,5,5v12a5,5,0,0,1,-5,5h-128a5,5,0,0,1,-5,-5v-12a5,5,0,0,1,5,-5z"></path><g id="node_text19" fill="black"><text id="kity_text_173" text-rendering="inherit" font-size="12" dy=".8em" y="1090.7000000476837" x="281.5">字符串类型（string）</text></g></g><g id="minder_node20" display="none"><g id="node_expander17" display="none" style="cursor: pointer;"><path id="kity_path_399" fill="white" stroke="gray" d="M311.5,1139.5A6,6,0,1,1,299.5,1139.5A6,6,0,1,1,311.5,1139.5"></path><path id="kity_path_400" fill="none" stroke="gray"></path></g><path id="node_outline18" fill="none" stroke="none" d="M306.5,1128.5h294a5,5,0,0,1,5,5v12a5,5,0,0,1,-5,5h-294a5,5,0,0,1,-5,-5v-12a5,5,0,0,1,5,-5z"></path><g id="node_text18" fill="black"><text id="kity_text_171" text-rendering="inherit" font-size="12" dy=".8em" y="1131.7000000476837" x="311.5">双引号引起来的一段字符&#xa0; “这样就是字符串类型了”</text></g></g><g id="minder_node21"><g id="node_expander21" style="cursor: pointer;"><path id="kity_path_411" fill="white" stroke="gray" d="M271.5,1150.5A6,6,0,1,1,259.5,1150.5A6,6,0,1,1,271.5,1150.5"></path><path id="kity_path_412" fill="none" stroke="gray" d="M261,1150.5L270,1150.5M265.5,1146L265.5,1155"></path></g><path id="node_outline22" fill="none" stroke="none" d="M276.5,1139.5h109a5,5,0,0,1,5,5v12a5,5,0,0,1,-5,5h-109a5,5,0,0,1,-5,-5v-12a5,5,0,0,1,5,-5z"></path><g id="node_text22" fill="black"><text id="kity_text_179" text-rendering="inherit" font-size="12" dy=".8em" y="1142.7000000476837" x="281.5">布尔类型（bool）</text></g></g><g id="minder_node22" display="none"><g id="node_expander19" display="none" style="cursor: pointer;"><path id="kity_path_405" fill="white" stroke="gray" d="M311.5,1191.5A6,6,0,1,1,299.5,1191.5A6,6,0,1,1,311.5,1191.5"></path><path id="kity_path_406" fill="none" stroke="gray"></path></g><path id="node_outline20" fill="none" stroke="none" d="M306.5,1180.5h36a5,5,0,0,1,5,5v12a5,5,0,0,1,-5,5h-36a5,5,0,0,1,-5,-5v-12a5,5,0,0,1,5,-5z"></path><g id="node_text20" fill="black"><text id="kity_text_175" text-rendering="inherit" font-size="12" dy=".8em" y="1183.7000000476837" x="311.5">true</text></g></g><g id="minder_node23" display="none"><g id="node_expander20" display="none" style="cursor: pointer;"><path id="kity_path_408" fill="white" stroke="gray" d="M311.5,1221.5A6,6,0,1,1,299.5,1221.5A6,6,0,1,1,311.5,1221.5"></path><path id="kity_path_409" fill="none" stroke="gray"></path></g><path id="node_outline21" fill="none" stroke="none" d="M306.5,1210.5h39a5,5,0,0,1,5,5v12a5,5,0,0,1,-5,5h-39a5,5,0,0,1,-5,-5v-12a5,5,0,0,1,5,-5z"></path><g id="node_text21" fill="black"><text id="kity_text_177" text-rendering="inherit" font-size="12" dy=".8em" y="1213.7000000476837" x="311.5">false</text></g></g><g id="minder_node24"><g id="node_expander25" style="cursor: pointer;"><path id="kity_path_423" fill="white" stroke="gray" d="M2143,144.5A6,6,0,1,1,2131,144.5A6,6,0,1,1,2143,144.5"></path><path id="kity_path_424" fill="none" stroke="gray" d="M2132.5,144.5L2141.5,144.5"></path></g><path id="node_outline26" fill="rgb(238, 243, 246)" stroke="rgb(115, 161, 191)" d="M2104.5,151.5h65a3,3,0,0,1,3,3v20a3,3,0,0,1,-3,3h-65a3,3,0,0,1,-3,-3v-20a3,3,0,0,1,3,-3z" stroke-width="1"></path><g id="node_text26" fill="black"><text id="kity_text_187" text-rendering="inherit" font-size="14" dy=".8em" y="155.40000009536743" x="2121.5">变量</text></g></g><g id="minder_node25"><g id="node_expander23" display="none" style="cursor: pointer;"><path id="kity_path_417" fill="white" stroke="gray" d="M2141.5,223.5A6,6,0,1,1,2129.5,223.5A6,6,0,1,1,2141.5,223.5"></path><path id="kity_path_418" fill="none" stroke="gray"></path></g><path id="node_outline24" fill="none" stroke="none" d="M2146.5,212.5h59a5,5,0,0,1,5,5v12a5,5,0,0,1,-5,5h-59a5,5,0,0,1,-5,-5v-12a5,5,0,0,1,5,-5z"></path><g id="node_text24" fill="black"><text id="kity_text_183" text-rendering="inherit" font-size="12" dy=".8em" y="215.70000004768372" x="2151.5">显式声明</text></g></g><g id="minder_node26"><g id="node_expander24" display="none" style="cursor: pointer;"><path id="kity_path_420" fill="white" stroke="gray" d="M2141.5,275.5A6,6,0,1,1,2129.5,275.5A6,6,0,1,1,2141.5,275.5"></path><path id="kity_path_421" fill="none" stroke="gray"></path></g><path id="node_outline25" fill="none" stroke="none" d="M2146.5,264.5h58a5,5,0,0,1,5,5v12a5,5,0,0,1,-5,5h-58a5,5,0,0,1,-5,-5v-12a5,5,0,0,1,5,-5z"></path><g id="node_text25" fill="black"><text id="kity_text_185" text-rendering="inherit" font-size="12" dy=".8em" y="267.7000000476837" x="2151.5">隐式声明</text></g></g><g id="minder_node27"><g id="node_expander34" style="cursor: pointer;"><path id="kity_path_450" fill="white" stroke="gray" d="M1777,146.5A6,6,0,1,1,1765,146.5A6,6,0,1,1,1777,146.5"></path><path id="kity_path_451" fill="none" stroke="gray" d="M1766.5,146.5L1775.5,146.5"></path></g><path id="node_outline35" fill="rgb(238, 243, 246)" stroke="rgb(115, 161, 191)" d="M1569.5,153.5h403a3,3,0,0,1,3,3v20a3,3,0,0,1,-3,3h-403a3,3,0,0,1,-3,-3v-20a3,3,0,0,1,3,-3z" stroke-width="1"></path><g id="node_text35" fill="black"><text id="kity_text_205" text-rendering="inherit" font-size="14" dy=".8em" y="157.40000009536743" x="1586.5">复杂数据类型（现在先知道 后期每个类型的使用都是一节）</text></g></g><g id="minder_node28"><g id="node_expander26" display="none" style="cursor: pointer;"><path id="kity_path_426" fill="white" stroke="gray" d="M1606.5,225.5A6,6,0,1,1,1594.5,225.5A6,6,0,1,1,1606.5,225.5"></path><path id="kity_path_427" fill="none" stroke="gray"></path></g><path id="node_outline27" fill="none" stroke="none" d="M1611.5,214.5h72a5,5,0,0,1,5,5v12a5,5,0,0,1,-5,5h-72a5,5,0,0,1,-5,-5v-12a5,5,0,0,1,5,-5z"></path><g id="node_text27" fill="black"><text id="kity_text_189" text-rendering="inherit" font-size="12" dy=".8em" y="217.70000004768372" x="1616.5">结构 struct</text></g></g><g id="minder_node29"><g id="node_expander27" display="none" style="cursor: pointer;"><path id="kity_path_429" fill="white" stroke="gray" d="M1606.5,277.5A6,6,0,1,1,1594.5,277.5A6,6,0,1,1,1606.5,277.5"></path><path id="kity_path_430" fill="none" stroke="gray"></path></g><path id="node_outline28" fill="none" stroke="none" d="M1611.5,266.5h90a5,5,0,0,1,5,5v12a5,5,0,0,1,-5,5h-90a5,5,0,0,1,-5,-5v-12a5,5,0,0,1,5,-5z"></path><g id="node_text28" fill="black"><text id="kity_text_191" text-rendering="inherit" font-size="12" dy=".8em" y="269.7000000476837" x="1616.5">接口 interface</text></g></g><g id="minder_node30"><g id="node_expander28" display="none" style="cursor: pointer;"><path id="kity_path_432" fill="white" stroke="gray" d="M1606.5,329.5A6,6,0,1,1,1594.5,329.5A6,6,0,1,1,1606.5,329.5"></path><path id="kity_path_433" fill="none" stroke="gray"></path></g><path id="node_outline29" fill="none" stroke="none" d="M1611.5,318.5h189a5,5,0,0,1,5,5v12a5,5,0,0,1,-5,5h-189a5,5,0,0,1,-5,-5v-12a5,5,0,0,1,5,-5z"></path><g id="node_text29" fill="black"><text id="kity_text_193" text-rendering="inherit" font-size="12" dy=".8em" y="321.7000000476837" x="1616.5">数组 [数组长度]值类型{值1，值2}</text></g></g><g id="minder_node31"><g id="node_expander29" display="none" style="cursor: pointer;"><path id="kity_path_435" fill="white" stroke="gray" d="M1606.5,381.5A6,6,0,1,1,1594.5,381.5A6,6,0,1,1,1606.5,381.5"></path><path id="kity_path_436" fill="none" stroke="gray"></path></g><path id="node_outline30" fill="none" stroke="none" d="M1611.5,370.5h173a5,5,0,0,1,5,5v12a5,5,0,0,1,-5,5h-173a5,5,0,0,1,-5,-5v-12a5,5,0,0,1,5,-5z"></path><g id="node_text30" fill="black"><text id="kity_text_195" text-rendering="inherit" font-size="12" dy=".8em" y="373.7000000476837" x="1616.5">切片 slice&#xa0; []值类型{值1，值2}</text></g></g><g id="minder_node32"><g id="node_expander30" display="none" style="cursor: pointer;"><path id="kity_path_438" fill="white" stroke="gray" d="M1606.5,433.5A6,6,0,1,1,1594.5,433.5A6,6,0,1,1,1606.5,433.5"></path><path id="kity_path_439" fill="none" stroke="gray"></path></g><path id="node_outline31" fill="none" stroke="none" d="M1611.5,422.5h172a5,5,0,0,1,5,5v12a5,5,0,0,1,-5,5h-172a5,5,0,0,1,-5,-5v-12a5,5,0,0,1,5,-5z"></path><g id="node_text31" fill="black"><text id="kity_text_197" text-rendering="inherit" font-size="12" dy=".8em" y="425.7000000476837" x="1616.5">map&#xa0; [key类型]值类型{key:值}</text></g></g><g id="minder_node33"><g id="node_expander31" display="none" style="cursor: pointer;"><path id="kity_path_441" fill="white" stroke="gray" d="M1606.5,485.5A6,6,0,1,1,1594.5,485.5A6,6,0,1,1,1606.5,485.5"></path><path id="kity_path_442" fill="none" stroke="gray"></path></g><path id="node_outline32" fill="none" stroke="none" d="M1611.5,474.5h46a5,5,0,0,1,5,5v12a5,5,0,0,1,-5,5h-46a5,5,0,0,1,-5,-5v-12a5,5,0,0,1,5,-5z"></path><g id="node_text32" fill="black"><text id="kity_text_199" text-rendering="inherit" font-size="12" dy=".8em" y="477.7000000476837" x="1616.5">指针 *</text></g></g><g id="minder_node34"><g id="node_expander32" display="none" style="cursor: pointer;"><path id="kity_path_444" fill="white" stroke="gray" d="M1606.5,537.5A6,6,0,1,1,1594.5,537.5A6,6,0,1,1,1606.5,537.5"></path><path id="kity_path_445" fill="none" stroke="gray"></path></g><path id="node_outline33" fill="none" stroke="none" d="M1611.5,526.5h63a5,5,0,0,1,5,5v12a5,5,0,0,1,-5,5h-63a5,5,0,0,1,-5,-5v-12a5,5,0,0,1,5,-5z"></path><g id="node_text33" fill="black"><text id="kity_text_201" text-rendering="inherit" font-size="12" dy=".8em" y="529.7000000476837" x="1616.5">函数 func</text></g></g><g id="minder_node35"><g id="node_expander33" display="none" style="cursor: pointer;"><path id="kity_path_447" fill="white" stroke="gray" d="M1606.5,589.5A6,6,0,1,1,1594.5,589.5A6,6,0,1,1,1606.5,589.5"></path><path id="kity_path_448" fill="none" stroke="gray"></path></g><path id="node_outline34" fill="none" stroke="none" d="M1611.5,578.5h67a5,5,0,0,1,5,5v12a5,5,0,0,1,-5,5h-67a5,5,0,0,1,-5,-5v-12a5,5,0,0,1,5,-5z"></path><g id="node_text34" fill="black"><text id="kity_text_203" text-rendering="inherit" font-size="12" dy=".8em" y="581.7000000476837" x="1616.5">管道 chan</text></g></g><g id="minder_node36"><g id="node_expander50" style="cursor: pointer;"><path id="kity_path_498" fill="white" stroke="gray" d="M1248,121.5A6,6,0,1,1,1236,121.5A6,6,0,1,1,1248,121.5"></path><path id="kity_path_499" fill="none" stroke="gray" d="M1237.5,121.5L1246.5,121.5"></path></g><path id="node_outline51" fill="rgb(238, 243, 246)" stroke="rgb(115, 161, 191)" d="M1174.5,128.5h135a3,3,0,0,1,3,3v20a3,3,0,0,1,-3,3h-135a3,3,0,0,1,-3,-3v-20a3,3,0,0,1,3,-3z" stroke-width="1"></path><g id="node_text51" fill="black"><text id="kity_text_237" text-rendering="inherit" font-size="14" dy=".8em" y="132.40000009536743" x="1191.5">数据类型的转换</text></g></g><g id="minder_node37"><g id="node_expander36" style="cursor: pointer;"><path id="kity_path_456" fill="white" stroke="gray" d="M1211.5,200.5A6,6,0,1,1,1199.5,200.5A6,6,0,1,1,1211.5,200.5"></path><path id="kity_path_457" fill="none" stroke="gray" d="M1201,200.5L1210,200.5"></path></g><path id="node_outline37" fill="none" stroke="none" d="M1216.5,189.5h77a5,5,0,0,1,5,5v12a5,5,0,0,1,-5,5h-77a5,5,0,0,1,-5,-5v-12a5,5,0,0,1,5,-5z"></path><g id="node_text37" fill="black"><text id="kity_text_209" text-rendering="inherit" font-size="12" dy=".8em" y="192.70000004768372" x="1221.5">string到int&#xa0;&#xa0;</text></g></g><g id="minder_node38"><g id="node_expander35" display="none" style="cursor: pointer;"><path id="kity_path_453" fill="white" stroke="gray" d="M1251.5,252.5A6,6,0,1,1,1239.5,252.5A6,6,0,1,1,1251.5,252.5"></path><path id="kity_path_454" fill="none" stroke="gray"></path></g><path id="node_outline36" fill="none" stroke="none" d="M1256.5,241.5h172a5,5,0,0,1,5,5v12a5,5,0,0,1,-5,5h-172a5,5,0,0,1,-5,-5v-12a5,5,0,0,1,5,-5z"></path><g id="node_text36" fill="black"><text id="kity_text_207" text-rendering="inherit" font-size="12" dy=".8em" y="244.70000004768372" x="1261.5">int,err:=strconv.Atoi(string)&#xa0;&#xa0;</text></g></g><g id="minder_node39"><g id="node_expander38" style="cursor: pointer;"><path id="kity_path_462" fill="white" stroke="gray" d="M1211.5,304.5A6,6,0,1,1,1199.5,304.5A6,6,0,1,1,1211.5,304.5"></path><path id="kity_path_463" fill="none" stroke="gray" d="M1201,304.5L1210,304.5"></path></g><path id="node_outline39" fill="none" stroke="none" d="M1216.5,293.5h91a5,5,0,0,1,5,5v12a5,5,0,0,1,-5,5h-91a5,5,0,0,1,-5,-5v-12a5,5,0,0,1,5,-5z"></path><g id="node_text39" fill="black"><text id="kity_text_213" text-rendering="inherit" font-size="12" dy=".8em" y="296.7000000476837" x="1221.5">string到int64&#xa0;&#xa0;</text></g></g><g id="minder_node40"><g id="node_expander37" display="none" style="cursor: pointer;"><path id="kity_path_459" fill="white" stroke="gray" d="M1251.5,356.5A6,6,0,1,1,1239.5,356.5A6,6,0,1,1,1251.5,356.5"></path><path id="kity_path_460" fill="none" stroke="gray"></path></g><path id="node_outline38" fill="none" stroke="none" d="M1256.5,345.5h259a5,5,0,0,1,5,5v12a5,5,0,0,1,-5,5h-259a5,5,0,0,1,-5,-5v-12a5,5,0,0,1,5,-5z"></path><g id="node_text38" fill="black"><text id="kity_text_211" text-rendering="inherit" font-size="12" dy=".8em" y="348.7000000476837" x="1261.5">int64, err := strconv.ParseInt(string, 10, 64)&#xa0;&#xa0;</text></g></g><g id="minder_node41"><g id="node_expander40" style="cursor: pointer;"><path id="kity_path_468" fill="white" stroke="gray" d="M1218.5,411.5A6,6,0,1,1,1206.5,411.5A6,6,0,1,1,1218.5,411.5"></path><path id="kity_path_469" fill="none" stroke="gray" d="M1208,411.5L1217,411.5"></path></g><path id="node_outline41" fill="none" stroke="none" d="M1223.5,400.5h77a5,5,0,0,1,5,5v12a5,5,0,0,1,-5,5h-77a5,5,0,0,1,-5,-5v-12a5,5,0,0,1,5,-5z"></path><g id="node_text41" fill="black"><text id="kity_text_217" text-rendering="inherit" font-size="12" dy=".8em" y="403.7000000476837" x="1228.5">int到string&#xa0;&#xa0; </text></g></g><g id="minder_node42"><g id="node_expander39" display="none" style="cursor: pointer;"><path id="kity_path_465" fill="white" stroke="gray" d="M1258.5,463.5A6,6,0,1,1,1246.5,463.5A6,6,0,1,1,1258.5,463.5"></path><path id="kity_path_466" fill="none" stroke="gray"></path></g><path id="node_outline40" fill="none" stroke="none" d="M1263.5,452.5h147a5,5,0,0,1,5,5v12a5,5,0,0,1,-5,5h-147a5,5,0,0,1,-5,-5v-12a5,5,0,0,1,5,-5z"></path><g id="node_text40" fill="black"><text id="kity_text_215" text-rendering="inherit" font-size="12" dy=".8em" y="455.7000000476837" x="1268.5">string:=strconv.Itoa(int)&#xa0;</text></g></g><g id="minder_node43"><g id="node_expander42" style="cursor: pointer;"><path id="kity_path_474" fill="white" stroke="gray" d="M1213.5,523.5A6,6,0,1,1,1201.5,523.5A6,6,0,1,1,1213.5,523.5"></path><path id="kity_path_475" fill="none" stroke="gray" d="M1203,523.5L1212,523.5"></path></g><path id="node_outline43" fill="none" stroke="none" d="M1218.5,512.5h91a5,5,0,0,1,5,5v12a5,5,0,0,1,-5,5h-91a5,5,0,0,1,-5,-5v-12a5,5,0,0,1,5,-5z"></path><g id="node_text43" fill="black"><text id="kity_text_221" text-rendering="inherit" font-size="12" dy=".8em" y="515.7000000476837" x="1223.5">int64到string&#xa0;&#xa0;  </text></g></g><g id="minder_node44"><g id="node_expander41" display="none" style="cursor: pointer;"><path id="kity_path_471" fill="white" stroke="gray" d="M1253.5,575.5A6,6,0,1,1,1241.5,575.5A6,6,0,1,1,1253.5,575.5"></path><path id="kity_path_472" fill="none" stroke="gray"></path></g><path id="node_outline42" fill="none" stroke="none" d="M1258.5,564.5h209a5,5,0,0,1,5,5v12a5,5,0,0,1,-5,5h-209a5,5,0,0,1,-5,-5v-12a5,5,0,0,1,5,-5z"></path><g id="node_text42" fill="black"><text id="kity_text_219" text-rendering="inherit" font-size="12" dy=".8em" y="567.7000000476837" x="1263.5">string:=strconv.FormatInt(int64,10)</text></g></g><g id="minder_node45"><g id="node_expander45" style="cursor: pointer;"><path id="kity_path_483" fill="white" stroke="gray" d="M1210.5,637.5A6,6,0,1,1,1198.5,637.5A6,6,0,1,1,1210.5,637.5"></path><path id="kity_path_484" fill="none" stroke="gray" d="M1200,637.5L1209,637.5"></path></g><path id="node_outline46" fill="none" stroke="none" d="M1215.5,626.5h145a5,5,0,0,1,5,5v12a5,5,0,0,1,-5,5h-145a5,5,0,0,1,-5,-5v-12a5,5,0,0,1,5,-5z"></path><g id="node_text46" fill="black"><text id="kity_text_227" text-rendering="inherit" font-size="12" dy=".8em" y="629.7000000476837" x="1220.5">字符串到float32/float64</text></g></g><g id="minder_node46"><g id="node_expander43" display="none" style="cursor: pointer;"><path id="kity_path_477" fill="white" stroke="gray" d="M1250.5,689.5A6,6,0,1,1,1238.5,689.5A6,6,0,1,1,1250.5,689.5"></path><path id="kity_path_478" fill="none" stroke="gray"></path></g><path id="node_outline44" fill="none" stroke="none" d="M1255.5,678.5h210a5,5,0,0,1,5,5v12a5,5,0,0,1,-5,5h-210a5,5,0,0,1,-5,-5v-12a5,5,0,0,1,5,-5z"></path><g id="node_text44" fill="black"><text id="kity_text_223" text-rendering="inherit" font-size="12" dy=".8em" y="681.7000000476837" x="1260.5">float32, err = ParseFloat(string, 32)</text></g></g><g id="minder_node47"><g id="node_expander44" display="none" style="cursor: pointer;"><path id="kity_path_480" fill="white" stroke="gray" d="M1250.5,741.5A6,6,0,1,1,1238.5,741.5A6,6,0,1,1,1250.5,741.5"></path><path id="kity_path_481" fill="none" stroke="gray"></path></g><path id="node_outline45" fill="none" stroke="none" d="M1255.5,730.5h203a5,5,0,0,1,5,5v12a5,5,0,0,1,-5,5h-203a5,5,0,0,1,-5,-5v-12a5,5,0,0,1,5,-5z"></path><g id="node_text45" fill="black"><text id="kity_text_225" text-rendering="inherit" font-size="12" dy=".8em" y="733.7000000476837" x="1260.5">float64,err = ParseFloat(string,64)</text></g></g><g id="minder_node48"><g id="node_expander47" style="cursor: pointer;"><path id="kity_path_489" fill="white" stroke="gray" d="M1228.5,825.5A6,6,0,1,1,1216.5,825.5A6,6,0,1,1,1228.5,825.5"></path><path id="kity_path_490" fill="none" stroke="gray" d="M1218,825.5L1227,825.5"></path></g><path id="node_outline48" fill="none" stroke="none" d="M1233.5,814.5h67a5,5,0,0,1,5,5v12a5,5,0,0,1,-5,5h-67a5,5,0,0,1,-5,-5v-12a5,5,0,0,1,5,-5z"></path><g id="node_text48" fill="black"><text id="kity_text_231" text-rendering="inherit" font-size="12" dy=".8em" y="817.7000000476837" x="1238.5">int64转int</text></g></g><g id="minder_node49"><g id="node_expander46" display="none" style="cursor: pointer;"><path id="kity_path_486" fill="white" stroke="gray" d="M1268.5,877.5A6,6,0,1,1,1256.5,877.5A6,6,0,1,1,1268.5,877.5"></path><path id="kity_path_487" fill="none" stroke="gray"></path></g><path id="node_outline47" fill="none" stroke="none" d="M1273.5,866.5h93a5,5,0,0,1,5,5v12a5,5,0,0,1,-5,5h-93a5,5,0,0,1,-5,-5v-12a5,5,0,0,1,5,-5z"></path><g id="node_text47" fill="black"><text id="kity_text_229" text-rendering="inherit" font-size="12" dy=".8em" y="869.7000000476837" x="1278.5">int:=int(int64)&#xa0;</text></g></g><g id="minder_node50"><g id="node_expander49" style="cursor: pointer;"><path id="kity_path_495" fill="white" stroke="gray" d="M1234.5,941.5A6,6,0,1,1,1222.5,941.5A6,6,0,1,1,1234.5,941.5"></path><path id="kity_path_496" fill="none" stroke="gray" d="M1224,941.5L1233,941.5"></path></g><path id="node_outline50" fill="none" stroke="none" d="M1239.5,930.5h67a5,5,0,0,1,5,5v12a5,5,0,0,1,-5,5h-67a5,5,0,0,1,-5,-5v-12a5,5,0,0,1,5,-5z"></path><g id="node_text50" fill="black"><text id="kity_text_235" text-rendering="inherit" font-size="12" dy=".8em" y="933.7000000476837" x="1244.5">int转int64</text></g></g><g id="minder_node51"><g id="node_expander48" display="none" style="cursor: pointer;"><path id="kity_path_492" fill="white" stroke="gray" d="M1274.5,993.5A6,6,0,1,1,1262.5,993.5A6,6,0,1,1,1274.5,993.5"></path><path id="kity_path_493" fill="none" stroke="gray"></path></g><path id="node_outline49" fill="none" stroke="none" d="M1279.5,982.5h103a5,5,0,0,1,5,5v12a5,5,0,0,1,-5,5h-103a5,5,0,0,1,-5,-5v-12a5,5,0,0,1,5,-5z"></path><g id="node_text49" fill="black"><text id="kity_text_233" text-rendering="inherit" font-size="12" dy=".8em" y="985.7000000476837" x="1284.5">int64:=int64(int)</text></g></g><g id="minder_node52"><g id="node_expander52" style="cursor: pointer;"><path id="kity_path_504" fill="white" stroke="gray" d="M929,126.5A6,6,0,1,1,917,126.5A6,6,0,1,1,929,126.5"></path><path id="kity_path_505" fill="none" stroke="gray" d="M918.5,126.5L927.5,126.5"></path></g><path id="node_outline53" fill="rgb(238, 243, 246)" stroke="rgb(115, 161, 191)" d="M862.5,133.5h121a3,3,0,0,1,3,3v20a3,3,0,0,1,-3,3h-121a3,3,0,0,1,-3,-3v-20a3,3,0,0,1,3,-3z" stroke-width="1"></path><g id="node_text53" fill="black"><text id="kity_text_241" text-rendering="inherit" font-size="14" dy=".8em" y="137.40000009536743" x="879.5">数据类型判断</text></g></g><g id="minder_node53"><g id="node_expander51" display="none" style="cursor: pointer;"><path id="kity_path_501" fill="white" stroke="gray" d="M899.5,205.5A6,6,0,1,1,887.5,205.5A6,6,0,1,1,899.5,205.5"></path><path id="kity_path_502" fill="none" stroke="gray"></path></g><path id="node_outline52" fill="none" stroke="none" d="M904.5,194.5h159a5,5,0,0,1,5,5v12a5,5,0,0,1,-5,5h-159a5,5,0,0,1,-5,-5v-12a5,5,0,0,1,5,-5z"></path><g id="node_text52" fill="black"><text id="kity_text_239" text-rendering="inherit" font-size="12" dy=".8em" y="197.70000004768372" x="909.5">fmt.Sprintf("%T",变量或值)</text></g></g><g id="minder_node54"><g id="node_expander54" style="cursor: pointer;"><path id="kity_path_510" fill="white" stroke="gray" d="M75.5,117.5A6,6,0,1,1,63.5,117.5A6,6,0,1,1,75.5,117.5"></path><path id="kity_path_511" fill="none" stroke="gray" d="M65,117.5L74,117.5"></path></g><path id="node_outline55" fill="rgb(238, 243, 246)" stroke="rgb(115, 161, 191)" d="M23.5,124.5h92a3,3,0,0,1,3,3v20a3,3,0,0,1,-3,3h-92a3,3,0,0,1,-3,-3v-20a3,3,0,0,1,3,-3z" stroke-width="1"></path><g id="node_text55" fill="black"><text id="kity_text_270" text-rendering="inherit" font-size="14" dy=".8em" y="128.40000009536743" x="40.5">取值范围</text></g></g><g id="minder_node55"><g id="node_expander53" display="none" style="cursor: pointer;"><path id="kity_path_507" fill="white" stroke="gray" d="M60.5,421.5A6,6,0,1,1,48.5,421.5A6,6,0,1,1,60.5,421.5"></path><path id="kity_path_508" fill="none" stroke="gray"></path></g><path id="node_outline54" fill="none" stroke="none" d="M65.5,185.5h296a5,5,0,0,1,5,5v462a5,5,0,0,1,-5,5h-296a5,5,0,0,1,-5,-5v-462a5,5,0,0,1,5,-5z"></path><g id="node_text54" fill="black"><text id="kity_text_243" text-rendering="inherit" font-size="12" dy=".8em" y="188.70000004768372" x="70.5">具体类型</text><text id="kity_text_244" text-rendering="inherit" font-size="12" dy=".8em" y="206.70000004768372" x="70.5">取值范围</text><text id="kity_text_245" text-rendering="inherit" font-size="12" dy=".8em" y="224.70000004768372" x="70.5"></text><text id="kity_text_246" text-rendering="inherit" font-size="12" dy=".8em" y="242.70000004768372" x="70.5">int8</text><text id="kity_text_247" text-rendering="inherit" font-size="12" dy=".8em" y="260.7000000476837" x="70.5">-128到127</text><text id="kity_text_248" text-rendering="inherit" font-size="12" dy=".8em" y="278.7000000476837" x="70.5"></text><text id="kity_text_249" text-rendering="inherit" font-size="12" dy=".8em" y="296.7000000476837" x="70.5">uint8</text><text id="kity_text_250" text-rendering="inherit" font-size="12" dy=".8em" y="314.7000000476837" x="70.5">0到255</text><text id="kity_text_251" text-rendering="inherit" font-size="12" dy=".8em" y="332.7000000476837" x="70.5"></text><text id="kity_text_252" text-rendering="inherit" font-size="12" dy=".8em" y="350.7000000476837" x="70.5">int16</text><text id="kity_text_253" text-rendering="inherit" font-size="12" dy=".8em" y="368.7000000476837" x="70.5">-32768到32767</text><text id="kity_text_254" text-rendering="inherit" font-size="12" dy=".8em" y="386.7000000476837" x="70.5"></text><text id="kity_text_255" text-rendering="inherit" font-size="12" dy=".8em" y="404.7000000476837" x="70.5">uint16</text><text id="kity_text_256" text-rendering="inherit" font-size="12" dy=".8em" y="422.7000000476837" x="70.5">0到65535</text><text id="kity_text_257" text-rendering="inherit" font-size="12" dy=".8em" y="440.7000000476837" x="70.5"></text><text id="kity_text_258" text-rendering="inherit" font-size="12" dy=".8em" y="458.7000000476837" x="70.5">int32</text><text id="kity_text_259" text-rendering="inherit" font-size="12" dy=".8em" y="476.7000000476837" x="70.5">-2147483648到2147483647</text><text id="kity_text_260" text-rendering="inherit" font-size="12" dy=".8em" y="494.7000000476837" x="70.5"></text><text id="kity_text_261" text-rendering="inherit" font-size="12" dy=".8em" y="512.7000000476837" x="70.5">uint32</text><text id="kity_text_262" text-rendering="inherit" font-size="12" dy=".8em" y="530.7000000476837" x="70.5">0到4294967295</text><text id="kity_text_263" text-rendering="inherit" font-size="12" dy=".8em" y="548.7000000476837" x="70.5"></text><text id="kity_text_264" text-rendering="inherit" font-size="12" dy=".8em" y="566.7000000476837" x="70.5">int64</text><text id="kity_text_265" text-rendering="inherit" font-size="12" dy=".8em" y="584.7000000476837" x="70.5">-9223372036854775808到9223372036854775807</text><text id="kity_text_266" text-rendering="inherit" font-size="12" dy=".8em" y="602.7000000476837" x="70.5"></text><text id="kity_text_267" text-rendering="inherit" font-size="12" dy=".8em" y="620.7000000476837" x="70.5">uint64</text><text id="kity_text_268" text-rendering="inherit" font-size="12" dy=".8em" y="638.7000000476837" x="70.5">0到18446744073709551615</text></g></g></g></g></svg>