<svg id="kity_svg_6" xmlns="http://www.w3.org/2000/svg" xmlns:xlink="http://www.w3.org/1999/xlink" version="1.1" width="4016" height="417" style="background: rgb(251, 251, 251); visibility: visible;" viewBox="0 0 4016 417"><defs id="kity_defs_7"><linearGradient id="kity_linearGradient_17" x1="0" y1="0" x2="0" y2="1"><stop id="kity_stop_18" offset="0" stop-color="rgb(255, 255, 255)"></stop><stop id="kity_stop_19" offset="1" stop-color="rgb(204, 204, 204)"></stop></linearGradient><marker id="kity_marker_2" orient="auto" refX="6" refY="0" viewBox="-7 -7 14 14" markerWidth="7" markerHeight="7" markerUnits="userSpaceOnUse"><path id="kity_path_3" fill="rgb(115, 161, 191)" stroke="none" d="M6,0A6,6,0,1,1,-6,0A6,6,0,1,1,6,0"></path></marker></defs><g id="kity_g_8"><g id="minder1" text-rendering="optimize-speed"><g id="minder_connect_group1"><path id="kity_path_31" fill="none" stroke="rgb(115, 161, 191)" stroke-width="1" d="M2793.5,60.5v30h-1136V138.5"></path><path id="kity_path_33" fill="none" stroke="rgb(115, 161, 191)" stroke-width="1" d="M1657.5,164.5v20h-523.5V292.5"></path><path id="kity_path_35" fill="none" stroke="rgb(115, 161, 191)" stroke-width="1" d="M1657.5,164.5v20h-198.5V279.5"></path><path id="kity_path_37" fill="none" stroke="rgb(115, 161, 191)" stroke-width="1" d="M1657.5,164.5v20h132V272.5"></path><path id="kity_path_39" fill="none" stroke="rgb(115, 161, 191)" stroke-width="1" d="M1657.5,164.5v20h562V252.5"></path><path id="kity_path_41" fill="none" stroke="rgb(115, 161, 191)" stroke-width="1" d="M2793.5,60.5v30h31.5V133.5"></path><path id="kity_path_43" fill="none" stroke="rgb(115, 161, 191)" stroke-width="1" d="M2824.5,159.5v20h0V285.5"></path><path id="kity_path_45" fill="none" stroke="rgb(115, 161, 191)" stroke-width="1" d="M2793.5,60.5v30h-2430V175.5"></path><path id="kity_path_47" fill="none" stroke="rgb(115, 161, 191)" stroke-width="1" d="M363.5,201.5v20h-206.5V265.5"></path><path id="kity_path_49" fill="none" stroke="rgb(115, 161, 191)" stroke-width="1" d="M156.5,287.5v15h0.5V317.5"></path><path id="kity_path_51" fill="none" stroke="rgb(115, 161, 191)" stroke-width="1" d="M363.5,201.5v20h146V235.5"></path><path id="kity_path_53" fill="none" stroke="rgb(115, 161, 191)" stroke-width="1" d="M2793.5,60.5v30h622.5V162.5"></path><path id="kity_path_55" fill="none" stroke="rgb(115, 161, 191)" stroke-width="1" d="M3415.5,188.5v20h-69V223.5"></path><path id="kity_path_57" fill="none" stroke="rgb(115, 161, 191)" stroke-width="1" d="M3415.5,188.5v20h70.5V223.5"></path><path id="kity_path_59" fill="none" stroke="rgb(115, 161, 191)" stroke-width="1" d="M3486.5,245.5v15h0V275.5"></path><path id="kity_path_61" fill="none" stroke="rgb(115, 161, 191)" stroke-width="1" d="M2793.5,60.5v30h1064V164.5"></path><path id="kity_path_63" fill="none" stroke="rgb(115, 161, 191)" stroke-width="1" d="M2793.5,60.5v30h-1909V181.5"></path><path id="kity_path_65" fill="none" stroke="rgb(115, 161, 191)" stroke-width="1" d="M884.5,207.5v20h0V242.5"></path><path id="kity_path_67" fill="none" stroke="rgb(115, 161, 191)" stroke-width="1" d="M884.5,264.5v15h0.5V294.5"></path></g><g id="minder_node1"><path id="node_outline1" fill="rgb(115, 161, 191)" stroke="rgb(57, 80, 96)" d="M2723.5,20.5h139a5,5,0,0,1,5,5v30a5,5,0,0,1,-5,5h-139a5,5,0,0,1,-5,-5v-30a5,5,0,0,1,5,-5z" stroke-width="3"></path><g id="node_text1" fill="white"><text id="kity_text_22" text-rendering="inherit" font-size="16" dy=".8em" y="30.09999990463257" x="2742.5">go的基本知识</text></g></g><g id="kity_g_12"><path id="kity_path_13" fill="none" stroke="none" d="M2742.5,40.5h0v0h0z"></path></g><g id="kity_g_14"><path id="kity_path_15" fill="none" stroke="none" d="M2742.5,40.5h0v0h0z"></path><path id="kity_path_16" fill="none" stroke="none"></path></g><g id="minder_node2"><g id="node_expander5" style="cursor: pointer;"><path id="kity_path_153" fill="white" stroke="gray" d="M1663,131.5A6,6,0,1,1,1651,131.5A6,6,0,1,1,1663,131.5"></path><path id="kity_path_154" fill="none" stroke="gray" d="M1652.5,131.5L1661.5,131.5"></path></g><path id="node_outline6" fill="rgb(238, 243, 246)" stroke="rgb(115, 161, 191)" d="M1534.5,138.5h245a3,3,0,0,1,3,3v20a3,3,0,0,1,-3,3h-245a3,3,0,0,1,-3,-3v-20a3,3,0,0,1,3,-3z" stroke-width="1"></path><g id="node_text6" fill="black"><text id="kity_text_87" text-rendering="inherit" font-size="14" dy=".8em" y="142.40000009536743" x="1551.5">关键字（不能够作为变量名的词）</text></g></g><g id="minder_node3"><g id="node_expander1" display="none" style="cursor: pointer;"><path id="kity_path_141" fill="white" stroke="gray" d="M1139.5,286.5A6,6,0,1,1,1127.5,286.5A6,6,0,1,1,1139.5,286.5"></path><path id="kity_path_142" fill="none" stroke="gray"></path></g><path id="node_outline2" fill="none" stroke="none" d="M1082.5,292.5h102a5,5,0,0,1,5,5v30a5,5,0,0,1,-5,5h-102a5,5,0,0,1,-5,-5v-30a5,5,0,0,1,5,-5z"></path><g id="node_text2" fill="black"><text id="kity_text_69" text-rendering="inherit" font-size="12" dy=".8em" y="295.7000000476837" x="1087.5">包管理（2个）：</text><text id="kity_text_70" text-rendering="inherit" font-size="12" dy=".8em" y="313.7000000476837" x="1087.5">import	package</text></g></g><g id="minder_node4"><g id="node_expander2" display="none" style="cursor: pointer;"><path id="kity_path_144" fill="white" stroke="gray" d="M1464.5,273.5A6,6,0,1,1,1452.5,273.5A6,6,0,1,1,1464.5,273.5"></path><path id="kity_path_145" fill="none" stroke="gray"></path></g><path id="node_outline3" fill="none" stroke="none" d="M1371.5,279.5h174a5,5,0,0,1,5,5v48a5,5,0,0,1,-5,5h-174a5,5,0,0,1,-5,-5v-48a5,5,0,0,1,5,-5z"></path><g id="node_text3" fill="black"><text id="kity_text_72" text-rendering="inherit" font-size="12" dy=".8em" y="282.7000000476837" x="1376.5">程序实体声明与定义（8个）：</text><text id="kity_text_73" text-rendering="inherit" font-size="12" dy=".8em" y="300.7000000476837" x="1376.5">chan	const	func	interface</text><text id="kity_text_74" text-rendering="inherit" font-size="12" dy=".8em" y="318.7000000476837" x="1376.5">&#xa0;map	struct	type	var</text></g></g><g id="minder_node5"><g id="node_expander3" display="none" style="cursor: pointer;"><path id="kity_path_147" fill="white" stroke="gray" d="M1795,266.5A6,6,0,1,1,1783,266.5A6,6,0,1,1,1795,266.5"></path><path id="kity_path_148" fill="none" stroke="gray"></path></g><path id="node_outline4" fill="none" stroke="none" d="M1687.5,272.5h203a5,5,0,0,1,5,5v66a5,5,0,0,1,-5,5h-203a5,5,0,0,1,-5,-5v-66a5,5,0,0,1,5,-5z"></path><g id="node_text4" fill="black"><text id="kity_text_76" text-rendering="inherit" font-size="12" dy=".8em" y="275.7000000476837" x="1692.5">程序流程控制（15个）：</text><text id="kity_text_77" text-rendering="inherit" font-size="12" dy=".8em" y="293.7000000476837" x="1692.5">break	case	continue	default	</text><text id="kity_text_78" text-rendering="inherit" font-size="12" dy=".8em" y="311.7000000476837" x="1692.5">defer	else	fallthrough for	go</text><text id="kity_text_79" text-rendering="inherit" font-size="12" dy=".8em" y="329.7000000476837" x="1692.5">&#xa0;goto	if	range	return	select	switch</text></g></g><g id="minder_node6"><g id="node_expander4" display="none" style="cursor: pointer;"><path id="kity_path_150" fill="white" stroke="gray" d="M2225,246.5A6,6,0,1,1,2213,246.5A6,6,0,1,1,2225,246.5"></path><path id="kity_path_151" fill="none" stroke="gray"></path></g><path id="node_outline5" fill="none" stroke="none" d="M2018.5,252.5h401a5,5,0,0,1,5,5v84a5,5,0,0,1,-5,5h-401a5,5,0,0,1,-5,-5v-84a5,5,0,0,1,5,-5z"></path><g id="node_text5" fill="black"><text id="kity_text_81" text-rendering="inherit" font-size="12" dy=".8em" y="255.70000004768372" x="2023.5">36 个预定义标识符：</text><text id="kity_text_82" text-rendering="inherit" font-size="12" dy=".8em" y="273.7000000476837" x="2023.5">append bool byte cap close complex	complex64	complex128	uint16</text><text id="kity_text_83" text-rendering="inherit" font-size="12" dy=".8em" y="291.7000000476837" x="2023.5">copy	false	float32	float64	imag	int	int8	int16	uint32</text><text id="kity_text_84" text-rendering="inherit" font-size="12" dy=".8em" y="309.7000000476837" x="2023.5">int32	int64	iota	len	make	new	nil	panic	uint64</text><text id="kity_text_85" text-rendering="inherit" font-size="12" dy=".8em" y="327.7000000476837" x="2023.5">print	println	real	recover	string	true	uint	uint8	uintptr</text></g></g><g id="minder_node7"><g id="node_expander7" style="cursor: pointer;"><path id="kity_path_159" fill="white" stroke="gray" d="M2830.5,126.5A6,6,0,1,1,2818.5,126.5A6,6,0,1,1,2830.5,126.5"></path><path id="kity_path_160" fill="none" stroke="gray" d="M2820,126.5L2829,126.5"></path></g><path id="node_outline8" fill="rgb(238, 243, 246)" stroke="rgb(115, 161, 191)" d="M2792.5,133.5h64a3,3,0,0,1,3,3v20a3,3,0,0,1,-3,3h-64a3,3,0,0,1,-3,-3v-20a3,3,0,0,1,3,-3z" stroke-width="1"></path><g id="node_text8" fill="black"><text id="kity_text_96" text-rendering="inherit" font-size="14" dy=".8em" y="137.40000009536743" x="2809.5">注释</text></g></g><g id="minder_node8"><g id="node_expander6" display="none" style="cursor: pointer;"><path id="kity_path_156" fill="white" stroke="gray" d="M2830.5,279.5A6,6,0,1,1,2818.5,279.5A6,6,0,1,1,2830.5,279.5"></path><path id="kity_path_157" fill="none" stroke="gray"></path></g><path id="node_outline7" fill="none" stroke="none" d="M2725.5,285.5h198a5,5,0,0,1,5,5v102a5,5,0,0,1,-5,5h-198a5,5,0,0,1,-5,-5v-102a5,5,0,0,1,5,-5z"></path><g id="node_text7" fill="black"><text id="kity_text_89" text-rendering="inherit" font-size="12" dy=".8em" y="288.7000000476837" x="2730.5">// 单行注释</text><text id="kity_text_90" text-rendering="inherit" font-size="12" dy=".8em" y="306.7000000476837" x="2730.5"></text><text id="kity_text_91" text-rendering="inherit" font-size="12" dy=".8em" y="324.7000000476837" x="2730.5">/* 范围注释 */</text><text id="kity_text_92" text-rendering="inherit" font-size="12" dy=".8em" y="342.7000000476837" x="2730.5"></text><text id="kity_text_93" text-rendering="inherit" font-size="12" dy=".8em" y="360.7000000476837" x="2730.5"></text><text id="kity_text_94" text-rendering="inherit" font-size="12" dy=".8em" y="378.7000000476837" x="2730.5">注释掉的代码 人能看到 系统看不到</text></g></g><g id="minder_node9"><g id="node_expander11" style="cursor: pointer;"><path id="kity_path_171" fill="white" stroke="gray" d="M369,168.5A6,6,0,1,1,357,168.5A6,6,0,1,1,369,168.5"></path><path id="kity_path_172" fill="none" stroke="gray" d="M358.5,168.5L367.5,168.5"></path></g><path id="node_outline12" fill="rgb(238, 243, 246)" stroke="rgb(115, 161, 191)" d="M317.5,175.5h91a3,3,0,0,1,3,3v20a3,3,0,0,1,-3,3h-91a3,3,0,0,1,-3,-3v-20a3,3,0,0,1,3,-3z" stroke-width="1"></path><g id="node_text12" fill="black"><text id="kity_text_104" text-rendering="inherit" font-size="14" dy=".8em" y="179.40000009536743" x="334.5">项目结构</text></g></g><g id="minder_node10"><g id="node_expander9" style="cursor: pointer;"><path id="kity_path_165" fill="white" stroke="gray" d="M162.5,259.5A6,6,0,1,1,150.5,259.5A6,6,0,1,1,162.5,259.5"></path><path id="kity_path_166" fill="none" stroke="gray" d="M152,259.5L161,259.5"></path></g><path id="node_outline10" fill="none" stroke="none" d="M78.5,265.5h156a5,5,0,0,1,5,5v12a5,5,0,0,1,-5,5h-156a5,5,0,0,1,-5,-5v-12a5,5,0,0,1,5,-5z"></path><g id="node_text10" fill="black"><text id="kity_text_100" text-rendering="inherit" font-size="12" dy=".8em" y="268.7000000476837" x="83.5">官方建议结构&#xa0; pgk&#xa0; bin src</text></g></g><g id="minder_node11"><g id="node_expander8" display="none" style="cursor: pointer;"><path id="kity_path_162" fill="white" stroke="gray" d="M163,311.5A6,6,0,1,1,151,311.5A6,6,0,1,1,163,311.5"></path><path id="kity_path_163" fill="none" stroke="gray"></path></g><path id="node_outline9" fill="none" stroke="none" d="M25.5,317.5h263a5,5,0,0,1,5,5v12a5,5,0,0,1,-5,5h-263a5,5,0,0,1,-5,-5v-12a5,5,0,0,1,5,-5z"></path><g id="node_text9" fill="black"><text id="kity_text_98" text-rendering="inherit" font-size="12" dy=".8em" y="320.7000000476837" x="30.5">一个go项目必须有一个main包 一个 main 函数</text></g></g><g id="minder_node12"><g id="node_expander10" display="none" style="cursor: pointer;"><path id="kity_path_168" fill="white" stroke="gray" d="M515,229.5A6,6,0,1,1,503,229.5A6,6,0,1,1,515,229.5"></path><path id="kity_path_169" fill="none" stroke="gray"></path></g><path id="node_outline11" fill="none" stroke="none" d="M374.5,235.5h269a5,5,0,0,1,5,5v12a5,5,0,0,1,-5,5h-269a5,5,0,0,1,-5,-5v-12a5,5,0,0,1,5,-5z"></path><g id="node_text11" fill="black"><text id="kity_text_102" text-rendering="inherit" font-size="12" dy=".8em" y="238.70000004768372" x="379.5">1.11版本以后 可以随意自己的结构 建议遵循官方</text></g></g><g id="minder_node13"><g id="node_expander15" style="cursor: pointer;"><path id="kity_path_183" fill="white" stroke="gray" d="M3421.5,155.5A6,6,0,1,1,3409.5,155.5A6,6,0,1,1,3421.5,155.5"></path><path id="kity_path_184" fill="none" stroke="gray" d="M3411,155.5L3420,155.5"></path></g><path id="node_outline16" fill="rgb(238, 243, 246)" stroke="rgb(115, 161, 191)" d="M3390.5,162.5h50a3,3,0,0,1,3,3v20a3,3,0,0,1,-3,3h-50a3,3,0,0,1,-3,-3v-20a3,3,0,0,1,3,-3z" stroke-width="1"></path><g id="node_text16" fill="black"><text id="kity_text_112" text-rendering="inherit" font-size="14" dy=".8em" y="166.40000009536743" x="3407.5">包</text></g></g><g id="minder_node14"><g id="node_expander12" display="none" style="cursor: pointer;"><path id="kity_path_174" fill="white" stroke="gray" d="M3352.5,217.5A6,6,0,1,1,3340.5,217.5A6,6,0,1,1,3352.5,217.5"></path><path id="kity_path_175" fill="none" stroke="gray"></path></g><path id="node_outline13" fill="none" stroke="none" d="M3316.5,223.5h60a5,5,0,0,1,5,5v12a5,5,0,0,1,-5,5h-60a5,5,0,0,1,-5,-5v-12a5,5,0,0,1,5,-5z"></path><g id="node_text13" fill="black"><text id="kity_text_106" text-rendering="inherit" font-size="12" dy=".8em" y="226.70000004768372" x="3321.5">什么叫包</text></g></g><g id="minder_node15"><g id="node_expander14" style="cursor: pointer;"><path id="kity_path_180" fill="white" stroke="gray" d="M3492,217.5A6,6,0,1,1,3480,217.5A6,6,0,1,1,3492,217.5"></path><path id="kity_path_181" fill="none" stroke="gray" d="M3481.5,217.5L3490.5,217.5"></path></g><path id="node_outline15" fill="none" stroke="none" d="M3456.5,223.5h59a5,5,0,0,1,5,5v12a5,5,0,0,1,-5,5h-59a5,5,0,0,1,-5,-5v-12a5,5,0,0,1,5,-5z"></path><g id="node_text15" fill="black"><text id="kity_text_110" text-rendering="inherit" font-size="12" dy=".8em" y="226.70000004768372" x="3461.5">怎么引用</text></g></g><g id="minder_node16"><g id="node_expander13" display="none" style="cursor: pointer;"><path id="kity_path_177" fill="white" stroke="gray" d="M3492,269.5A6,6,0,1,1,3480,269.5A6,6,0,1,1,3492,269.5"></path><path id="kity_path_178" fill="none" stroke="gray"></path></g><path id="node_outline14" fill="none" stroke="none" d="M3426.5,275.5h119a5,5,0,0,1,5,5v12a5,5,0,0,1,-5,5h-119a5,5,0,0,1,-5,-5v-12a5,5,0,0,1,5,-5z"></path><g id="node_text14" fill="black"><text id="kity_text_108" text-rendering="inherit" font-size="12" dy=".8em" y="278.7000000476837" x="3431.5">别名引用，省略引用</text></g></g><g id="minder_node17"><g id="node_expander16" display="none" style="cursor: pointer;"><path id="kity_path_186" fill="white" stroke="gray" d="M3863,157.5A6,6,0,1,1,3851,157.5A6,6,0,1,1,3863,157.5"></path><path id="kity_path_187" fill="none" stroke="gray"></path></g><path id="node_outline17" fill="rgb(238, 243, 246)" stroke="rgb(115, 161, 191)" d="M3720.5,164.5h273a3,3,0,0,1,3,3v20a3,3,0,0,1,-3,3h-273a3,3,0,0,1,-3,-3v-20a3,3,0,0,1,3,-3z" stroke-width="1"></path><g id="node_text17" fill="black"><text id="kity_text_114" text-rendering="inherit" font-size="14" dy=".8em" y="168.40000009536743" x="3737.5">共有与私有（根据首字母大小写划分）</text></g></g><g id="minder_node18"><g id="node_expander19" style="cursor: pointer;"><path id="kity_path_195" fill="white" stroke="gray" d="M890,174.5A6,6,0,1,1,878,174.5A6,6,0,1,1,890,174.5"></path><path id="kity_path_196" fill="none" stroke="gray" d="M879.5,174.5L888.5,174.5"></path></g><path id="node_outline20" fill="rgb(238, 243, 246)" stroke="rgb(115, 161, 191)" d="M784.5,181.5h199a3,3,0,0,1,3,3v20a3,3,0,0,1,-3,3h-199a3,3,0,0,1,-3,-3v-20a3,3,0,0,1,3,-3z" stroke-width="1"></path><g id="node_text20" fill="black"><text id="kity_text_120" text-rendering="inherit" font-size="14" dy=".8em" y="185.40000009536743" x="801.5">声明变量（以string为例）</text></g></g><g id="minder_node19"><g id="node_expander18" style="cursor: pointer;"><path id="kity_path_192" fill="white" stroke="gray" d="M890,236.5A6,6,0,1,1,878,236.5A6,6,0,1,1,890,236.5"></path><path id="kity_path_193" fill="none" stroke="gray" d="M879.5,236.5L888.5,236.5"></path></g><path id="node_outline19" fill="none" stroke="none" d="M728.5,242.5h311a5,5,0,0,1,5,5v12a5,5,0,0,1,-5,5h-311a5,5,0,0,1,-5,-5v-12a5,5,0,0,1,5,-5z"></path><g id="node_text19" fill="black"><text id="kity_text_118" text-rendering="inherit" font-size="12" dy=".8em" y="245.70000004768372" x="733.5">var (关键字) A(变量名) string(类型) = "我是字符串类型"</text></g></g><g id="minder_node20"><g id="node_expander17" display="none" style="cursor: pointer;"><path id="kity_path_189" fill="white" stroke="gray" d="M890.5,288.5A6,6,0,1,1,878.5,288.5A6,6,0,1,1,890.5,288.5"></path><path id="kity_path_190" fill="none" stroke="gray"></path></g><path id="node_outline18" fill="none" stroke="none" d="M809.5,294.5h150a5,5,0,0,1,5,5v12a5,5,0,0,1,-5,5h-150a5,5,0,0,1,-5,-5v-12a5,5,0,0,1,5,-5z"></path><g id="node_text18" fill="black"><text id="kity_text_116" text-rendering="inherit" font-size="12" dy=".8em" y="297.7000000476837" x="814.5">A:="我是隐式声明的方法"</text></g></g></g></g></svg>