<svg id="kity_svg_6" xmlns="http://www.w3.org/2000/svg" xmlns:xlink="http://www.w3.org/1999/xlink" version="1.1" width="1662" height="301" style="background: rgb(251, 251, 251); visibility: visible;" viewBox="0 0 1662 301"><defs id="kity_defs_7"><linearGradient id="kity_linearGradient_17" x1="0" y1="0" x2="0" y2="1"><stop id="kity_stop_18" offset="0" stop-color="rgb(255, 255, 255)"></stop><stop id="kity_stop_19" offset="1" stop-color="rgb(204, 204, 204)"></stop></linearGradient><marker id="kity_marker_2" orient="auto" refX="6" refY="0" viewBox="-7 -7 14 14" markerWidth="7" markerHeight="7" markerUnits="userSpaceOnUse"><path id="kity_path_3" fill="rgb(115, 161, 191)" stroke="none" d="M6,0A6,6,0,1,1,-6,0A6,6,0,1,1,6,0"></path></marker></defs><g id="kity_g_8"><g id="minder1" text-rendering="optimize-speed"><g id="minder_connect_group1"><path id="kity_path_31" fill="none" stroke="rgb(115, 161, 191)" stroke-width="1" d="M705.5,60.5v30h-553.5V110.5"></path><path id="kity_path_33" fill="none" stroke="rgb(115, 161, 191)" stroke-width="1" d="M151.5,136.5v20h0.5V171.5"></path><path id="kity_path_35" fill="none" stroke="rgb(115, 161, 191)" stroke-width="1" d="M705.5,60.5v30h-92.5V110.5"></path><path id="kity_path_37" fill="none" stroke="rgb(115, 161, 191)" stroke-width="1" d="M612.5,136.5v20h-204V171.5"></path><path id="kity_path_39" fill="none" stroke="rgb(115, 161, 191)" stroke-width="1" d="M408.5,193.5v15h0.5V223.5"></path><path id="kity_path_41" fill="none" stroke="rgb(115, 161, 191)" stroke-width="1" d="M612.5,136.5v20h0.5V171.5"></path><path id="kity_path_43" fill="none" stroke="rgb(115, 161, 191)" stroke-width="1" d="M613.5,193.5v15h0V223.5"></path><path id="kity_path_45" fill="none" stroke="rgb(115, 161, 191)" stroke-width="1" d="M612.5,136.5v20h196V171.5"></path><path id="kity_path_47" fill="none" stroke="rgb(115, 161, 191)" stroke-width="1" d="M808.5,193.5v15h0.5V223.5"></path><path id="kity_path_49" fill="none" stroke="rgb(115, 161, 191)" stroke-width="1" d="M705.5,60.5v30h553.5V110.5"></path><path id="kity_path_51" fill="none" stroke="rgb(115, 161, 191)" stroke-width="1" d="M1258.5,136.5v20h-212V171.5"></path><path id="kity_path_53" fill="none" stroke="rgb(115, 161, 191)" stroke-width="1" d="M1046.5,193.5v15h0V223.5"></path><path id="kity_path_55" fill="none" stroke="rgb(115, 161, 191)" stroke-width="1" d="M1258.5,136.5v20h72.5V171.5"></path><path id="kity_path_57" fill="none" stroke="rgb(115, 161, 191)" stroke-width="1" d="M1331.5,193.5v15h0.5V223.5"></path><path id="kity_path_59" fill="none" stroke="rgb(115, 161, 191)" stroke-width="1" d="M1258.5,136.5v20h309.5V171.5"></path><path id="kity_path_61" fill="none" stroke="rgb(115, 161, 191)" stroke-width="1" d="M1568.5,193.5v15h0V223.5"></path></g><g id="minder_node1"><path id="node_outline1" fill="rgb(115, 161, 191)" stroke="rgb(57, 80, 96)" d="M668.5,20.5h73a5,5,0,0,1,5,5v30a5,5,0,0,1,-5,5h-73a5,5,0,0,1,-5,-5v-30a5,5,0,0,1,5,-5z" stroke-width="3"></path><g id="node_text1" fill="white"><text id="kity_text_22" text-rendering="inherit" font-size="16" dy=".8em" y="30.09999990463257" x="687.5">map</text></g></g><g id="kity_g_12"><path id="kity_path_13" fill="none" stroke="none" d="M687.5,40.5h0v0h0z"></path></g><g id="kity_g_14"><path id="kity_path_15" fill="none" stroke="none" d="M687.5,40.5h0v0h0z"></path><path id="kity_path_16" fill="none" stroke="none"></path></g><g id="minder_node2"><g id="node_expander2" style="cursor: pointer;"><path id="kity_path_117" fill="white" stroke="gray" d="M157.5,103.5A6,6,0,1,1,145.5,103.5A6,6,0,1,1,157.5,103.5"></path><path id="kity_path_118" fill="none" stroke="gray" d="M147,103.5L156,103.5"></path></g><path id="node_outline3" fill="rgb(238, 243, 246)" stroke="rgb(115, 161, 191)" d="M119.5,110.5h64a3,3,0,0,1,3,3v20a3,3,0,0,1,-3,3h-64a3,3,0,0,1,-3,-3v-20a3,3,0,0,1,3,-3z" stroke-width="1"></path><g id="node_text3" fill="black"><text id="kity_text_66" text-rendering="inherit" font-size="14" dy=".8em" y="114.40000009536743" x="136.5">介绍</text></g></g><g id="minder_node3"><g id="node_expander1" display="none" style="cursor: pointer;"><path id="kity_path_114" fill="white" stroke="gray" d="M158,165.5A6,6,0,1,1,146,165.5A6,6,0,1,1,158,165.5"></path><path id="kity_path_115" fill="none" stroke="gray"></path></g><path id="node_outline2" fill="none" stroke="none" d="M25.5,171.5h253a5,5,0,0,1,5,5v30a5,5,0,0,1,-5,5h-253a5,5,0,0,1,-5,-5v-30a5,5,0,0,1,5,-5z"></path><g id="node_text2" fill="black"><text id="kity_text_63" text-rendering="inherit" font-size="12" dy=".8em" y="174.70000004768372" x="30.5">map是类似于其他语言字典或者哈希表的东西</text><text id="kity_text_64" text-rendering="inherit" font-size="12" dy=".8em" y="192.70000004768372" x="30.5">表现为key-value</text></g></g><g id="minder_node4"><g id="node_expander9" style="cursor: pointer;"><path id="kity_path_138" fill="white" stroke="gray" d="M618.5,103.5A6,6,0,1,1,606.5,103.5A6,6,0,1,1,618.5,103.5"></path><path id="kity_path_139" fill="none" stroke="gray" d="M608,103.5L617,103.5"></path></g><path id="node_outline10" fill="rgb(238, 243, 246)" stroke="rgb(115, 161, 191)" d="M580.5,110.5h64a3,3,0,0,1,3,3v20a3,3,0,0,1,-3,3h-64a3,3,0,0,1,-3,-3v-20a3,3,0,0,1,3,-3z" stroke-width="1"></path><g id="node_text10" fill="black"><text id="kity_text_80" text-rendering="inherit" font-size="14" dy=".8em" y="114.40000009536743" x="597.5">声明</text></g></g><g id="minder_node5"><g id="node_expander4" style="cursor: pointer;"><path id="kity_path_123" fill="white" stroke="gray" d="M414.5,165.5A6,6,0,1,1,402.5,165.5A6,6,0,1,1,414.5,165.5"></path><path id="kity_path_124" fill="none" stroke="gray" d="M404,165.5L413,165.5"></path></g><path id="node_outline5" fill="none" stroke="none" d="M387.5,171.5h42a5,5,0,0,1,5,5v12a5,5,0,0,1,-5,5h-42a5,5,0,0,1,-5,-5v-12a5,5,0,0,1,5,-5z"></path><g id="node_text5" fill="black"><text id="kity_text_70" text-rendering="inherit" font-size="12" dy=".8em" y="174.70000004768372" x="392.5">make</text></g></g><g id="minder_node6"><g id="node_expander3" display="none" style="cursor: pointer;"><path id="kity_path_120" fill="white" stroke="gray" d="M415,217.5A6,6,0,1,1,403,217.5A6,6,0,1,1,415,217.5"></path><path id="kity_path_121" fill="none" stroke="gray"></path></g><path id="node_outline4" fill="none" stroke="none" d="M328.5,223.5h161a5,5,0,0,1,5,5v12a5,5,0,0,1,-5,5h-161a5,5,0,0,1,-5,-5v-12a5,5,0,0,1,5,-5z"></path><g id="node_text4" fill="black"><text id="kity_text_68" text-rendering="inherit" font-size="12" dy=".8em" y="226.70000004768372" x="333.5">m := make(map[int]string)</text></g></g><g id="minder_node7"><g id="node_expander6" style="cursor: pointer;"><path id="kity_path_129" fill="white" stroke="gray" d="M619,165.5A6,6,0,1,1,607,165.5A6,6,0,1,1,619,165.5"></path><path id="kity_path_130" fill="none" stroke="gray" d="M608.5,165.5L617.5,165.5"></path></g><path id="node_outline7" fill="none" stroke="none" d="M598.5,171.5h29a5,5,0,0,1,5,5v12a5,5,0,0,1,-5,5h-29a5,5,0,0,1,-5,-5v-12a5,5,0,0,1,5,-5z"></path><g id="node_text7" fill="black"><text id="kity_text_74" text-rendering="inherit" font-size="12" dy=".8em" y="174.70000004768372" x="603.5">var</text></g></g><g id="minder_node8"><g id="node_expander5" display="none" style="cursor: pointer;"><path id="kity_path_126" fill="white" stroke="gray" d="M619,217.5A6,6,0,1,1,607,217.5A6,6,0,1,1,619,217.5"></path><path id="kity_path_127" fill="none" stroke="gray"></path></g><path id="node_outline6" fill="none" stroke="none" d="M539.5,223.5h147a5,5,0,0,1,5,5v12a5,5,0,0,1,-5,5h-147a5,5,0,0,1,-5,-5v-12a5,5,0,0,1,5,-5z"></path><g id="node_text6" fill="black"><text id="kity_text_72" text-rendering="inherit" font-size="12" dy=".8em" y="226.70000004768372" x="544.5">var m map[string]string</text></g></g><g id="minder_node9"><g id="node_expander8" style="cursor: pointer;"><path id="kity_path_135" fill="white" stroke="gray" d="M814.5,165.5A6,6,0,1,1,802.5,165.5A6,6,0,1,1,814.5,165.5"></path><path id="kity_path_136" fill="none" stroke="gray" d="M804,165.5L813,165.5"></path></g><path id="node_outline9" fill="none" stroke="none" d="M779.5,171.5h58a5,5,0,0,1,5,5v12a5,5,0,0,1,-5,5h-58a5,5,0,0,1,-5,-5v-12a5,5,0,0,1,5,-5z"></path><g id="node_text9" fill="black"><text id="kity_text_78" text-rendering="inherit" font-size="12" dy=".8em" y="174.70000004768372" x="784.5">隐式声明</text></g></g><g id="minder_node10"><g id="node_expander7" display="none" style="cursor: pointer;"><path id="kity_path_132" fill="white" stroke="gray" d="M815,217.5A6,6,0,1,1,803,217.5A6,6,0,1,1,815,217.5"></path><path id="kity_path_133" fill="none" stroke="gray"></path></g><path id="node_outline8" fill="none" stroke="none" d="M736.5,223.5h145a5,5,0,0,1,5,5v12a5,5,0,0,1,-5,5h-145a5,5,0,0,1,-5,-5v-12a5,5,0,0,1,5,-5z"></path><g id="node_text8" fill="black"><text id="kity_text_76" text-rendering="inherit" font-size="12" dy=".8em" y="226.70000004768372" x="741.5">m = map[string]string{}</text></g></g><g id="minder_node11"><g id="node_expander16" style="cursor: pointer;"><path id="kity_path_159" fill="white" stroke="gray" d="M1264.5,103.5A6,6,0,1,1,1252.5,103.5A6,6,0,1,1,1264.5,103.5"></path><path id="kity_path_160" fill="none" stroke="gray" d="M1254,103.5L1263,103.5"></path></g><path id="node_outline17" fill="rgb(238, 243, 246)" stroke="rgb(115, 161, 191)" d="M1226.5,110.5h64a3,3,0,0,1,3,3v20a3,3,0,0,1,-3,3h-64a3,3,0,0,1,-3,-3v-20a3,3,0,0,1,3,-3z" stroke-width="1"></path><g id="node_text17" fill="black"><text id="kity_text_96" text-rendering="inherit" font-size="14" dy=".8em" y="114.40000009536743" x="1243.5">使用</text></g></g><g id="minder_node12"><g id="node_expander11" style="cursor: pointer;"><path id="kity_path_144" fill="white" stroke="gray" d="M1052.5,165.5A6,6,0,1,1,1040.5,165.5A6,6,0,1,1,1052.5,165.5"></path><path id="kity_path_145" fill="none" stroke="gray" d="M1042,165.5L1051,165.5"></path></g><path id="node_outline12" fill="none" stroke="none" d="M930.5,171.5h232a5,5,0,0,1,5,5v12a5,5,0,0,1,-5,5h-232a5,5,0,0,1,-5,-5v-12a5,5,0,0,1,5,-5z"></path><g id="node_text12" fill="black"><text id="kity_text_84" text-rendering="inherit" font-size="12" dy=".8em" y="174.70000004768372" x="935.5">变量名[声明过的key类型]声明过的值类型</text></g></g><g id="minder_node13"><g id="node_expander10" display="none" style="cursor: pointer;"><path id="kity_path_141" fill="white" stroke="gray" d="M1052.5,217.5A6,6,0,1,1,1040.5,217.5A6,6,0,1,1,1052.5,217.5"></path><path id="kity_path_142" fill="none" stroke="gray"></path></g><path id="node_outline11" fill="none" stroke="none" d="M967.5,223.5h158a5,5,0,0,1,5,5v12a5,5,0,0,1,-5,5h-158a5,5,0,0,1,-5,-5v-12a5,5,0,0,1,5,-5z"></path><g id="node_text11" fill="black"><text id="kity_text_82" text-rendering="inherit" font-size="12" dy=".8em" y="226.70000004768372" x="972.5">举例:m["header"] = "头部"</text></g></g><g id="minder_node14"><g id="node_expander13" style="cursor: pointer;"><path id="kity_path_150" fill="white" stroke="gray" d="M1337,165.5A6,6,0,1,1,1325,165.5A6,6,0,1,1,1337,165.5"></path><path id="kity_path_151" fill="none" stroke="gray" d="M1326.5,165.5L1335.5,165.5"></path></g><path id="node_outline14" fill="none" stroke="none" d="M1303.5,171.5h55a5,5,0,0,1,5,5v12a5,5,0,0,1,-5,5h-55a5,5,0,0,1,-5,-5v-12a5,5,0,0,1,5,-5z"></path><g id="node_text14" fill="black"><text id="kity_text_88" text-rendering="inherit" font-size="12" dy=".8em" y="174.70000004768372" x="1308.5">删除key</text></g></g><g id="minder_node15"><g id="node_expander12" display="none" style="cursor: pointer;"><path id="kity_path_147" fill="white" stroke="gray" d="M1337.5,217.5A6,6,0,1,1,1325.5,217.5A6,6,0,1,1,1337.5,217.5"></path><path id="kity_path_148" fill="none" stroke="gray"></path></g><path id="node_outline13" fill="none" stroke="none" d="M1213.5,223.5h236a5,5,0,0,1,5,5v12a5,5,0,0,1,-5,5h-236a5,5,0,0,1,-5,-5v-12a5,5,0,0,1,5,-5z"></path><g id="node_text13" fill="black"><text id="kity_text_86" text-rendering="inherit" font-size="12" dy=".8em" y="226.70000004768372" x="1218.5">delete(变量名，key)&#xa0; delete(m,"header")</text></g></g><g id="minder_node16"><g id="node_expander15" style="cursor: pointer;"><path id="kity_path_156" fill="white" stroke="gray" d="M1574,165.5A6,6,0,1,1,1562,165.5A6,6,0,1,1,1574,165.5"></path><path id="kity_path_157" fill="none" stroke="gray" d="M1563.5,165.5L1572.5,165.5"></path></g><path id="node_outline16" fill="none" stroke="none" d="M1549.5,171.5h37a5,5,0,0,1,5,5v12a5,5,0,0,1,-5,5h-37a5,5,0,0,1,-5,-5v-12a5,5,0,0,1,5,-5z"></path><g id="node_text16" fill="black"><text id="kity_text_94" text-rendering="inherit" font-size="12" dy=".8em" y="174.70000004768372" x="1554.5">循环</text></g></g><g id="minder_node17"><g id="node_expander14" display="none" style="cursor: pointer;"><path id="kity_path_153" fill="white" stroke="gray" d="M1574,217.5A6,6,0,1,1,1562,217.5A6,6,0,1,1,1574,217.5"></path><path id="kity_path_154" fill="none" stroke="gray"></path></g><path id="node_outline15" fill="none" stroke="none" d="M1498.5,223.5h139a5,5,0,0,1,5,5v48a5,5,0,0,1,-5,5h-139a5,5,0,0,1,-5,-5v-48a5,5,0,0,1,5,-5z"></path><g id="node_text15" fill="black"><text id="kity_text_90" text-rendering="inherit" font-size="12" dy=".8em" y="226.70000004768372" x="1503.5">for k,v:= range m{</text><text id="kity_text_91" text-rendering="inherit" font-size="12" dy=".8em" y="244.70000004768372" x="1503.5">&#xa0;fmt.Println(k,v,m[key])</text><text id="kity_text_92" text-rendering="inherit" font-size="12" dy=".8em" y="262.7000000476837" x="1503.5">}</text></g></g></g></g></svg>