<svg id="kity_svg_6" xmlns="http://www.w3.org/2000/svg" xmlns:xlink="http://www.w3.org/1999/xlink" version="1.1" width="1034" height="283" style="background: rgb(251, 251, 251); visibility: visible;" viewBox="0 0 1034 283"><defs id="kity_defs_7"><linearGradient id="kity_linearGradient_17" x1="0" y1="0" x2="0" y2="1"><stop id="kity_stop_18" offset="0" stop-color="rgb(255, 255, 255)"></stop><stop id="kity_stop_19" offset="1" stop-color="rgb(204, 204, 204)"></stop></linearGradient><marker id="kity_marker_2" orient="auto" refX="6" refY="0" viewBox="-7 -7 14 14" markerWidth="7" markerHeight="7" markerUnits="userSpaceOnUse"><path id="kity_path_3" fill="rgb(115, 161, 191)" stroke="none" d="M6,0A6,6,0,1,1,-6,0A6,6,0,1,1,6,0"></path></marker></defs><g id="kity_g_8"><g id="minder1" text-rendering="optimize-speed"><g id="minder_connect_group1"><path id="kity_path_31" fill="none" stroke="rgb(115, 161, 191)" stroke-width="1" d="M385.5,60.5v30h-329V110.5"></path><path id="kity_path_33" fill="none" stroke="rgb(115, 161, 191)" stroke-width="1" d="M40.5,136.5V191.5L60.5,191.5"></path><path id="kity_path_35" fill="none" stroke="rgb(115, 161, 191)" stroke-width="1" d="M80.5,211.5V252.5L100.5,252.5"></path><path id="kity_path_37" fill="none" stroke="rgb(115, 161, 191)" stroke-width="1" d="M385.5,60.5v30h372V108.5"></path><path id="kity_path_39" fill="none" stroke="rgb(115, 161, 191)" stroke-width="1" d="M741.5,134.5V189.5L761.5,189.5"></path></g><g id="minder_node1"><path id="node_outline1" fill="rgb(115, 161, 191)" stroke="rgb(57, 80, 96)" d="M324.5,20.5h121a5,5,0,0,1,5,5v30a5,5,0,0,1,-5,5h-121a5,5,0,0,1,-5,-5v-30a5,5,0,0,1,5,-5z" stroke-width="3"></path><g id="node_text1" fill="white"><text id="kity_text_22" text-rendering="inherit" font-size="16" dy=".8em" y="30.09999990463257" x="343.5">指针和地址</text></g></g><g id="kity_g_12"><path id="kity_path_13" fill="none" stroke="none" d="M343.5,40.5h0v0h0z"></path></g><g id="kity_g_14"><path id="kity_path_15" fill="none" stroke="none" d="M343.5,40.5h0v0h0z"></path><path id="kity_path_16" fill="none" stroke="none"></path></g><g id="minder_node2"><g id="node_expander3" style="cursor: pointer;"><path id="kity_path_64" fill="white" stroke="gray" d="M62,103.5A6,6,0,1,1,50,103.5A6,6,0,1,1,62,103.5"></path><path id="kity_path_65" fill="none" stroke="gray" d="M51.5,103.5L60.5,103.5"></path></g><path id="node_outline4" fill="rgb(238, 243, 246)" stroke="rgb(115, 161, 191)" d="M23.5,110.5h65a3,3,0,0,1,3,3v20a3,3,0,0,1,-3,3h-65a3,3,0,0,1,-3,-3v-20a3,3,0,0,1,3,-3z" stroke-width="1"></path><g id="node_text4" fill="black"><text id="kity_text_46" text-rendering="inherit" font-size="14" dy=".8em" y="114.40000009536743" x="40.5">指针</text></g></g><g id="minder_node3"><g id="node_expander2" style="cursor: pointer;"><path id="kity_path_61" fill="white" stroke="gray" d="M60.5,191.5A6,6,0,1,1,48.5,191.5A6,6,0,1,1,60.5,191.5"></path><path id="kity_path_62" fill="none" stroke="gray" d="M50,191.5L59,191.5"></path></g><path id="node_outline3" fill="none" stroke="none" d="M65.5,171.5h306a5,5,0,0,1,5,5v30a5,5,0,0,1,-5,5h-306a5,5,0,0,1,-5,-5v-30a5,5,0,0,1,5,-5z"></path><g id="node_text3" fill="black"><text id="kity_text_43" text-rendering="inherit" font-size="12" dy=".8em" y="174.70000004768372" x="70.5">用*表示 表示我们这个变量本身没有任何存储值</text><text id="kity_text_44" text-rendering="inherit" font-size="12" dy=".8em" y="192.70000004768372" x="70.5">而是拿到了原本数据的存储路径 说清楚很难 代码好理解</text></g></g><g id="minder_node4"><g id="node_expander1" display="none" style="cursor: pointer;"><path id="kity_path_58" fill="white" stroke="gray" d="M100.5,252.5A6,6,0,1,1,88.5,252.5A6,6,0,1,1,100.5,252.5"></path><path id="kity_path_59" fill="none" stroke="gray"></path></g><path id="node_outline2" fill="none" stroke="none" d="M105.5,241.5h103a5,5,0,0,1,5,5v12a5,5,0,0,1,-5,5h-103a5,5,0,0,1,-5,-5v-12a5,5,0,0,1,5,-5z"></path><g id="node_text2" fill="black"><text id="kity_text_41" text-rendering="inherit" font-size="12" dy=".8em" y="244.70000004768372" x="110.5">示例： var a *int</text></g></g><g id="minder_node5"><g id="node_expander5" style="cursor: pointer;"><path id="kity_path_70" fill="white" stroke="gray" d="M763,101.5A6,6,0,1,1,751,101.5A6,6,0,1,1,763,101.5"></path><path id="kity_path_71" fill="none" stroke="gray" d="M752.5,101.5L761.5,101.5"></path></g><path id="node_outline6" fill="rgb(238, 243, 246)" stroke="rgb(115, 161, 191)" d="M724.5,108.5h65a3,3,0,0,1,3,3v20a3,3,0,0,1,-3,3h-65a3,3,0,0,1,-3,-3v-20a3,3,0,0,1,3,-3z" stroke-width="1"></path><g id="node_text6" fill="black"><text id="kity_text_51" text-rendering="inherit" font-size="14" dy=".8em" y="112.40000009536743" x="741.5">地址</text></g></g><g id="minder_node6"><g id="node_expander4" display="none" style="cursor: pointer;"><path id="kity_path_67" fill="white" stroke="gray" d="M761.5,189.5A6,6,0,1,1,749.5,189.5A6,6,0,1,1,761.5,189.5"></path><path id="kity_path_68" fill="none" stroke="gray"></path></g><path id="node_outline5" fill="none" stroke="none" d="M766.5,169.5h243a5,5,0,0,1,5,5v30a5,5,0,0,1,-5,5h-243a5,5,0,0,1,-5,-5v-30a5,5,0,0,1,5,-5z"></path><g id="node_text5" fill="black"><text id="kity_text_48" text-rendering="inherit" font-size="12" dy=".8em" y="172.70000004768372" x="771.5">地址需要和指针搭配使用</text><text id="kity_text_49" text-rendering="inherit" font-size="12" dy=".8em" y="190.70000004768372" x="771.5">当然也可以使用go的隐式赋值得到某个地址</text></g></g></g></g></svg>