<svg id="kity_svg_6" xmlns="http://www.w3.org/2000/svg" xmlns:xlink="http://www.w3.org/1999/xlink" version="1.1" width="1435" height="353" style="background: rgb(251, 251, 251); visibility: visible;" viewBox="0 0 1435 353"><defs id="kity_defs_7"><linearGradient id="kity_linearGradient_17" x1="0" y1="0" x2="0" y2="1"><stop id="kity_stop_18" offset="0" stop-color="rgb(255, 255, 255)"></stop><stop id="kity_stop_19" offset="1" stop-color="rgb(204, 204, 204)"></stop></linearGradient><marker id="kity_marker_2" orient="auto" refX="6" refY="0" viewBox="-7 -7 14 14" markerWidth="7" markerHeight="7" markerUnits="userSpaceOnUse"><path id="kity_path_3" fill="rgb(115, 161, 191)" stroke="none" d="M6,0A6,6,0,1,1,-6,0A6,6,0,1,1,6,0"></path></marker></defs><g id="kity_g_8"><g id="minder1" text-rendering="optimize-speed"><g id="minder_connect_group1"><path id="kity_path_31" fill="none" stroke="rgb(115, 161, 191)" stroke-width="1" d="M613.5,60.5v30h-543V110.5"></path><path id="kity_path_33" fill="none" stroke="rgb(115, 161, 191)" stroke-width="1" d="M40.5,136.5V182.5L60.5,182.5"></path><path id="kity_path_35" fill="none" stroke="rgb(115, 161, 191)" stroke-width="1" d="M80.5,193.5V234.5L100.5,234.5"></path><path id="kity_path_37" fill="none" stroke="rgb(115, 161, 191)" stroke-width="1" d="M80.5,193.5V304.5L100.5,304.5"></path><path id="kity_path_39" fill="none" stroke="rgb(115, 161, 191)" stroke-width="1" d="M613.5,60.5v30h-288.5V110.5"></path><path id="kity_path_41" fill="none" stroke="rgb(115, 161, 191)" stroke-width="1" d="M281.5,136.5V182.5L301.5,182.5"></path><path id="kity_path_43" fill="none" stroke="rgb(115, 161, 191)" stroke-width="1" d="M613.5,60.5v30h-117V110.5"></path><path id="kity_path_45" fill="none" stroke="rgb(115, 161, 191)" stroke-width="1" d="M466.5,136.5V245.5L486.5,245.5"></path><path id="kity_path_47" fill="none" stroke="rgb(115, 161, 191)" stroke-width="1" d="M613.5,60.5v30h309V110.5"></path><path id="kity_path_49" fill="none" stroke="rgb(115, 161, 191)" stroke-width="1" d="M878.5,136.5V209.5L898.5,209.5"></path><path id="kity_path_51" fill="none" stroke="rgb(115, 161, 191)" stroke-width="1" d="M613.5,60.5v30h543.5V110.5"></path><path id="kity_path_53" fill="none" stroke="rgb(115, 161, 191)" stroke-width="1" d="M1127.5,136.5V227.5L1147.5,227.5"></path></g><g id="minder_node1"><path id="node_outline1" fill="rgb(115, 161, 191)" stroke="rgb(57, 80, 96)" d="M556.5,20.5h113a5,5,0,0,1,5,5v30a5,5,0,0,1,-5,5h-113a5,5,0,0,1,-5,-5v-30a5,5,0,0,1,5,-5z" stroke-width="3"></path><g id="node_text1" fill="white"><text id="kity_text_22" text-rendering="inherit" font-size="16" dy=".8em" y="30.09999990463257" x="575.5">数组Array</text></g></g><g id="kity_g_12"><path id="kity_path_13" fill="none" stroke="none" d="M575.5,40.5h0v0h0z"></path></g><g id="kity_g_14"><path id="kity_path_15" fill="none" stroke="none" d="M575.5,40.5h0v0h0z"></path><path id="kity_path_16" fill="none" stroke="none"></path></g><g id="minder_node2"><g id="node_expander4" style="cursor: pointer;"><path id="kity_path_117" fill="white" stroke="gray" d="M76,103.5A6,6,0,1,1,64,103.5A6,6,0,1,1,76,103.5"></path><path id="kity_path_118" fill="none" stroke="gray" d="M65.5,103.5L74.5,103.5"></path></g><path id="node_outline5" fill="rgb(238, 243, 246)" stroke="rgb(115, 161, 191)" d="M23.5,110.5h93a3,3,0,0,1,3,3v20a3,3,0,0,1,-3,3h-93a3,3,0,0,1,-3,-3v-20a3,3,0,0,1,3,-3z" stroke-width="1"></path><g id="node_text5" fill="black"><text id="kity_text_63" text-rendering="inherit" font-size="14" dy=".8em" y="114.40000009536743" x="40.5">定义数组</text></g></g><g id="minder_node3"><g id="node_expander3" style="cursor: pointer;"><path id="kity_path_114" fill="white" stroke="gray" d="M60.5,182.5A6,6,0,1,1,48.5,182.5A6,6,0,1,1,60.5,182.5"></path><path id="kity_path_115" fill="none" stroke="gray" d="M50,182.5L59,182.5"></path></g><path id="node_outline4" fill="none" stroke="none" d="M65.5,171.5h151a5,5,0,0,1,5,5v12a5,5,0,0,1,-5,5h-151a5,5,0,0,1,-5,-5v-12a5,5,0,0,1,5,-5z"></path><g id="node_text4" fill="black"><text id="kity_text_61" text-rendering="inherit" font-size="12" dy=".8em" y="174.70000004768372" x="70.5">数组内元素类型[数组长度]</text></g></g><g id="minder_node4"><g id="node_expander1" display="none" style="cursor: pointer;"><path id="kity_path_108" fill="white" stroke="gray" d="M100.5,234.5A6,6,0,1,1,88.5,234.5A6,6,0,1,1,100.5,234.5"></path><path id="kity_path_109" fill="none" stroke="gray"></path></g><path id="node_outline2" fill="none" stroke="none" d="M105.5,223.5h97a5,5,0,0,1,5,5v12a5,5,0,0,1,-5,5h-97a5,5,0,0,1,-5,-5v-12a5,5,0,0,1,5,-5z"></path><g id="node_text2" fill="black"><text id="kity_text_55" text-rendering="inherit" font-size="12" dy=".8em" y="226.70000004768372" x="110.5">a:= [3]int{1,2,3}</text></g></g><g id="minder_node5"><g id="node_expander2" display="none" style="cursor: pointer;"><path id="kity_path_111" fill="white" stroke="gray" d="M100.5,304.5A6,6,0,1,1,88.5,304.5A6,6,0,1,1,100.5,304.5"></path><path id="kity_path_112" fill="none" stroke="gray"></path></g><path id="node_outline3" fill="none" stroke="none" d="M105.5,275.5h109a5,5,0,0,1,5,5v48a5,5,0,0,1,-5,5h-109a5,5,0,0,1,-5,-5v-48a5,5,0,0,1,5,-5z"></path><g id="node_text3" fill="black"><text id="kity_text_57" text-rendering="inherit" font-size="12" dy=".8em" y="278.7000000476837" x="110.5">p := new ([10]int)</text><text id="kity_text_58" text-rendering="inherit" font-size="12" dy=".8em" y="296.7000000476837" x="110.5"></text><text id="kity_text_59" text-rendering="inherit" font-size="12" dy=".8em" y="314.7000000476837" x="110.5">p[2] = 5</text></g></g><g id="minder_node6"><g id="node_expander6" style="cursor: pointer;"><path id="kity_path_123" fill="white" stroke="gray" d="M330.5,103.5A6,6,0,1,1,318.5,103.5A6,6,0,1,1,330.5,103.5"></path><path id="kity_path_124" fill="none" stroke="gray" d="M320,103.5L329,103.5"></path></g><path id="node_outline7" fill="rgb(238, 243, 246)" stroke="rgb(115, 161, 191)" d="M264.5,110.5h120a3,3,0,0,1,3,3v20a3,3,0,0,1,-3,3h-120a3,3,0,0,1,-3,-3v-20a3,3,0,0,1,3,-3z" stroke-width="1"></path><g id="node_text7" fill="black"><text id="kity_text_67" text-rendering="inherit" font-size="14" dy=".8em" y="114.40000009536743" x="281.5">自动确定长度</text></g></g><g id="minder_node7"><g id="node_expander5" display="none" style="cursor: pointer;"><path id="kity_path_120" fill="white" stroke="gray" d="M301.5,182.5A6,6,0,1,1,289.5,182.5A6,6,0,1,1,301.5,182.5"></path><path id="kity_path_121" fill="none" stroke="gray"></path></g><path id="node_outline6" fill="none" stroke="none" d="M306.5,171.5h95a5,5,0,0,1,5,5v12a5,5,0,0,1,-5,5h-95a5,5,0,0,1,-5,-5v-12a5,5,0,0,1,5,-5z"></path><g id="node_text6" fill="black"><text id="kity_text_65" text-rendering="inherit" font-size="12" dy=".8em" y="174.70000004768372" x="311.5">a:=[...]int{1,2,3}</text></g></g><g id="minder_node8"><g id="node_expander8" style="cursor: pointer;"><path id="kity_path_129" fill="white" stroke="gray" d="M502,103.5A6,6,0,1,1,490,103.5A6,6,0,1,1,502,103.5"></path><path id="kity_path_130" fill="none" stroke="gray" d="M491.5,103.5L500.5,103.5"></path></g><path id="node_outline9" fill="rgb(238, 243, 246)" stroke="rgb(115, 161, 191)" d="M449.5,110.5h93a3,3,0,0,1,3,3v20a3,3,0,0,1,-3,3h-93a3,3,0,0,1,-3,-3v-20a3,3,0,0,1,3,-3z" stroke-width="1"></path><g id="node_text9" fill="black"><text id="kity_text_78" text-rendering="inherit" font-size="14" dy=".8em" y="114.40000009536743" x="466.5">循环数组</text></g></g><g id="minder_node9"><g id="node_expander7" display="none" style="cursor: pointer;"><path id="kity_path_126" fill="white" stroke="gray" d="M486.5,245.5A6,6,0,1,1,474.5,245.5A6,6,0,1,1,486.5,245.5"></path><path id="kity_path_127" fill="none" stroke="gray"></path></g><path id="node_outline8" fill="none" stroke="none" d="M491.5,171.5h322a5,5,0,0,1,5,5v138a5,5,0,0,1,-5,5h-322a5,5,0,0,1,-5,-5v-138a5,5,0,0,1,5,-5z"></path><g id="node_text8" fill="black"><text id="kity_text_69" text-rendering="inherit" font-size="12" dy=".8em" y="174.70000004768372" x="496.5">// 更具数组长度进行for循环 取数组的当前下标位置的数据</text><text id="kity_text_70" text-rendering="inherit" font-size="12" dy=".8em" y="192.70000004768372" x="496.5">for i:=0;i&lt;len(a);i++{</text><text id="kity_text_71" text-rendering="inherit" font-size="12" dy=".8em" y="210.70000004768372" x="496.5">   fmt.Println(a[i])</text><text id="kity_text_72" text-rendering="inherit" font-size="12" dy=".8em" y="228.70000004768372" x="496.5">}</text><text id="kity_text_73" text-rendering="inherit" font-size="12" dy=".8em" y="246.70000004768372" x="496.5">// 自动遍历所有元素 i为下标 v为当前元素</text><text id="kity_text_74" text-rendering="inherit" font-size="12" dy=".8em" y="264.7000000476837" x="496.5">for i,v:= range a{</text><text id="kity_text_75" text-rendering="inherit" font-size="12" dy=".8em" y="282.7000000476837" x="496.5">   fmt.Println(i,v)</text><text id="kity_text_76" text-rendering="inherit" font-size="12" dy=".8em" y="300.7000000476837" x="496.5">}</text></g></g><g id="minder_node10"><g id="node_expander10" style="cursor: pointer;"><path id="kity_path_135" fill="white" stroke="gray" d="M928,103.5A6,6,0,1,1,916,103.5A6,6,0,1,1,928,103.5"></path><path id="kity_path_136" fill="none" stroke="gray" d="M917.5,103.5L926.5,103.5"></path></g><path id="node_outline11" fill="rgb(238, 243, 246)" stroke="rgb(115, 161, 191)" d="M861.5,110.5h121a3,3,0,0,1,3,3v20a3,3,0,0,1,-3,3h-121a3,3,0,0,1,-3,-3v-20a3,3,0,0,1,3,-3z" stroke-width="1"></path><g id="node_text11" fill="black"><text id="kity_text_85" text-rendering="inherit" font-size="14" dy=".8em" y="114.40000009536743" x="878.5">数组常用方法</text></g></g><g id="minder_node11"><g id="node_expander9" display="none" style="cursor: pointer;"><path id="kity_path_132" fill="white" stroke="gray" d="M898.5,209.5A6,6,0,1,1,886.5,209.5A6,6,0,1,1,898.5,209.5"></path><path id="kity_path_133" fill="none" stroke="gray"></path></g><path id="node_outline10" fill="none" stroke="none" d="M903.5,171.5h159a5,5,0,0,1,5,5v66a5,5,0,0,1,-5,5h-159a5,5,0,0,1,-5,-5v-66a5,5,0,0,1,5,-5z"></path><g id="node_text10" fill="black"><text id="kity_text_80" text-rendering="inherit" font-size="12" dy=".8em" y="174.70000004768372" x="908.5">len() 取数组或者切片长度</text><text id="kity_text_81" text-rendering="inherit" font-size="12" dy=".8em" y="192.70000004768372" x="908.5">cap()取数组或者切片容量</text><text id="kity_text_82" text-rendering="inherit" font-size="12" dy=".8em" y="210.70000004768372" x="908.5"></text><text id="kity_text_83" text-rendering="inherit" font-size="12" dy=".8em" y="228.70000004768372" x="908.5">在数组中 他们两个永远相同</text></g></g><g id="minder_node12"><g id="node_expander12" style="cursor: pointer;"><path id="kity_path_141" fill="white" stroke="gray" d="M1162.5,103.5A6,6,0,1,1,1150.5,103.5A6,6,0,1,1,1162.5,103.5"></path><path id="kity_path_142" fill="none" stroke="gray" d="M1152,103.5L1161,103.5"></path></g><path id="node_outline13" fill="rgb(238, 243, 246)" stroke="rgb(115, 161, 191)" d="M1110.5,110.5h92a3,3,0,0,1,3,3v20a3,3,0,0,1,-3,3h-92a3,3,0,0,1,-3,-3v-20a3,3,0,0,1,3,-3z" stroke-width="1"></path><g id="node_text13" fill="black"><text id="kity_text_94" text-rendering="inherit" font-size="14" dy=".8em" y="114.40000009536743" x="1127.5">多维数组</text></g></g><g id="minder_node13"><g id="node_expander11" display="none" style="cursor: pointer;"><path id="kity_path_138" fill="white" stroke="gray" d="M1147.5,227.5A6,6,0,1,1,1135.5,227.5A6,6,0,1,1,1147.5,227.5"></path><path id="kity_path_139" fill="none" stroke="gray"></path></g><path id="node_outline12" fill="none" stroke="none" d="M1152.5,171.5h258a5,5,0,0,1,5,5v102a5,5,0,0,1,-5,5h-258a5,5,0,0,1,-5,-5v-102a5,5,0,0,1,5,-5z"></path><g id="node_text12" fill="black"><text id="kity_text_87" text-rendering="inherit" font-size="12" dy=".8em" y="174.70000004768372" x="1157.5">// 创建了一个 包含两个有三个整型元素的数组</text><text id="kity_text_88" text-rendering="inherit" font-size="12" dy=".8em" y="192.70000004768372" x="1157.5">又可以理解为 第一个为行 第二个为列</text><text id="kity_text_89" text-rendering="inherit" font-size="12" dy=".8em" y="210.70000004768372" x="1157.5">a:=[2][3]int{</text><text id="kity_text_90" text-rendering="inherit" font-size="12" dy=".8em" y="228.70000004768372" x="1157.5">{0,1,2},</text><text id="kity_text_91" text-rendering="inherit" font-size="12" dy=".8em" y="246.70000004768372" x="1157.5">{1,2,3},</text><text id="kity_text_92" text-rendering="inherit" font-size="12" dy=".8em" y="264.7000000476837" x="1157.5">}</text></g></g></g></g></svg>