<svg id="kity_svg_6" xmlns="http://www.w3.org/2000/svg" xmlns:xlink="http://www.w3.org/1999/xlink" version="1.1" width="1725" height="285" style="background: rgb(251, 251, 251); visibility: visible;" viewBox="0 0 1725 285"><defs id="kity_defs_7"><linearGradient id="kity_linearGradient_17" x1="0" y1="0" x2="0" y2="1"><stop id="kity_stop_18" offset="0" stop-color="rgb(255, 255, 255)"></stop><stop id="kity_stop_19" offset="1" stop-color="rgb(204, 204, 204)"></stop></linearGradient><marker id="kity_marker_2" orient="auto" refX="6" refY="0" viewBox="-7 -7 14 14" markerWidth="7" markerHeight="7" markerUnits="userSpaceOnUse"><path id="kity_path_3" fill="rgb(115, 161, 191)" stroke="none" d="M6,0A6,6,0,1,1,-6,0A6,6,0,1,1,6,0"></path></marker></defs><g id="kity_g_8"><g id="minder1" text-rendering="optimize-speed"><g id="minder_connect_group1"><path id="kity_path_31" fill="none" stroke="rgb(115, 161, 191)" stroke-width="1" d="M905.5,60.5v30h-705V110.5"></path><path id="kity_path_33" fill="none" stroke="rgb(115, 161, 191)" stroke-width="1" d="M200.5,136.5v20h0.5V171.5"></path><path id="kity_path_35" fill="none" stroke="rgb(115, 161, 191)" stroke-width="1" d="M905.5,60.5v30h-48.5V110.5"></path><path id="kity_path_37" fill="none" stroke="rgb(115, 161, 191)" stroke-width="1" d="M856.5,136.5v20h-254.5V171.5"></path><path id="kity_path_39" fill="none" stroke="rgb(115, 161, 191)" stroke-width="1" d="M602.5,193.5v15h-138.5V223.5"></path><path id="kity_path_41" fill="none" stroke="rgb(115, 161, 191)" stroke-width="1" d="M602.5,193.5v15h-12V223.5"></path><path id="kity_path_43" fill="none" stroke="rgb(115, 161, 191)" stroke-width="1" d="M602.5,193.5v15h127V223.5"></path><path id="kity_path_45" fill="none" stroke="rgb(115, 161, 191)" stroke-width="1" d="M856.5,136.5v20h3.5V171.5"></path><path id="kity_path_47" fill="none" stroke="rgb(115, 161, 191)" stroke-width="1" d="M860.5,193.5v15h0V223.5"></path><path id="kity_path_49" fill="none" stroke="rgb(115, 161, 191)" stroke-width="1" d="M856.5,136.5v20h126.5V171.5"></path><path id="kity_path_51" fill="none" stroke="rgb(115, 161, 191)" stroke-width="1" d="M983.5,193.5v15h0.5V223.5"></path><path id="kity_path_53" fill="none" stroke="rgb(115, 161, 191)" stroke-width="1" d="M856.5,136.5v20h260.5V171.5"></path><path id="kity_path_55" fill="none" stroke="rgb(115, 161, 191)" stroke-width="1" d="M1117.5,193.5v15h0.5V223.5"></path><path id="kity_path_57" fill="none" stroke="rgb(115, 161, 191)" stroke-width="1" d="M905.5,60.5v30h394.5V110.5"></path><path id="kity_path_59" fill="none" stroke="rgb(115, 161, 191)" stroke-width="1" d="M1299.5,136.5v20h0V171.5"></path><path id="kity_path_61" fill="none" stroke="rgb(115, 161, 191)" stroke-width="1" d="M905.5,60.5v30h695.5V125.5"></path><path id="kity_path_63" fill="none" stroke="rgb(115, 161, 191)" stroke-width="1" d="M1600.5,151.5v20h0V186.5"></path></g><g id="minder_node1"><path id="node_outline1" fill="rgb(115, 161, 191)" stroke="rgb(57, 80, 96)" d="M839.5,20.5h131a5,5,0,0,1,5,5v30a5,5,0,0,1,-5,5h-131a5,5,0,0,1,-5,-5v-30a5,5,0,0,1,5,-5z" stroke-width="3"></path><g id="node_text1" fill="white"><text id="kity_text_22" text-rendering="inherit" font-size="16" dy=".8em" y="30.09999990463257" x="858.5">结构体struct</text></g></g><g id="kity_g_12"><path id="kity_path_13" fill="none" stroke="none" d="M858.5,40.5h0v0h0z"></path></g><g id="kity_g_14"><path id="kity_path_15" fill="none" stroke="none" d="M858.5,40.5h0v0h0z"></path><path id="kity_path_16" fill="none" stroke="none"></path></g><g id="minder_node2"><g id="node_expander2" style="cursor: pointer;"><path id="kity_path_125" fill="white" stroke="gray" d="M206,103.5A6,6,0,1,1,194,103.5A6,6,0,1,1,206,103.5"></path><path id="kity_path_126" fill="none" stroke="gray" d="M195.5,103.5L204.5,103.5"></path></g><path id="node_outline3" fill="rgb(238, 243, 246)" stroke="rgb(115, 161, 191)" d="M167.5,110.5h65a3,3,0,0,1,3,3v20a3,3,0,0,1,-3,3h-65a3,3,0,0,1,-3,-3v-20a3,3,0,0,1,3,-3z" stroke-width="1"></path><g id="node_text3" fill="black"><text id="kity_text_69" text-rendering="inherit" font-size="14" dy=".8em" y="114.40000009536743" x="184.5">含义</text></g></g><g id="minder_node3"><g id="node_expander1" display="none" style="cursor: pointer;"><path id="kity_path_122" fill="white" stroke="gray" d="M206.5,165.5A6,6,0,1,1,194.5,165.5A6,6,0,1,1,206.5,165.5"></path><path id="kity_path_123" fill="none" stroke="gray"></path></g><path id="node_outline2" fill="none" stroke="none" d="M25.5,171.5h350a5,5,0,0,1,5,5v48a5,5,0,0,1,-5,5h-350a5,5,0,0,1,-5,-5v-48a5,5,0,0,1,5,-5z"></path><g id="node_text2" fill="black"><text id="kity_text_65" text-rendering="inherit" font-size="12" dy=".8em" y="174.70000004768372" x="30.5">结构体是一个可以存储不同数据类型的数据类型</text><text id="kity_text_66" text-rendering="inherit" font-size="12" dy=".8em" y="192.70000004768372" x="30.5"></text><text id="kity_text_67" text-rendering="inherit" font-size="12" dy=".8em" y="210.70000004768372" x="30.5">因为再声明完以后 它可以和数据类型一样使用 也有指针 值 等等</text></g></g><g id="minder_node4"><g id="node_expander13" style="cursor: pointer;"><path id="kity_path_158" fill="white" stroke="gray" d="M862.5,103.5A6,6,0,1,1,850.5,103.5A6,6,0,1,1,862.5,103.5"></path><path id="kity_path_159" fill="none" stroke="gray" d="M852,103.5L861,103.5"></path></g><path id="node_outline14" fill="rgb(238, 243, 246)" stroke="rgb(115, 161, 191)" d="M824.5,110.5h64a3,3,0,0,1,3,3v20a3,3,0,0,1,-3,3h-64a3,3,0,0,1,-3,-3v-20a3,3,0,0,1,3,-3z" stroke-width="1"></path><g id="node_text14" fill="black"><text id="kity_text_91" text-rendering="inherit" font-size="14" dy=".8em" y="114.40000009536743" x="841.5">使用</text></g></g><g id="minder_node5"><g id="node_expander6" style="cursor: pointer;"><path id="kity_path_137" fill="white" stroke="gray" d="M608,165.5A6,6,0,1,1,596,165.5A6,6,0,1,1,608,165.5"></path><path id="kity_path_138" fill="none" stroke="gray" d="M597.5,165.5L606.5,165.5"></path></g><path id="node_outline7" fill="none" stroke="none" d="M559.5,171.5h85a5,5,0,0,1,5,5v12a5,5,0,0,1,-5,5h-85a5,5,0,0,1,-5,-5v-12a5,5,0,0,1,5,-5z"></path><g id="node_text7" fill="black"><text id="kity_text_77" text-rendering="inherit" font-size="12" dy=".8em" y="174.70000004768372" x="564.5">作为数据类型</text></g></g><g id="minder_node6"><g id="node_expander3" display="none" style="cursor: pointer;"><path id="kity_path_128" fill="white" stroke="gray" d="M469.5,217.5A6,6,0,1,1,457.5,217.5A6,6,0,1,1,469.5,217.5"></path><path id="kity_path_129" fill="none" stroke="gray"></path></g><path id="node_outline4" fill="none" stroke="none" d="M425.5,223.5h76a5,5,0,0,1,5,5v12a5,5,0,0,1,-5,5h-76a5,5,0,0,1,-5,-5v-12a5,5,0,0,1,5,-5z"></path><g id="node_text4" fill="black"><text id="kity_text_71" text-rendering="inherit" font-size="12" dy=".8em" y="226.70000004768372" x="430.5">var qm Qm</text></g></g><g id="minder_node7"><g id="node_expander4" display="none" style="cursor: pointer;"><path id="kity_path_131" fill="white" stroke="gray" d="M596,217.5A6,6,0,1,1,584,217.5A6,6,0,1,1,596,217.5"></path><path id="kity_path_132" fill="none" stroke="gray"></path></g><path id="node_outline5" fill="none" stroke="none" d="M551.5,223.5h77a5,5,0,0,1,5,5v12a5,5,0,0,1,-5,5h-77a5,5,0,0,1,-5,-5v-12a5,5,0,0,1,5,-5z"></path><g id="node_text5" fill="black"><text id="kity_text_73" text-rendering="inherit" font-size="12" dy=".8em" y="226.70000004768372" x="556.5">qm := QM{}</text></g></g><g id="minder_node8"><g id="node_expander5" display="none" style="cursor: pointer;"><path id="kity_path_134" fill="white" stroke="gray" d="M735,217.5A6,6,0,1,1,723,217.5A6,6,0,1,1,735,217.5"></path><path id="kity_path_135" fill="none" stroke="gray"></path></g><path id="node_outline6" fill="none" stroke="none" d="M678.5,223.5h101a5,5,0,0,1,5,5v12a5,5,0,0,1,-5,5h-101a5,5,0,0,1,-5,-5v-12a5,5,0,0,1,5,-5z"></path><g id="node_text6" fill="black"><text id="kity_text_75" text-rendering="inherit" font-size="12" dy=".8em" y="226.70000004768372" x="683.5">qm := new(QM)</text></g></g><g id="minder_node9"><g id="node_expander8" style="cursor: pointer;"><path id="kity_path_143" fill="white" stroke="gray" d="M866,165.5A6,6,0,1,1,854,165.5A6,6,0,1,1,866,165.5"></path><path id="kity_path_144" fill="none" stroke="gray" d="M855.5,165.5L864.5,165.5"></path></g><path id="node_outline9" fill="none" stroke="none" d="M829.5,171.5h61a5,5,0,0,1,5,5v12a5,5,0,0,1,-5,5h-61a5,5,0,0,1,-5,-5v-12a5,5,0,0,1,5,-5z"></path><g id="node_text9" fill="black"><text id="kity_text_81" text-rendering="inherit" font-size="12" dy=".8em" y="174.70000004768372" x="834.5">访问参数</text></g></g><g id="minder_node10"><g id="node_expander7" display="none" style="cursor: pointer;"><path id="kity_path_140" fill="white" stroke="gray" d="M866,217.5A6,6,0,1,1,854,217.5A6,6,0,1,1,866,217.5"></path><path id="kity_path_141" fill="none" stroke="gray"></path></g><path id="node_outline8" fill="none" stroke="none" d="M832.5,223.5h55a5,5,0,0,1,5,5v12a5,5,0,0,1,-5,5h-55a5,5,0,0,1,-5,-5v-12a5,5,0,0,1,5,-5z"></path><g id="node_text8" fill="black"><text id="kity_text_79" text-rendering="inherit" font-size="12" dy=".8em" y="226.70000004768372" x="837.5">qm.XXX</text></g></g><g id="minder_node11"><g id="node_expander10" style="cursor: pointer;"><path id="kity_path_149" fill="white" stroke="gray" d="M989,165.5A6,6,0,1,1,977,165.5A6,6,0,1,1,989,165.5"></path><path id="kity_path_150" fill="none" stroke="gray" d="M978.5,165.5L987.5,165.5"></path></g><path id="node_outline11" fill="none" stroke="none" d="M940.5,171.5h85a5,5,0,0,1,5,5v12a5,5,0,0,1,-5,5h-85a5,5,0,0,1,-5,-5v-12a5,5,0,0,1,5,-5z"></path><g id="node_text11" fill="black"><text id="kity_text_85" text-rendering="inherit" font-size="12" dy=".8em" y="174.70000004768372" x="945.5">作为方法参数</text></g></g><g id="minder_node12"><g id="node_expander9" display="none" style="cursor: pointer;"><path id="kity_path_146" fill="white" stroke="gray" d="M989.5,217.5A6,6,0,1,1,977.5,217.5A6,6,0,1,1,989.5,217.5"></path><path id="kity_path_147" fill="none" stroke="gray"></path></g><path id="node_outline10" fill="none" stroke="none" d="M940.5,223.5h86a5,5,0,0,1,5,5v12a5,5,0,0,1,-5,5h-86a5,5,0,0,1,-5,-5v-12a5,5,0,0,1,5,-5z"></path><g id="node_text10" fill="black"><text id="kity_text_83" text-rendering="inherit" font-size="12" dy=".8em" y="226.70000004768372" x="945.5">func A(QM){}</text></g></g><g id="minder_node13"><g id="node_expander12" style="cursor: pointer;"><path id="kity_path_155" fill="white" stroke="gray" d="M1123,165.5A6,6,0,1,1,1111,165.5A6,6,0,1,1,1123,165.5"></path><path id="kity_path_156" fill="none" stroke="gray" d="M1112.5,165.5L1121.5,165.5"></path></g><path id="node_outline13" fill="none" stroke="none" d="M1080.5,171.5h73a5,5,0,0,1,5,5v12a5,5,0,0,1,-5,5h-73a5,5,0,0,1,-5,-5v-12a5,5,0,0,1,5,-5z"></path><g id="node_text13" fill="black"><text id="kity_text_89" text-rendering="inherit" font-size="12" dy=".8em" y="174.70000004768372" x="1085.5">结构体指针</text></g></g><g id="minder_node14"><g id="node_expander11" display="none" style="cursor: pointer;"><path id="kity_path_152" fill="white" stroke="gray" d="M1123.5,217.5A6,6,0,1,1,1111.5,217.5A6,6,0,1,1,1123.5,217.5"></path><path id="kity_path_153" fill="none" stroke="gray"></path></g><path id="node_outline12" fill="none" stroke="none" d="M1076.5,223.5h82a5,5,0,0,1,5,5v12a5,5,0,0,1,-5,5h-82a5,5,0,0,1,-5,-5v-12a5,5,0,0,1,5,-5z"></path><g id="node_text12" fill="black"><text id="kity_text_87" text-rendering="inherit" font-size="12" dy=".8em" y="226.70000004768372" x="1081.5">var qp&#xa0; *QM</text></g></g><g id="minder_node15"><g id="node_expander15" style="cursor: pointer;"><path id="kity_path_164" fill="white" stroke="gray" d="M1305.5,103.5A6,6,0,1,1,1293.5,103.5A6,6,0,1,1,1305.5,103.5"></path><path id="kity_path_165" fill="none" stroke="gray" d="M1295,103.5L1304,103.5"></path></g><path id="node_outline16" fill="rgb(238, 243, 246)" stroke="rgb(115, 161, 191)" d="M1267.5,110.5h64a3,3,0,0,1,3,3v20a3,3,0,0,1,-3,3h-64a3,3,0,0,1,-3,-3v-20a3,3,0,0,1,3,-3z" stroke-width="1"></path><g id="node_text16" fill="black"><text id="kity_text_99" text-rendering="inherit" font-size="14" dy=".8em" y="114.40000009536743" x="1284.5">声明</text></g></g><g id="minder_node16"><g id="node_expander14" display="none" style="cursor: pointer;"><path id="kity_path_161" fill="white" stroke="gray" d="M1305.5,165.5A6,6,0,1,1,1293.5,165.5A6,6,0,1,1,1305.5,165.5"></path><path id="kity_path_162" fill="none" stroke="gray"></path></g><path id="node_outline15" fill="none" stroke="none" d="M1208.5,171.5h182a5,5,0,0,1,5,5v84a5,5,0,0,1,-5,5h-182a5,5,0,0,1,-5,-5v-84a5,5,0,0,1,5,-5z"></path><g id="node_text15" fill="black"><text id="kity_text_93" text-rendering="inherit" font-size="12" dy=".8em" y="174.70000004768372" x="1213.5">type 结构体名 struct {</text><text id="kity_text_94" text-rendering="inherit" font-size="12" dy=".8em" y="192.70000004768372" x="1213.5">   其他数据类型名  数据类型 `标签`</text><text id="kity_text_95" text-rendering="inherit" font-size="12" dy=".8em" y="210.70000004768372" x="1213.5"></text><text id="kity_text_96" text-rendering="inherit" font-size="12" dy=".8em" y="228.70000004768372" x="1213.5">...</text><text id="kity_text_97" text-rendering="inherit" font-size="12" dy=".8em" y="246.70000004768372" x="1213.5">}</text></g></g><g id="minder_node17"><g id="node_expander17" style="cursor: pointer;"><path id="kity_path_170" fill="white" stroke="gray" d="M1606.5,118.5A6,6,0,1,1,1594.5,118.5A6,6,0,1,1,1606.5,118.5"></path><path id="kity_path_171" fill="none" stroke="gray" d="M1596,118.5L1605,118.5"></path></g><path id="node_outline18" fill="rgb(238, 243, 246)" stroke="rgb(115, 161, 191)" d="M1498.5,125.5h204a3,3,0,0,1,3,3v20a3,3,0,0,1,-3,3h-204a3,3,0,0,1,-3,-3v-20a3,3,0,0,1,3,-3z" stroke-width="1"></path><g id="node_text18" fill="black"><text id="kity_text_103" text-rendering="inherit" font-size="14" dy=".8em" y="129.40000009536743" x="1515.5">web开发中结构体多说两句</text></g></g><g id="minder_node18"><g id="node_expander16" display="none" style="cursor: pointer;"><path id="kity_path_167" fill="white" stroke="gray" d="M1606.5,180.5A6,6,0,1,1,1594.5,180.5A6,6,0,1,1,1606.5,180.5"></path><path id="kity_path_168" fill="none" stroke="gray"></path></g><path id="node_outline17" fill="none" stroke="none" d="M1514.5,186.5h172a5,5,0,0,1,5,5v12a5,5,0,0,1,-5,5h-172a5,5,0,0,1,-5,-5v-12a5,5,0,0,1,5,-5z"></path><g id="node_text17" fill="black"><text id="kity_text_101" text-rendering="inherit" font-size="12" dy=".8em" y="189.70000004768372" x="1519.5">及其像json 所以交互用它没错</text></g></g></g></g></svg>